  0
SECTION
  2
HEADER
  9
$ACADVER
  1
AC1027
  9
$ACADMAINTVER
 70
   105
  9
$DWGCODEPAGE
  3
ANSI_936
  9
$LASTSAVEDBY
  1
NieJing
  9
$REQUIREDVERSIONS
160
                 0
  9
$INSBASE
 10
0.0
 20
0.0
 30
0.0
  9
$EXTMIN
 10
-81741.94300409824
 20
-681559.8072253249
 30
0.0
  9
$EXTMAX
 10
3899422.147751998
 20
1160546.170107489
 30
0.0
  9
$LIMMIN
 10
0.0
 20
0.0
  9
$LIMMAX
 10
420.0
 20
297.0
  9
$ORTHOMODE
 70
     0
  9
$REGENMODE
 70
     1
  9
$FILLMODE
 70
     1
  9
$QTEXTMODE
 70
     0
  9
$MIRRTEXT
 70
     0
  9
$LTSCALE
 40
1.0
  9
$ATTMODE
 70
     1
  9
$TEXTSIZE
 40
2.5
  9
$TRACEWID
 40
1.0
  9
$TEXTSTYLE
  7
Standard
  9
$CLAYER
  8
0
  9
$CELTYPE
  6
ByLayer
  9
$CECOLOR
 62
   256
  9
$CELTSCALE
 40
1.0
  9
$DISPSILH
 70
     0
  9
$DIMSCALE
 40
1.0
  9
$DIMASZ
 40
2.5
  9
$DIMEXO
 40
0.625
  9
$DIMDLI
 40
3.75
  9
$DIMRND
 40
0.0
  9
$DIMDLE
 40
0.0
  9
$DIMEXE
 40
1.25
  9
$DIMTP
 40
0.0
  9
$DIMTM
 40
0.0
  9
$DIMTXT
 40
2.5
  9
$DIMCEN
 40
2.5
  9
$DIMTSZ
 40
0.0
  9
$DIMTOL
 70
     0
  9
$DIMLIM
 70
     0
  9
$DIMTIH
 70
     0
  9
$DIMTOH
 70
     0
  9
$DIMSE1
 70
     0
  9
$DIMSE2
 70
     0
  9
$DIMTAD
 70
     1
  9
$DIMZIN
 70
     8
  9
$DIMBLK
  1

  9
$DIMASO
 70
     1
  9
$DIMSHO
 70
     1
  9
$DIMPOST
  1

  9
$DIMAPOST
  1

  9
$DIMALT
 70
     0
  9
$DIMALTD
 70
     3
  9
$DIMALTF
 40
0.03937007874016
  9
$DIMLFAC
 40
1.0
  9
$DIMTOFL
 70
     1
  9
$DIMTVP
 40
0.0
  9
$DIMTIX
 70
     0
  9
$DIMSOXD
 70
     0
  9
$DIMSAH
 70
     0
  9
$DIMBLK1
  1

  9
$DIMBLK2
  1

  9
$DIMSTYLE
  2
ISO-25
  9
$DIMCLRD
 70
     0
  9
$DIMCLRE
 70
     0
  9
$DIMCLRT
 70
     0
  9
$DIMTFAC
 40
1.0
  9
$DIMGAP
 40
0.625
  9
$DIMJUST
 70
     0
  9
$DIMSD1
 70
     0
  9
$DIMSD2
 70
     0
  9
$DIMTOLJ
 70
     0
  9
$DIMTZIN
 70
     8
  9
$DIMALTZ
 70
     0
  9
$DIMALTTZ
 70
     0
  9
$DIMUPT
 70
     0
  9
$DIMDEC
 70
     2
  9
$DIMTDEC
 70
     2
  9
$DIMALTU
 70
     2
  9
$DIMALTTD
 70
     3
  9
$DIMTXSTY
  7
Standard
  9
$DIMAUNIT
 70
     0
  9
$DIMADEC
 70
     0
  9
$DIMALTRND
 40
0.0
  9
$DIMAZIN
 70
     0
  9
$DIMDSEP
 70
    44
  9
$DIMATFIT
 70
     3
  9
$DIMFRAC
 70
     0
  9
$DIMLDRBLK
  1

  9
$DIMLUNIT
 70
     2
  9
$DIMLWD
 70
    -2
  9
$DIMLWE
 70
    -2
  9
$DIMTMOVE
 70
     0
  9
$DIMFXL
 40
1.0
  9
$DIMFXLON
 70
     0
  9
$DIMJOGANG
 40
0.7853981633974483
  9
$DIMTFILL
 70
     0
  9
$DIMTFILLCLR
 70
     0
  9
$DIMARCSYM
 70
     0
  9
$DIMLTYPE
  6

  9
$DIMLTEX1
  6

  9
$DIMLTEX2
  6

  9
$DIMTXTDIRECTION
 70
     0
  9
$LUNITS
 70
     2
  9
$LUPREC
 70
     4
  9
$SKETCHINC
 40
1.0
  9
$FILLETRAD
 40
0.0
  9
$AUNITS
 70
     0
  9
$AUPREC
 70
     0
  9
$MENU
  1
.
  9
$ELEVATION
 40
0.0
  9
$PELEVATION
 40
0.0
  9
$THICKNESS
 40
0.0
  9
$LIMCHECK
 70
     0
  9
$CHAMFERA
 40
0.0
  9
$CHAMFERB
 40
0.0
  9
$CHAMFERC
 40
0.0
  9
$CHAMFERD
 40
0.0
  9
$SKPOLY
 70
     0
  9
$TDCREATE
 40
2458649.755072627
  9
$TDUCREATE
 40
2458649.421739294
  9
$TDUPDATE
 40
2458649.771101343
  9
$TDUUPDATE
 40
2458649.437768010
  9
$TDINDWG
 40
0.0118231597
  9
$TDUSRTIMER
 40
0.0118228472
  9
$USRTIMER
 70
     1
  9
$ANGBASE
 50
0.0
  9
$ANGDIR
 70
     0
  9
$PDMODE
 70
     0
  9
$PDSIZE
 40
0.0
  9
$PLINEWID
 40
0.0
  9
$SPLFRAME
 70
     0
  9
$SPLINETYPE
 70
     6
  9
$SPLINESEGS
 70
     8
  9
$HANDSEED
  5
15F1
  9
$SURFTAB1
 70
     6
  9
$SURFTAB2
 70
     6
  9
$SURFTYPE
 70
     6
  9
$SURFU
 70
     6
  9
$SURFV
 70
     6
  9
$UCSBASE
  2

  9
$UCSNAME
  2

  9
$UCSORG
 10
0.0
 20
0.0
 30
0.0
  9
$UCSXDIR
 10
1.0
 20
0.0
 30
0.0
  9
$UCSYDIR
 10
0.0
 20
1.0
 30
0.0
  9
$UCSORTHOREF
  2

  9
$UCSORTHOVIEW
 70
     0
  9
$UCSORGTOP
 10
0.0
 20
0.0
 30
0.0
  9
$UCSORGBOTTOM
 10
0.0
 20
0.0
 30
0.0
  9
$UCSORGLEFT
 10
0.0
 20
0.0
 30
0.0
  9
$UCSORGRIGHT
 10
0.0
 20
0.0
 30
0.0
  9
$UCSORGFRONT
 10
0.0
 20
0.0
 30
0.0
  9
$UCSORGBACK
 10
0.0
 20
0.0
 30
0.0
  9
$PUCSBASE
  2

  9
$PUCSNAME
  2

  9
$PUCSORG
 10
0.0
 20
0.0
 30
0.0
  9
$PUCSXDIR
 10
1.0
 20
0.0
 30
0.0
  9
$PUCSYDIR
 10
0.0
 20
1.0
 30
0.0
  9
$PUCSORTHOREF
  2

  9
$PUCSORTHOVIEW
 70
     0
  9
$PUCSORGTOP
 10
0.0
 20
0.0
 30
0.0
  9
$PUCSORGBOTTOM
 10
0.0
 20
0.0
 30
0.0
  9
$PUCSORGLEFT
 10
0.0
 20
0.0
 30
0.0
  9
$PUCSORGRIGHT
 10
0.0
 20
0.0
 30
0.0
  9
$PUCSORGFRONT
 10
0.0
 20
0.0
 30
0.0
  9
$PUCSORGBACK
 10
0.0
 20
0.0
 30
0.0
  9
$USERI1
 70
     0
  9
$USERI2
 70
     0
  9
$USERI3
 70
     0
  9
$USERI4
 70
     0
  9
$USERI5
 70
     0
  9
$USERR1
 40
0.0
  9
$USERR2
 40
0.0
  9
$USERR3
 40
0.0
  9
$USERR4
 40
0.0
  9
$USERR5
 40
0.0
  9
$WORLDVIEW
 70
     1
  9
$SHADEDGE
 70
     3
  9
$SHADEDIF
 70
    70
  9
$TILEMODE
 70
     1
  9
$MAXACTVP
 70
    64
  9
$PINSBASE
 10
0.0
 20
0.0
 30
0.0
  9
$PLIMCHECK
 70
     0
  9
$PEXTMIN
 10
0.0
 20
0.0
 30
0.0
  9
$PEXTMAX
 10
0.0
 20
0.0
 30
0.0
  9
$PLIMMIN
 10
0.0
 20
0.0
  9
$PLIMMAX
 10
12.0
 20
9.0
  9
$UNITMODE
 70
     0
  9
$VISRETAIN
 70
     1
  9
$PLINEGEN
 70
     0
  9
$PSLTSCALE
 70
     1
  9
$TREEDEPTH
 70
  3020
  9
$CMLSTYLE
  2
Standard
  9
$CMLJUST
 70
     0
  9
$CMLSCALE
 40
20.0
  9
$PROXYGRAPHICS
 70
     1
  9
$MEASUREMENT
 70
     1
  9
$CELWEIGHT
370
    -1
  9
$ENDCAPS
280
     0
  9
$JOINSTYLE
280
     0
  9
$LWDISPLAY
290
     0
  9
$INSUNITS
 70
     4
  9
$HYPERLINKBASE
  1

  9
$STYLESHEET
  1

  9
$XEDIT
290
     1
  9
$CEPSNTYPE
380
     0
  9
$PSTYLEMODE
290
     1
  9
$FINGERPRINTGUID
  2
{348D0206-D3B6-4E06-AF9A-0549C46A6AE9}
  9
$VERSIONGUID
  2
{52DE33E2-465B-487A-AFAA-E120D8D40A13}
  9
$EXTNAMES
290
     1
  9
$PSVPSCALE
 40
0.0
  9
$OLESTARTUP
290
     0
  9
$SORTENTS
280
   127
  9
$INDEXCTL
280
     0
  9
$HIDETEXT
280
     1
  9
$XCLIPFRAME
280
     2
  9
$HALOGAP
280
     0
  9
$OBSCOLOR
 70
   257
  9
$OBSLTYPE
280
     0
  9
$INTERSECTIONDISPLAY
280
     0
  9
$INTERSECTIONCOLOR
 70
   257
  9
$DIMASSOC
280
     2
  9
$PROJECTNAME
  1

  9
$CAMERADISPLAY
290
     0
  9
$LENSLENGTH
 40
50.0
  9
$CAMERAHEIGHT
 40
0.0
  9
$STEPSPERSEC
 40
2.0
  9
$STEPSIZE
 40
6.0
  9
$3DDWFPREC
 40
2.0
  9
$PSOLWIDTH
 40
5.0
  9
$PSOLHEIGHT
 40
80.0
  9
$LOFTANG1
 40
1.570796326794896
  9
$LOFTANG2
 40
1.570796326794896
  9
$LOFTMAG1
 40
0.0
  9
$LOFTMAG2
 40
0.0
  9
$LOFTPARAM
 70
     7
  9
$LOFTNORMALS
280
     1
  9
$LATITUDE
 40
37.795
  9
$LONGITUDE
 40
-122.394
  9
$NORTHDIRECTION
 40
0.0
  9
$TIMEZONE
 70
 -8000
  9
$LIGHTGLYPHDISPLAY
280
     1
  9
$TILEMODELIGHTSYNCH
280
     1
  9
$CMATERIAL
347
EC
  9
$SOLIDHIST
280
     0
  9
$SHOWHIST
280
     1
  9
$DWFFRAME
280
     2
  9
$DGNFRAME
280
     0
  9
$REALWORLDSCALE
290
     1
  9
$INTERFERECOLOR
 62
     1
  9
$INTERFEREOBJVS
345
F9
  9
$INTERFEREVPVS
346
F6
  9
$CSHADOW
280
     0
  9
$SHADOWPLANELOCATION
 40
0.0
  0
ENDSEC
  0
SECTION
  2
CLASSES
  0
CLASS
  1
ACDBDICTIONARYWDFLT
  2
AcDbDictionaryWithDefault
  3
ObjectDBX Classes
 90
        0
 91
        1
280
     0
281
     0
  0
CLASS
  1
DICTIONARYVAR
  2
AcDbDictionaryVar
  3
ObjectDBX Classes
 90
        0
 91
        9
280
     0
281
     0
  0
CLASS
  1
TABLESTYLE
  2
AcDbTableStyle
  3
ObjectDBX Classes
 90
     4095
 91
        1
280
     0
281
     0
  0
CLASS
  1
MATERIAL
  2
AcDbMaterial
  3
ObjectDBX Classes
 90
     1153
 91
        3
280
     0
281
     0
  0
CLASS
  1
VISUALSTYLE
  2
AcDbVisualStyle
  3
ObjectDBX Classes
 90
     4095
 91
       24
280
     0
281
     0
  0
CLASS
  1
SCALE
  2
AcDbScale
  3
ObjectDBX Classes
 90
     1153
 91
       17
280
     0
281
     0
  0
CLASS
  1
MLEADERSTYLE
  2
AcDbMLeaderStyle
  3
ACDB_MLEADERSTYLE_CLASS
 90
     4095
 91
        2
280
     0
281
     0
  0
CLASS
  1
CELLSTYLEMAP
  2
AcDbCellStyleMap
  3
ObjectDBX Classes
 90
     1152
 91
       16
280
     0
281
     0
  0
CLASS
  1
EXACXREFPANELOBJECT
  2
ExAcXREFPanelObject
  3
EXAC_ESW
 90
     1025
 91
        0
280
     0
281
     0
  0
CLASS
  1
NPOCOLLECTION
  2
AcDbImpNonPersistentObjectsCollection
  3
ObjectDBX Classes
 90
     1153
 91
        0
280
     0
281
     0
  0
CLASS
  1
LAYER_INDEX
  2
AcDbLayerIndex
  3
ObjectDBX Classes
 90
        0
 91
        0
280
     0
281
     0
  0
CLASS
  1
SPATIAL_INDEX
  2
AcDbSpatialIndex
  3
ObjectDBX Classes
 90
        0
 91
        0
280
     0
281
     0
  0
CLASS
  1
IDBUFFER
  2
AcDbIdBuffer
  3
ObjectDBX Classes
 90
        0
 91
        0
280
     0
281
     0
  0
CLASS
  1
ACDBSECTIONVIEWSTYLE
  2
AcDbSectionViewStyle
  3
ObjectDBX Classes
 90
     1025
 91
        1
280
     0
281
     0
  0
CLASS
  1
ACDBDETAILVIEWSTYLE
  2
AcDbDetailViewStyle
  3
ObjectDBX Classes
 90
     1025
 91
        1
280
     0
281
     0
  0
ENDSEC
  0
SECTION
  2
TABLES
  0
TABLE
  2
VPORT
  5
8
330
0
100
AcDbSymbolTable
 70
     1
  0
VPORT
  5
EA
330
8
100
AcDbSymbolTableRecord
100
AcDbViewportTableRecord
  2
*Active
 70
     0
 10
0.0
 20
0.0
 11
1.0
 21
1.0
 12
2975541.202167871
 22
2385.011658995878
 13
0.0
 23
0.0
 14
10.0
 24
10.0
 15
10.0
 25
10.0
 16
0.0
 26
0.0
 36
1.0
 17
0.0
 27
0.0
 37
0.0
 40
3225973.007084986
 41
2.521796565389696
 42
50.0
 43
0.0
 44
0.0
 50
0.0
 51
0.0
 71
     0
 72
  1000
 73
     1
 74
     3
 75
     0
 76
     1
 77
     0
 78
     0
281
     0
 65
     1
110
0.0
120
0.0
130
0.0
111
1.0
121
0.0
131
0.0
112
0.0
122
1.0
132
0.0
 79
     0
146
0.0
348
F5
 60
     3
 61
     5
292
     1
282
     1
141
0.0
142
0.0
 63
   250
421
  3355443
1001
ACAD_NAV_VCDISPLAY
1070
     3
  0
ENDTAB
  0
TABLE
  2
LTYPE
  5
5
330
0
100
AcDbSymbolTable
 70
     1
  0
LTYPE
  5
14
330
5
100
AcDbSymbolTableRecord
100
AcDbLinetypeTableRecord
  2
ByBlock
 70
     0
  3

 72
    65
 73
     0
 40
0.0
  0
LTYPE
  5
15
330
5
100
AcDbSymbolTableRecord
100
AcDbLinetypeTableRecord
  2
ByLayer
 70
     0
  3

 72
    65
 73
     0
 40
0.0
  0
LTYPE
  5
16
330
5
100
AcDbSymbolTableRecord
100
AcDbLinetypeTableRecord
  2
Continuous
 70
     0
  3
Solid line
 72
    65
 73
     0
 40
0.0
  0
ENDTAB
  0
TABLE
  2
LAYER
  5
2
102
{ACAD_XDICTIONARY
360
1FF
102
}
330
0
100
AcDbSymbolTable
 70
     1
  0
LAYER
  5
10
102
{ACAD_XDICTIONARY
360
13C
102
}
330
2
100
AcDbSymbolTableRecord
100
AcDbLayerTableRecord
  2
0
 70
     0
 62
     7
  6
Continuous
370
    -3
390
F
347
EE
348
0
  0
ENDTAB
  0
TABLE
  2
STYLE
  5
3
330
0
100
AcDbSymbolTable
 70
     2
  0
STYLE
  5
11
330
3
100
AcDbSymbolTableRecord
100
AcDbTextStyleTableRecord
  2
Standard
 70
     0
 40
0.0
 41
1.0
 50
0.0
 71
     0
 42
2.5
  3
arial.ttf
  4

1001
ACAD
1000
Arial
1071
       34
  0
STYLE
  5
132
330
3
100
AcDbSymbolTableRecord
100
AcDbTextStyleTableRecord
  2
可註解
 70
     0
 40
0.0
 41
1.0
 50
0.0
 71
     0
 42
2.5
  3
arial.ttf
  4

1001
AcadAnnotative
1000
AnnotativeData
1002
{
1070
     1
1070
     1
1002
}
1001
ACAD
1000
Arial
1071
       34
  0
ENDTAB
  0
TABLE
  2
VIEW
  5
6
330
0
100
AcDbSymbolTable
 70
    14
  0
ENDTAB
  0
TABLE
  2
UCS
  5
7
330
0
100
AcDbSymbolTable
 70
     0
  0
ENDTAB
  0
TABLE
  2
APPID
  5
9
330
0
100
AcDbSymbolTable
 70
     8
  0
APPID
  5
12
330
9
100
AcDbSymbolTableRecord
100
AcDbRegAppTableRecord
  2
ACAD
 70
     0
  0
APPID
  5
9E
330
9
100
AcDbSymbolTableRecord
100
AcDbRegAppTableRecord
  2
ACAD_PSEXT
 70
     0
  0
APPID
  5
133
330
9
100
AcDbSymbolTableRecord
100
AcDbRegAppTableRecord
  2
AcadAnnoPO
 70
     0
  0
APPID
  5
134
330
9
100
AcDbSymbolTableRecord
100
AcDbRegAppTableRecord
  2
AcadAnnotative
 70
     0
  0
APPID
  5
135
330
9
100
AcDbSymbolTableRecord
100
AcDbRegAppTableRecord
  2
ACAD_DSTYLE_DIMJAG
 70
     0
  0
APPID
  5
136
330
9
100
AcDbSymbolTableRecord
100
AcDbRegAppTableRecord
  2
ACAD_DSTYLE_DIMTALN
 70
     0
  0
APPID
  5
165
330
9
100
AcDbSymbolTableRecord
100
AcDbRegAppTableRecord
  2
ACAD_MLEADERVER
 70
     0
  0
APPID
  5
217
330
9
100
AcDbSymbolTableRecord
100
AcDbRegAppTableRecord
  2
ACAD_NAV_VCDISPLAY
 70
     0
  0
ENDTAB
  0
TABLE
  2
DIMSTYLE
  5
A
330
0
100
AcDbSymbolTable
 70
     3
100
AcDbDimStyleTable
 71
     2
340
27
340
137
  0
DIMSTYLE
105
1B0
330
A
100
AcDbSymbolTableRecord
100
AcDbDimStyleTableRecord
  2
Standard
 70
     0
340
11
  0
DIMSTYLE
105
137
330
A
100
AcDbSymbolTableRecord
100
AcDbDimStyleTableRecord
  2
可註解
 70
     0
 40
0.0
 41
2.5
 42
0.625
 43
3.75
 44
1.25
 73
     0
 74
     0
 77
     1
 78
     8
140
2.5
141
2.5
143
0.03937007874016
147
0.625
171
     3
172
     1
271
     2
272
     2
274
     3
278
    44
283
     0
284
     8
340
11
1001
AcadAnnotative
1000
AnnotativeData
1002
{
1070
     1
1070
     1
1002
}
1001
ACAD_DSTYLE_DIMJAG
1070
   388
1040
1.5
1001
ACAD_DSTYLE_DIMTALN
1070
   392
1070
     0
  0
DIMSTYLE
105
27
330
A
100
AcDbSymbolTableRecord
100
AcDbDimStyleTableRecord
  2
ISO-25
 70
     0
 41
2.5
 42
0.625
 43
3.75
 44
1.25
 73
     0
 74
     0
 77
     1
 78
     8
140
2.5
141
2.5
143
0.03937007874016
147
0.625
171
     3
172
     1
271
     2
272
     2
274
     3
278
    44
283
     0
284
     8
340
11
  0
ENDTAB
  0
TABLE
  2
BLOCK_RECORD
  5
1
330
0
100
AcDbSymbolTable
 70
     1
  0
BLOCK_RECORD
  5
1F
102
{ACAD_XDICTIONARY
360
1CE
102
}
330
1
100
AcDbSymbolTableRecord
100
AcDbBlockTableRecord
  2
*Model_Space
340
22
 70
     0
280
     1
281
     0
  0
BLOCK_RECORD
  5
D2
330
1
100
AcDbSymbolTableRecord
100
AcDbBlockTableRecord
  2
*Paper_Space
340
D3
 70
     0
280
     1
281
     0
  0
BLOCK_RECORD
  5
D6
330
1
100
AcDbSymbolTableRecord
100
AcDbBlockTableRecord
  2
*Paper_Space0
340
D7
 70
     0
280
     1
281
     0
  0
ENDTAB
  0
ENDSEC
  0
SECTION
  2
BLOCKS
  0
BLOCK
  5
20
330
1F
100
AcDbEntity
  8
0
100
AcDbBlockBegin
  2
*Model_Space
 70
     0
 10
0.0
 20
0.0
 30
0.0
  3
*Model_Space
  1

  0
ENDBLK
  5
21
330
1F
100
AcDbEntity
  8
0
100
AcDbBlockEnd
  0
BLOCK
  5
D4
330
D2
100
AcDbEntity
 67
     1
  8
0
100
AcDbBlockBegin
  2
*Paper_Space
 70
     0
 10
0.0
 20
0.0
 30
0.0
  3
*Paper_Space
  1

  0
ENDBLK
  5
D5
330
D2
100
AcDbEntity
 67
     1
  8
0
100
AcDbBlockEnd
  0
BLOCK
  5
D8
330
D6
100
AcDbEntity
 67
     1
  8
0
100
AcDbBlockBegin
  2
*Paper_Space0
 70
     0
 10
0.0
 20
0.0
 30
0.0
  3
*Paper_Space0
  1

  0
ENDBLK
  5
D9
330
D6
100
AcDbEntity
 67
     1
  8
0
100
AcDbBlockEnd
  0
ENDSEC
  0
SECTION
  2
ENTITIES
  0
LWPOLYLINE
  5
1032
330
1F
100
AcDbEntity
  8
0
100
AcDbPolyline
 90
     1166
 70
     0
 43
0.0
 10
79791.12447398901
 20
151943.7607301797
 42
-0.52056705
 10
81825.10077158921
 20
151943.7607301797
 42
-0.52056705
 10
81825.10077158921
 20
151943.7607301797
 42
-0.52056705
 10
93011.99302149193
 20
167186.4659089446
 42
-0.52056705
 10
93011.99302149193
 20
167186.4659089446
 42
-0.52056705
 10
113351.7921784557
 20
219011.6610059687
 42
-0.52056705
 10
113351.7921784557
 20
219011.6610059687
 42
-0.52056705
 10
164201.2900708653
 20
319613.5105229461
 42
-0.52056705
 10
164201.2900708653
 20
319613.5105229461
 42
-0.52056705
 10
228271.6565107769
 20
373471.0666691547
 42
-0.52056705
 10
228271.6565107769
 20
373471.0666691547
 42
-0.52056705
 10
281155.1307007857
 20
413102.0990578963
 42
-0.52056705
 10
281155.1307007857
 20
413102.0990578963
 42
-0.52056705
 10
303528.9106779704
 20
432409.524541618
 42
-0.52056705
 10
303528.9106779704
 20
432409.524541618
 42
-0.52056705
 10
314715.8029278722
 20
442571.3279941279
 42
-0.52056705
 10
314715.8029278722
 20
442571.3279941279
 42
-0.52056705
 10
317766.7718968932
 20
444603.6890433126
 42
-0.52056705
 10
317766.7718968932
 20
444603.6890433126
 42
-0.52056705
 10
318783.7600456933
 20
444603.6890433126
 42
-0.52056705
 10
318783.7600456933
 20
444603.6890433126
 42
-0.52056705
 10
495740.009997705
 20
498461.2451895208
 42
-0.52056705
 10
495740.009997705
 20
498461.2451895208
 42
-0.52056705
 10
739817.59988127
 20
510655.4078978033
 42
-0.52056705
 10
739817.59988127
 20
510655.4078978033
 42
-0.52056705
 10
841516.595666089
 20
508623.0486420312
 42
-0.52056705
 10
841516.595666089
 20
508623.0486420312
 42
-0.52056705
 10
881179.2013085961
 20
499477.4248174073
 42
-0.52056705
 10
881179.2013085961
 20
499477.4248174073
 42
-0.52056705
 10
889315.1200668571
 20
495412.7045124506
 42
-0.52056705
 10
889315.1200668571
 20
495412.7045124506
 42
-0.52056705
 10
895417.0625275187
 20
495412.7045124506
 42
-0.52056705
 10
895417.0625275187
 20
495412.7045124506
 42
-0.52056705
 10
1043897.594564305
 20
495412.7045124506
 42
-0.52056705
 10
1043897.594564305
 20
495412.7045124506
 42
-0.52056705
 10
1204582.006999795
 20
474072.9179795443
 42
-0.52056705
 10
1204582.006999795
 20
474072.9179795443
 42
-0.52056705
 10
1376453.307162567
 20
452733.1314466379
 42
-0.52056705
 10
1376453.307162567
 20
452733.1314466379
 42
-0.52056705
 10
1422217.855265735
 20
448668.4093482693
 42
-0.52056705
 10
1422217.855265735
 20
448668.4093482693
 42
-0.52056705
 10
1425268.824234755
 20
448668.4093482693
 42
-0.52056705
 10
1425268.824234755
 20
448668.4093482693
 42
-0.52056705
 10
1430353.774023996
 20
448668.4093482693
 42
-0.52056705
 10
1430353.774023996
 20
448668.4093482693
 42
-0.52056705
 10
1675448.352056362
 20
308435.5274425501
 42
-0.52056705
 10
1675448.352056362
 20
308435.5274425501
 42
-0.52056705
 10
1670363.402267121
 20
291160.4630080129
 42
-0.52056705
 10
1670363.402267121
 20
291160.4630080129
 42
-0.52056705
 10
1661210.490837439
 20
272869.2171521772
 42
-0.52056705
 10
1661210.490837439
 20
272869.2171521772
 42
-0.52056705
 10
1607310.023976009
 20
226124.9237814082
 42
-0.52056705
 10
1607310.023976009
 20
226124.9237814082
 42
-0.52056705
 10
1537137.719598057
 20
178364.4489893408
 42
-0.52056705
 10
1537137.719598057
 20
178364.4489893408
 42
-0.52056705
 10
1505611.032713811
 20
161089.3845548036
 42
-0.52056705
 10
1505611.032713811
 20
161089.3845548036
 42
-0.52056705
 10
1472050.360486724
 20
154992.3014072503
 42
-0.52056705
 10
1472050.360486724
 20
154992.3014072503
 42
-0.52056705
 10
1462897.453579663
 20
154992.3014072503
 42
-0.52056705
 10
1462897.453579663
 20
154992.3014072503
 42
-0.52056705
 10
1462897.453579663
 20
153976.1217793641
 42
-0.52056705
 10
1462897.453579663
 20
153976.1217793641
 42
-0.52056705
 10
1461880.460908242
 20
153976.1217793641
 42
-0.52056705
 10
1461880.460908242
 20
153976.1217793641
 42
-0.52056705
 10
1127290.772012382
 20
86908.2215035751
 42
-0.52056705
 10
1127290.772012382
 20
86908.2215035751
 42
-0.52056705
 10
804904.9544699817
 20
86908.2215035751
 42
-0.52056705
 10
804904.9544699817
 20
86908.2215035751
 42
-0.52056705
 10
710324.8892946243
 20
86908.2215035751
 42
-0.52056705
 10
710324.8892946243
 20
86908.2215035751
 42
-0.52056705
 10
694053.0517781025
 20
89956.76218064572
 42
-0.52056705
 10
694053.0517781026
 20
89956.76218064572
 42
-0.52056705
 10
694053.0517781025
 20
91989.12322983005
 42
-0.52056705
 10
694053.0517781026
 20
91989.12322983005
 42
-0.52056705
 10
697104.0207471222
 20
98086.20458397127
 42
-0.52056705
 10
697104.0207471222
 20
98086.20458397127
 42
-0.52056705
 10
699138.0015673424
 20
100118.5656331556
 42
-0.52056705
 10
699138.0015673424
 20
100118.5656331556
 42
-0.52056705
 10
699138.0015673424
 20
101134.7452610417
 42
-0.52056705
 10
699138.0015673424
 20
101134.7452610417
 42
-0.52056705
 10
699138.0015673424
 20
103167.1063102262
 42
-0.52056705
 10
699138.0015673424
 20
103167.1063102262
 42
-0.52056705
 10
698121.0134185431
 20
104183.2859381123
 42
-0.52056705
 10
698121.0134185431
 20
104183.2859381123
 42
-0.52056705
 10
308613.8604672114
 20
226124.9237814082
 42
-0.52056705
 10
308613.8604672114
 20
226124.9237814082
 42
-0.52056705
 10
241492.5250582788
 20
259658.8730225966
 42
-0.52056705
 10
241492.5250582788
 20
259658.8730225966
 42
-0.52056705
 10
241492.5250582788
 20
261691.234071781
 42
-0.52056705
 10
241492.5250582788
 20
261691.234071781
 42
-0.52056705
 10
241492.5250582788
 20
266772.1357980359
 42
-0.52056705
 10
241492.5250582788
 20
266772.1357980359
 42
-0.52056705
 10
243526.5058784997
 20
268804.4968472205
 42
-0.52056705
 10
243526.5058784997
 20
268804.4968472205
 42
-0.52056705
 10
248611.4556677407
 20
268804.4968472205
 42
-0.52056705
 10
248611.4556677407
 20
268804.4968472205
 42
-0.52056705
 10
548623.4887103353
 20
336888.5767508957
 42
-0.52056705
 10
548623.4887103353
 20
336888.5767508957
 42
-0.52056705
 10
1101866.023066177
 20
391762.3125249905
 42
-0.52056705
 10
1101866.023066177
 20
391762.3125249905
 42
-0.52056705
 10
1184242.207842831
 20
391762.3125249905
 42
-0.52056705
 10
1184242.207842831
 20
391762.3125249905
 42
-0.52056705
 10
1185259.195991631
 20
391762.3125249905
 42
-0.52056705
 10
1185259.195991631
 20
391762.3125249905
 42
-0.52056705
 10
1186276.188663052
 20
389729.9532692179
 42
-0.52056705
 10
1186276.188663052
 20
389729.9532692179
 42
-0.52056705
 10
1339841.67048908
 20
274901.5782013617
 42
-0.52056705
 10
1339841.67048908
 20
274901.5782013617
 42
-0.52056705
 10
1472050.360486724
 20
171251.1862139015
 42
-0.52056705
 10
1472050.360486724
 20
171251.1862139015
 42
-0.52056705
 10
1482220.260065206
 20
166170.2862810585
 42
-0.52056705
 10
1482220.260065206
 20
166170.2862810585
 42
-0.52056705
 10
1487305.209854446
 20
166170.2862810585
 42
-0.52056705
 10
1487305.209854446
 20
166170.2862810585
 42
-0.52056705
 10
1491373.171494888
 20
102150.9266823402
 42
-0.52056705
 10
1491373.171494888
 20
102150.9266823402
 42
-0.52056705
 10
826261.7462983662
 20
279982.4799276164
 42
-0.52056705
 10
826261.7462983662
 20
279982.4799276164
 42
-0.52056705
 10
813040.8777508645
 20
284047.2002325731
 42
-0.52056705
 10
813040.8777508646
 20
284047.2002325731
 42
-0.52056705
 10
803887.9663211822
 20
284047.2002325731
 42
-0.52056705
 10
803887.9663211822
 20
284047.2002325731
 42
-0.52056705
 10
488621.0839108648
 20
194623.333795992
 42
-0.52056705
 10
488621.0839108648
 20
194623.333795992
 42
-0.52056705
 10
436754.5933470345
 20
177348.2693614548
 42
-0.52056705
 10
436754.5933470345
 20
177348.2693614548
 42
-0.52056705
 10
423533.7247995324
 20
170235.0065860152
 42
-0.52056705
 10
423533.7247995324
 20
170235.0065860152
 42
-0.52056705
 10
422516.7366507323
 20
169218.8269581292
 42
-0.52056705
 10
422516.7366507323
 20
169218.8269581292
 42
-0.52056705
 10
421499.7439793116
 20
169218.8269581292
 42
-0.52056705
 10
421499.7439793116
 20
169218.8269581292
 42
-0.52056705
 10
187592.0581968492
 20
308435.5274425501
 42
-0.52056705
 10
187592.0581968492
 20
308435.5274425501
 42
-0.52056705
 10
74706.17468474805
 20
401924.1159775003
 42
-0.52056705
 10
74706.17468474805
 20
401924.1159775003
 42
-0.52056705
 10
70638.21304430719
 20
424280.0821382923
 42
-0.52056705
 10
70638.21304430719
 20
424280.0821382923
 42
-0.52056705
 10
87927.04323225096
 20
454765.4924958225
 42
-0.52056705
 10
87927.04323225096
 20
454765.4924958225
 42
-0.52056705
 10
94028.981170292
 20
460862.5738499636
 42
-0.52056705
 10
94028.981170292
 20
460862.5738499636
 42
-0.52056705
 10
95045.97384171187
 20
460862.5738499636
 42
-0.52056705
 10
95045.97384171187
 20
460862.5738499636
 42
-0.52056705
 10
96062.96199051195
 20
461878.7534778498
 42
-0.52056705
 10
96062.96199051195
 20
461878.7534778498
 42
-0.52056705
 10
110300.8232094347
 20
537076.0961569644
 42
-0.52056705
 10
110300.8232094347
 20
537076.0961569644
 42
-0.52056705
 10
157082.3594614035
 20
577723.3081735926
 42
-0.52056705
 10
157082.3594614035
 20
577723.3081735926
 42
-0.52056705
 10
302511.9225291703
 20
586868.9319982163
 42
-0.52056705
 10
302511.9225291703
 20
586868.9319982163
 42
-0.52056705
 10
515062.8210058687
 20
562480.6047882394
 42
-0.52056705
 10
515062.8210058687
 20
562480.6047882394
 42
-0.52056705
 10
795752.0475629205
 20
508623.0486420312
 42
-0.52056705
 10
795752.0475629205
 20
508623.0486420312
 42
-0.52056705
 10
837448.6340256483
 20
501509.7858665914
 42
-0.52056705
 10
837448.6340256483
 20
501509.7858665914
 42
-0.52056705
 10
840499.6029946683
 20
501509.7858665914
 42
-0.52056705
 10
840499.6029946683
 20
501509.7858665914
 42
-0.52056705
 10
841516.595666089
 20
501509.7858665914
 42
-0.52056705
 10
841516.595666089
 20
501509.7858665914
 42
-0.52056705
 10
841516.595666089
 20
499477.4248174073
 42
-0.52056705
 10
841516.595666089
 20
499477.4248174073
 42
-0.52056705
 10
844567.5646351091
 20
488299.441737011
 42
-0.52056705
 10
844567.5646351091
 20
488299.441737011
 42
-0.52056705
 10
860839.4021516321
 20
460862.5738499636
 42
-0.52056705
 10
860839.4021516321
 20
460862.5738499636
 42
-0.52056705
 10
961521.4097876513
 20
378551.9683954094
 42
-0.52056705
 10
961521.4097876513
 20
378551.9683954094
 42
-0.52056705
 10
1068305.35083909
 20
311484.0681196208
 42
-0.52056705
 10
1068305.35083909
 20
311484.0681196208
 42
-0.52056705
 10
1149664.547466945
 20
247464.7103143144
 42
-0.52056705
 10
1149664.547466945
 20
247464.7103143144
 42
-0.52056705
 10
1174072.308264349
 20
212914.5796518275
 42
-0.52056705
 10
1174072.308264349
 20
212914.5796518275
 42
-0.52056705
 10
1174072.308264349
 20
211898.3982305292
 42
-0.52056705
 10
1174072.308264349
 20
211898.3982305292
 42
-0.52056705
 10
1209666.956789036
 20
230189.6440863649
 42
-0.52056705
 10
1209666.956789036
 20
230189.6440863649
 42
-0.52056705
 10
1244244.612642302
 20
268804.4968472205
 42
-0.52056705
 10
1244244.612642302
 20
268804.4968472205
 42
-0.52056705
 10
1270686.354259928
 20
300306.0850392243
 42
-0.52056705
 10
1270686.354259928
 20
300306.0850392243
 42
-0.52056705
 10
1319501.871332116
 20
350098.9208804763
 42
-0.52056705
 10
1319501.871332116
 20
350098.9208804763
 42
-0.52056705
 10
1357130.496154403
 20
383632.8701216646
 42
-0.52056705
 10
1357130.496154403
 20
383632.8701216646
 42
-0.52056705
 10
1382555.245100608
 20
404972.656654571
 42
-0.52056705
 10
1382555.245100608
 20
404972.656654571
 42
-0.52056705
 10
1393742.13735051
 20
420215.3618333356
 42
-0.52056705
 10
1393742.13735051
 20
420215.3618333356
 42
-0.52056705
 10
1404929.025077792
 20
432409.524541618
 42
-0.52056705
 10
1404929.025077792
 20
432409.524541618
 42
-0.52056705
 10
1414081.936507473
 20
441555.148366242
 42
-0.52056705
 10
1414081.936507473
 20
441555.148366242
 42
-0.52056705
 10
1427302.805054976
 20
456797.8517515945
 42
-0.52056705
 10
1427302.805054976
 20
456797.8517515945
 42
-0.52056705
 10
1445608.623391719
 20
478137.6382845009
 42
-0.52056705
 10
1445608.623391719
 20
478137.6382845009
 42
-0.52056705
 10
1464931.434399883
 20
501509.7858665914
 42
-0.52056705
 10
1464931.434399883
 20
501509.7858665914
 42
-0.52056705
 10
1496458.121284129
 20
538092.2775782629
 42
-0.52056705
 10
1496458.121284129
 20
538092.2775782629
 42
-0.52056705
 10
1523916.851050554
 20
561464.4233669412
 42
-0.52056705
 10
1523916.851050554
 20
561464.4233669412
 42
-0.52056705
 10
1541205.676715877
 20
571626.2268194512
 42
-0.52056705
 10
1541205.676715877
 20
571626.2268194512
 42
-0.52056705
 10
1544256.650207518
 20
572642.4064473373
 42
-0.52056705
 10
1544256.650207518
 20
572642.4064473373
 42
-0.52056705
 10
1546290.626505118
 20
571626.2268194512
 42
-0.52056705
 10
1546290.626505118
 20
571626.2268194512
 42
-0.52056705
 10
1558494.50690382
 20
551302.6217078434
 42
-0.52056705
 10
1558494.50690382
 20
551302.6217078434
 42
-0.52056705
 10
1607310.023976009
 20
492364.1638353799
 42
-0.52056705
 10
1607310.023976009
 20
492364.1638353799
 42
-0.52056705
 10
1620530.897046132
 20
471024.3773024735
 42
-0.52056705
 10
1620530.897046132
 20
471024.3773024735
 42
-0.52056705
 10
1629683.803953193
 20
409037.3787529396
 42
-0.52056705
 10
1629683.803953193
 20
409037.3787529396
 42
-0.52056705
 10
1670363.402267121
 20
284047.2002325731
 42
-0.52056705
 10
1670363.402267121
 20
284047.2002325731
 42
-0.52056705
 10
1738501.730347473
 20
137717.2369727129
 42
-0.52056705
 10
1738501.730347473
 20
137717.2369727129
 42
-0.52056705
 10
1778164.335989981
 20
54390.45189027279
 42
-0.52056705
 10
1778164.335989981
 20
54390.45189027279
 42
-0.52056705
 10
1787317.247419663
 20
35083.02640655101
 42
-0.52056705
 10
1787317.247419663
 20
35083.02640655101
 42
-0.52056705
 10
1785283.266599441
 20
31018.3043081821
 42
-0.52056705
 10
1785283.266599441
 20
31018.3043081821
 42
-0.52056705
 10
1775113.36702096
 20
27969.76363111171
 42
-0.52056705
 10
1775113.36702096
 20
27969.76363111171
 42
-0.52056705
 10
1759858.517653237
 20
25937.40258192713
 42
-0.52056705
 10
1759858.517653237
 20
25937.40258192713
 42
-0.52056705
 10
1733416.780558232
 20
25937.40258192713
 42
-0.52056705
 10
1733416.780558232
 20
25937.40258192713
 42
-0.52056705
 10
1671380.390415921
 20
39147.74671150767
 42
-0.52056705
 10
1671380.390415921
 20
39147.74671150767
 42
-0.52056705
 10
1590021.198310686
 20
57438.9925673434
 42
-0.52056705
 10
1590021.198310686
 20
57438.9925673434
 42
-0.52056705
 10
1517814.908589893
 20
61503.71466571233
 42
-0.52056705
 10
1517814.908589893
 20
61503.71466571233
 42
-0.52056705
 10
1485271.233556847
 20
61503.71466571233
 42
-0.52056705
 10
1485271.233556847
 20
61503.71466571233
 42
-0.52056705
 10
1482220.260065206
 20
60487.53324441402
 42
-0.52056705
 10
1482220.260065206
 20
60487.53324441402
 42
-0.52056705
 10
1481203.271916406
 20
60487.53324441402
 42
-0.52056705
 10
1481203.271916406
 20
60487.53324441402
 42
-0.52056705
 10
1463914.441728461
 20
60487.53324441402
 42
-0.52056705
 10
1463914.441728461
 20
60487.53324441402
 42
-0.52056705
 10
1401878.056108771
 20
77762.59947236348
 42
-0.52056705
 10
1401878.056108771
 20
77762.59947236348
 42
-0.52056705
 10
1160851.439716847
 20
143814.3183268541
 42
-0.52056705
 10
1160851.439716847
 20
143814.3183268541
 42
-0.52056705
 10
921858.7996225236
 20
204785.1372485019
 42
-0.52056705
 10
921858.7996225236
 20
204785.1372485019
 42
-0.52056705
 10
815074.8540484634
 20
223076.3831043376
 42
-0.52056705
 10
815074.8540484634
 20
223076.3831043376
 42
-0.52056705
 10
778463.2173749777
 20
232222.0051355492
 42
-0.52056705
 10
778463.2173749777
 20
232222.0051355492
 42
-0.52056705
 10
773378.2675857367
 20
243399.9882159455
 42
-0.52056705
 10
773378.2675857367
 20
243399.9882159455
 42
-0.52056705
 10
774395.2557345361
 20
255594.1527176399
 42
-0.52056705
 10
774395.2557345361
 20
255594.1527176399
 42
-0.52056705
 10
775412.2484059569
 20
269820.6764751065
 42
-0.52056705
 10
775412.2484059569
 20
269820.6764751065
 42
-0.52056705
 10
754055.456577572
 20
290144.2833801268
 42
-0.52056705
 10
754055.456577572
 20
290144.2833801268
 42
-0.52056705
 10
669645.2909806968
 20
317581.151267174
 42
-0.52056705
 10
669645.2909806968
 20
317581.151267174
 42
-0.52056705
 10
502858.9406071668
 20
370422.5259920841
 42
-0.52056705
 10
502858.9406071668
 20
370422.5259920841
 42
-0.52056705
 10
448958.4737457373
 20
394810.8532020606
 42
-0.52056705
 10
448958.4737457373
 20
394810.8532020606
 42
-0.52056705
 10
430652.6554089933
 20
410053.5583808257
 42
-0.52056705
 10
430652.6554089933
 20
410053.5583808257
 42
-0.52056705
 10
426584.6937685525
 20
414118.2804791948
 42
-0.52056705
 10
426584.6937685525
 20
414118.2804791948
 42
-0.52056705
 10
425567.7056197524
 20
414118.2804791948
 42
-0.52056705
 10
425567.7056197524
 20
414118.2804791948
 42
-0.52056705
 10
416414.7941900707
 20
408021.1973316411
 42
-0.52056705
 10
416414.7941900707
 20
408021.1973316411
 42
-0.52056705
 10
399125.9685247486
 20
375503.4277183393
 42
-0.52056705
 10
399125.9685247486
 20
375503.4277183393
 42
-0.52056705
 10
386922.0881260457
 20
335872.3971230097
 42
-0.52056705
 10
386922.0881260457
 20
335872.3971230097
 42
-0.52056705
 10
383871.1191570257
 20
298273.7257834522
 42
-0.52056705
 10
383871.1191570258
 20
298273.7257834522
 42
-0.52056705
 10
380820.1456653839
 20
250513.250991385
 42
-0.52056705
 10
380820.1456653839
 20
250513.250991385
 42
-0.52056705
 10
367599.2771178819
 20
217995.4813780828
 42
-0.52056705
 10
367599.2771178819
 20
217995.4813780828
 42
-0.52056705
 10
351327.439601359
 20
203768.9558272036
 42
-0.52056705
 10
351327.439601359
 20
203768.9558272036
 42
-0.52056705
 10
328953.6596241752
 20
202752.7761993175
 42
-0.52056705
 10
328953.6596241752
 20
202752.7761993175
 42
-0.52056705
 10
251662.4246367607
 20
198688.0558943609
 42
-0.52056705
 10
251662.4246367607
 20
198688.0558943609
 42
-0.52056705
 10
158099.3476102035
 20
171251.1862139015
 42
-0.52056705
 10
158099.3476102035
 20
171251.1862139015
 42
-0.52056705
 10
104198.8807487739
 20
150927.5811022934
 42
-0.52056705
 10
104198.8807487739
 20
150927.5811022934
 42
-0.52056705
 10
96062.96199051195
 20
144830.4997481524
 42
-0.52056705
 10
96062.96199051195
 20
144830.4997481524
 42
-0.52056705
 10
83859.0815918101
 20
131620.1556185719
 42
-0.52056705
 10
83859.0815918101
 20
131620.1556185719
 42
-0.52056705
 10
58434.33264560531
 20
105199.4673594106
 42
-0.52056705
 10
58434.33264560531
 20
105199.4673594106
 42
-0.52056705
 10
39111.52616006229
 20
77762.59947236348
 42
-0.52056705
 10
39111.52616006229
 20
77762.59947236348
 42
-0.52056705
 10
37077.5453398414
 20
74714.05879529286
 42
-0.52056705
 10
37077.5453398414
 20
74714.05879529286
 42
-0.52056705
 10
34026.57637082134
 20
74714.05879529286
 42
-0.52056705
 10
34026.57637082134
 20
74714.05879529286
 42
-0.52056705
 10
20805.70782331843
 20
74714.05879529286
 42
-0.52056705
 10
20805.70782331843
 20
74714.05879529286
 42
-0.52056705
 10
7584.834753195756
 20
77762.59947236348
 42
-0.52056705
 10
7584.834753195756
 20
77762.59947236348
 42
-0.52056705
 10
-2585.064825286158
 20
89956.76218064572
 42
-0.52056705
 10
-2585.064825286158
 20
89956.76218064572
 42
-0.52056705
 10
-6653.021943106316
 20
119425.9911168774
 42
-0.52056705
 10
-6653.021943106316
 20
119425.9911168774
 42
-0.52056705
 10
-25975.83295127004
 20
197671.8744730626
 42
-0.52056705
 10
-25975.83295127004
 20
197671.8744730626
 42
-0.52056705
 10
-56485.53168671577
 20
346034.1987821071
 42
-0.52056705
 10
-56485.53168671577
 20
346034.1987821071
 42
-0.52056705
 10
-67672.41941399777
 20
381600.5090724802
 42
-0.52056705
 10
-67672.41941399777
 20
381600.5090724803
 42
-0.52056705
 10
-73774.35735203883
 20
408021.1973316411
 42
-0.52056705
 10
-73774.35735203883
 20
408021.1973316411
 42
-0.52056705
 10
-73774.35735203883
 20
426312.4431874768
 42
-0.52056705
 10
-73774.35735203883
 20
426312.4431874768
 42
-0.52056705
 10
-73774.35735203883
 20
445619.8686711986
 42
-0.52056705
 10
-73774.35735203883
 20
445619.8686711986
 42
-0.52056705
 10
-63604.45777355693
 20
464927.2941549204
 42
-0.52056705
 10
-63604.45777355693
 20
464927.2941549204
 42
-0.52056705
 10
-32077.7708893111
 20
487283.2621091248
 42
-0.52056705
 10
-32077.7708893111
 20
487283.2621091248
 42
-0.52056705
 10
1482.896815154701
 20
503542.1469157761
 42
-0.52056705
 10
1482.896815154701
 20
503542.1469157761
 42
-0.52056705
 10
43179.48327788244
 20
514720.1299961719
 42
-0.52056705
 10
43179.48327788244
 20
514720.1299961719
 42
-0.52056705
 10
97079.95013931208
 20
516752.4910453565
 42
-0.52056705
 10
97079.95013931208
 20
516752.4910453565
 42
-0.52056705
 10
220135.7377525149
 20
516752.4910453565
 42
-0.52056705
 10
220135.7377525149
 20
516752.4910453565
 42
-0.52056705
 10
399125.9685247486
 20
462894.9348991483
 42
-0.52056705
 10
399125.9685247486
 20
462894.9348991483
 42
-0.52056705
 10
559810.3764376165
 20
393794.6735741745
 42
-0.52056705
 10
559810.3764376165
 20
393794.6735741745
 42
-0.52056705
 10
618795.7976109089
 20
387697.5922200333
 42
-0.52056705
 10
618795.7976109089
 20
387697.5922200333
 42
-0.52056705
 10
650322.4844951536
 20
387697.5922200333
 42
-0.52056705
 10
650322.4844951536
 20
387697.5922200333
 42
-0.52056705
 10
659475.3914022148
 20
388713.7718479198
 42
-0.52056705
 10
659475.3914022148
 20
388713.7718479198
 42
-0.52056705
 10
693036.0636293023
 20
388713.7718479198
 42
-0.52056705
 10
693036.0636293023
 20
388713.7718479198
 42
-0.52056705
 10
735749.6382408291
 20
388713.7718479198
 42
-0.52056705
 10
735749.6382408291
 20
388713.7718479198
 42
-0.52056705
 10
784565.1553130178
 20
388713.7718479198
 42
-0.52056705
 10
784565.1553130178
 20
388713.7718479198
 42
-0.52056705
 10
849652.5144243502
 20
378551.9683954094
 42
-0.52056705
 10
849652.5144243502
 20
378551.9683954094
 42
-0.52056705
 10
1027625.757047783
 20
329775.313975456
 42
-0.52056705
 10
1027625.757047783
 20
329775.313975456
 42
-0.52056705
 10
1279839.261166989
 20
249497.0695700867
 42
-0.52056705
 10
1279839.261166989
 20
249497.0695700867
 42
-0.52056705
 10
1344926.620278321
 20
225108.74236011
 42
-0.52056705
 10
1344926.620278321
 20
225108.74236011
 42
-0.52056705
 10
1361198.457794844
 20
215963.1203288981
 42
-0.52056705
 10
1361198.457794844
 20
215963.1203288981
 42
-0.52056705
 10
1361198.457794844
 20
206817.4982976865
 42
-0.52056705
 10
1361198.457794844
 20
206817.4982976865
 42
-0.52056705
 10
1361198.457794844
 20
184461.530343482
 42
-0.52056705
 10
1361198.457794844
 20
184461.530343482
 42
-0.52056705
 10
1365266.419435285
 20
168202.6455368309
 42
-0.52056705
 10
1365266.419435285
 20
168202.6455368309
 42
-0.52056705
 10
1367300.395732885
 20
167186.4659089446
 42
-0.52056705
 10
1367300.395732885
 20
167186.4659089446
 42
-0.52056705
 10
1383572.237772028
 20
160073.2031335053
 42
-0.52056705
 10
1383572.237772028
 20
160073.2031335053
 42
-0.52056705
 10
1444591.635242919
 20
140765.7776497835
 42
-0.52056705
 10
1444591.635242919
 20
140765.7776497835
 42
-0.52056705
 10
1522899.858379134
 20
131620.1556185719
 42
-0.52056705
 10
1522899.858379134
 20
131620.1556185719
 42
-0.52056705
 10
1584936.248521445
 20
137717.2369727129
 42
-0.52056705
 10
1584936.248521445
 20
137717.2369727129
 42
-0.52056705
 10
1615445.947256891
 20
166170.2862810585
 42
-0.52056705
 10
1615445.947256891
 20
166170.2862810585
 42
-0.52056705
 10
1624598.854163952
 20
191574.7931189213
 42
-0.52056705
 10
1624598.854163952
 20
191574.7931189213
 42
-0.52056705
 10
1626632.834984173
 20
207833.6779255725
 42
-0.52056705
 10
1626632.834984173
 20
207833.6779255725
 42
-0.52056705
 10
1629683.803953193
 20
219011.6610059687
 42
-0.52056705
 10
1629683.803953193
 20
219011.6610059687
 42
-0.52056705
 10
1635785.741891234
 20
231205.8255076632
 42
-0.52056705
 10
1635785.741891234
 20
231205.8255076632
 42
-0.52056705
 10
1643921.665172116
 20
266772.1357980359
 42
-0.52056705
 10
1643921.665172116
 20
266772.1357980359
 42
-0.52056705
 10
1647989.622289937
 20
300306.0850392243
 42
-0.52056705
 10
1647989.622289937
 20
300306.0850392243
 42
-0.52056705
 10
1644938.653320916
 20
350098.9208804763
 42
-0.52056705
 10
1644938.653320916
 20
350098.9208804763
 42
-0.52056705
 10
1625615.842312752
 20
387697.5922200333
 42
-0.52056705
 10
1625615.842312752
 20
387697.5922200333
 42
-0.52056705
 10
1605276.047678409
 20
422247.7228825201
 42
-0.52056705
 10
1605276.047678409
 20
422247.7228825201
 42
-0.52056705
 10
1580868.286881004
 20
462894.9348991483
 42
-0.52056705
 10
1580868.286881004
 20
462894.9348991483
 42
-0.52056705
 10
1562562.468544261
 20
491347.9824140814
 42
-0.52056705
 10
1562562.468544261
 20
491347.9824140814
 42
-0.52056705
 10
1500526.08292457
 20
525898.1130765683
 42
-0.52056705
 10
1500526.08292457
 20
525898.1130765683
 42
-0.52056705
 10
1448659.592360739
 20
540124.6368340349
 42
-0.52056705
 10
1448659.592360739
 20
540124.6368340349
 42
-0.52056705
 10
1375436.319013767
 20
545205.5385602903
 42
-0.52056705
 10
1375436.319013767
 20
545205.5385602903
 42
-0.52056705
 10
1341875.64678668
 20
545205.5385602903
 42
-0.52056705
 10
1341875.64678668
 20
545205.5385602903
 42
-0.52056705
 10
1330688.759059398
 20
545205.5385602903
 42
-0.52056705
 10
1330688.759059398
 20
545205.5385602903
 42
-0.52056705
 10
1320518.859480916
 20
543173.1775111057
 42
-0.52056705
 10
1320518.859480916
 20
543173.1775111057
 42
-0.52056705
 10
1277805.280346769
 20
543173.1775111057
 42
-0.52056705
 10
1277805.280346769
 20
543173.1775111057
 42
-0.52056705
 10
1247295.581611323
 20
543173.1775111057
 42
-0.52056705
 10
1247295.581611323
 20
543173.1775111057
 42
-0.52056705
 10
1225938.794305559
 20
543173.1775111057
 42
-0.52056705
 10
1225938.794305559
 20
543173.1775111057
 42
-0.52056705
 10
1199497.057210554
 20
543173.1775111057
 42
-0.52056705
 10
1199497.057210554
 20
543173.1775111057
 42
-0.52056705
 10
1185259.195991631
 20
544189.3589324036
 42
-0.52056705
 10
1185259.195991631
 20
544189.3589324036
 42
-0.52056705
 10
1160851.439716847
 20
550286.440286545
 42
-0.52056705
 10
1160851.439716847
 20
550286.440286545
 42
-0.52056705
 10
1148647.559318145
 20
554351.162384914
 42
-0.52056705
 10
1148647.559318145
 20
554351.162384914
 42
-0.52056705
 10
1145596.590349125
 20
554351.162384914
 42
-0.52056705
 10
1145596.590349125
 20
554351.162384914
 42
-0.52056705
 10
1144579.597677704
 20
554351.162384914
 42
-0.52056705
 10
1144579.597677704
 20
554351.162384914
 42
-0.52056705
 10
1142545.616857484
 20
554351.162384914
 42
-0.52056705
 10
1142545.616857484
 20
554351.162384914
 42
-0.52056705
 10
1139494.647888463
 20
554351.162384914
 42
-0.52056705
 10
1139494.647888463
 20
554351.162384914
 42
-0.52056705
 10
1138477.659739664
 20
547237.8996094743
 42
-0.52056705
 10
1138477.659739664
 20
547237.8996094743
 42
-0.52056705
 10
1132375.721801623
 20
534027.5554798937
 42
-0.52056705
 10
1132375.721801623
 20
534027.5554798937
 42
-0.52056705
 10
1123222.810371941
 20
511671.5893191019
 42
-0.52056705
 10
1123222.810371941
 20
511671.5893191019
 42
-0.52056705
 10
1108984.949153017
 20
464927.2941549204
 42
-0.52056705
 10
1108984.949153017
 20
464927.2941549204
 42
-0.52056705
 10
1106950.972855418
 20
418183.0007841514
 42
-0.52056705
 10
1106950.972855418
 20
418183.0007841514
 42
-0.52056705
 10
1130341.740981402
 20
294209.0036850835
 42
-0.52056705
 10
1130341.740981402
 20
294209.0036850835
 42
-0.52056705
 10
1194412.107421313
 20
167186.4659089446
 42
-0.52056705
 10
1194412.107421313
 20
167186.4659089446
 42
-0.52056705
 10
1305264.010113193
 20
83859.68082650446
 42
-0.52056705
 10
1305264.010113193
 20
83859.68082650446
 42
-0.52056705
 10
1350011.570067562
 20
72681.69774610829
 42
-0.52056705
 10
1350011.570067562
 20
72681.69774610829
 42
-0.52056705
 10
1424251.836085955
 20
58455.17398864171
 42
-0.52056705
 10
1424251.836085955
 20
58455.17398864171
 42
-0.52056705
 10
1468999.391517703
 20
44228.64843776285
 42
-0.52056705
 10
1468999.391517703
 20
44228.64843776284
 42
-0.52056705
 10
1492390.159643688
 20
33050.66535736667
 42
-0.52056705
 10
1492390.159643688
 20
33050.66535736667
 42
-0.52056705
 10
1507645.009011411
 20
22888.86190485652
 42
-0.52056705
 10
1507645.009011411
 20
22888.86190485652
 42
-0.52056705
 10
1513746.951472072
 20
19840.32122778613
 42
-0.52056705
 10
1513746.951472072
 20
19840.32122778613
 42
-0.52056705
 10
1530018.788988595
 20
10694.69919657427
 42
-0.52056705
 10
1530018.788988595
 20
10694.69919657427
 42
-0.52056705
 10
1556460.5260836
 20
-9628.907708445565
 42
-0.52056705
 10
1556460.5260836
 20
-9628.907708445565
 42
-0.52056705
 10
1572732.368122743
 20
-20806.89078884176
 42
-0.52056705
 10
1572732.368122743
 20
-20806.89078884176
 42
-0.52056705
 10
1587987.217490466
 20
-29952.51282005361
 42
-0.52056705
 10
1587987.217490466
 20
-29952.51282005361
 42
-0.52056705
 10
1589004.205639265
 20
-30968.69424135192
 42
-0.52056705
 10
1589004.205639265
 20
-30968.69424135192
 42
-0.52056705
 10
1582902.267701225
 20
-23855.43146591238
 42
-0.52056705
 10
1582902.267701225
 20
-23855.43146591238
 42
-0.52056705
 10
1461880.460908242
 20
13743.23987364489
 42
-0.52056705
 10
1461880.460908242
 20
13743.23987364489
 42
-0.52056705
 10
1174072.308264349
 20
31018.3043081821
 42
-0.52056705
 10
1174072.308264349
 20
31018.3043081821
 42
-0.52056705
 10
1011353.91500864
 20
31018.3043081821
 42
-0.52056705
 10
1011353.91500864
 20
31018.3043081821
 42
-0.52056705
 10
966606.3595768921
 20
31018.3043081821
 42
-0.52056705
 10
966606.3595768921
 20
31018.3043081821
 42
-0.52056705
 10
942198.5987794874
 20
34066.84498525271
 42
-0.52056705
 10
942198.5987794874
 20
34066.84498525271
 42
-0.52056705
 10
934062.6800212255
 20
39147.74671150767
 42
-0.52056705
 10
934062.6800212255
 20
39147.74671150767
 42
-0.52056705
 10
901519.00046556
 20
67600.79601985332
 42
-0.52056705
 10
901519.00046556
 20
67600.79601985332
 42
-0.52056705
 10
868975.3209098931
 20
102150.9266823402
 42
-0.52056705
 10
868975.3209098931
 20
102150.9266823402
 42
-0.52056705
 10
816091.8467198845
 20
151943.7607301797
 42
-0.52056705
 10
816091.8467198845
 20
151943.7607301797
 42
-0.52056705
 10
784565.1553130178
 20
175315.9083122702
 42
-0.52056705
 10
784565.1553130178
 20
175315.9083122702
 42
-0.52056705
 10
767276.3296476957
 20
205801.3168763881
 42
-0.52056705
 10
767276.3296476957
 20
205801.3168763881
 42
-0.52056705
 10
768293.3177964958
 20
222060.2016830393
 42
-0.52056705
 10
768293.3177964958
 20
222060.2016830393
 42
-0.52056705
 10
804904.9544699817
 20
242383.8085880595
 42
-0.52056705
 10
804904.9544699817
 20
242383.8085880595
 42
-0.52056705
 10
858805.4213314121
 20
256610.3323455261
 42
-0.52056705
 10
858805.4213314121
 20
256610.3323455261
 42
-0.52056705
 10
976776.259155374
 20
268804.4968472205
 42
-0.52056705
 10
976776.259155374
 20
268804.4968472205
 42
-0.52056705
 10
1035761.675806044
 20
268804.4968472205
 42
-0.52056705
 10
1035761.675806044
 20
268804.4968472205
 42
-0.52056705
 10
1065254.381870069
 20
268804.4968472205
 42
-0.52056705
 10
1065254.381870069
 20
268804.4968472205
 42
-0.52056705
 10
1078475.250417572
 20
268804.4968472205
 42
-0.52056705
 10
1078475.250417572
 20
268804.4968472205
 42
-0.52056705
 10
1082543.212058013
 20
268804.4968472205
 42
-0.52056705
 10
1082543.212058013
 20
268804.4968472205
 42
-0.52056705
 10
1077458.262268772
 20
268804.4968472205
 42
-0.52056705
 10
1077458.262268772
 20
268804.4968472205
 42
-0.52056705
 10
1043897.594564305
 20
268804.4968472205
 42
-0.52056705
 10
1043897.594564305
 20
268804.4968472205
 42
-0.52056705
 10
976776.259155374
 20
280998.6595555029
 42
-0.52056705
 10
976776.259155374
 20
280998.6595555029
 42
-0.52056705
 10
835414.6532054274
 20
324694.4122492013
 42
-0.52056705
 10
835414.6532054274
 20
324694.4122492013
 42
-0.52056705
 10
774395.2557345361
 20
356196.0022346176
 42
-0.52056705
 10
774395.2557345361
 20
356196.0022346176
 42
-0.52056705
 10
743885.5615217119
 20
390746.1328971039
 42
-0.52056705
 10
743885.5615217119
 20
390746.1328971039
 42
-0.52056705
 10
744902.549670511
 20
420215.3618333356
 42
-0.52056705
 10
744902.549670511
 20
420215.3618333356
 42
-0.52056705
 10
778463.2173749777
 20
463911.1145270343
 42
-0.52056705
 10
778463.2173749777
 20
463911.1145270343
 42
-0.52056705
 10
892366.0935584988
 20
545205.5385602903
 42
-0.52056705
 10
892366.0935584988
 20
545205.5385602903
 42
-0.52056705
 10
1015421.876649081
 20
588901.2912539884
 42
-0.52056705
 10
1015421.876649081
 20
588901.2912539884
 42
-0.52056705
 10
1106950.972855418
 20
606176.3574819376
 42
-0.52056705
 10
1106950.972855418
 20
606176.3574819376
 42
-0.52056705
 10
1179157.25805359
 20
606176.3574819376
 42
-0.52056705
 10
1179157.25805359
 20
606176.3574819376
 42
-0.52056705
 10
1207632.975968816
 20
606176.3574819376
 42
-0.52056705
 10
1207632.975968816
 20
606176.3574819376
 42
-0.52056705
 10
1208649.964117616
 20
605160.1778540516
 42
-0.52056705
 10
1208649.964117616
 20
605160.1778540516
 42
-0.52056705
 10
1201531.038030775
 20
604143.9964327535
 42
-0.52056705
 10
1201531.038030775
 20
604143.9964327535
 42
-0.52056705
 10
1173055.315592929
 20
604143.9964327535
 42
-0.52056705
 10
1173055.315592929
 20
604143.9964327535
 42
-0.52056705
 10
1083560.200206813
 20
604143.9964327535
 42
-0.52056705
 10
1083560.200206813
 20
604143.9964327535
 42
-0.52056705
 10
991014.115851676
 20
609224.8981590082
 42
-0.52056705
 10
991014.115851676
 20
609224.8981590082
 42
-0.52056705
 10
956436.4599984102
 20
615321.9795131494
 42
-0.52056705
 10
956436.4599984102
 20
615321.9795131494
 42
-0.52056705
 10
940164.6179592665
 20
617354.3405623341
 42
-0.52056705
 10
940164.6179592665
 20
617354.3405623341
 42
-0.52056705
 10
937113.6489902465
 20
617354.3405623341
 42
-0.52056705
 10
937113.6489902465
 20
617354.3405623341
 42
-0.52056705
 10
933045.6918724264
 20
616338.160934448
 42
-0.52056705
 10
933045.6918724264
 20
616338.160934448
 42
-0.52056705
 10
920841.8114737234
 20
604143.9964327535
 42
-0.52056705
 10
920841.8114737234
 20
604143.9964327535
 42
-0.52056705
 10
912705.8927154626
 20
593982.1929802437
 42
-0.52056705
 10
912705.8927154626
 20
593982.1929802437
 42
-0.52056705
 10
905586.9621060006
 20
575690.9489178199
 42
-0.52056705
 10
905586.9621060006
 20
575690.9489178199
 42
-0.52056705
 10
892366.0935584988
 20
523865.7520273839
 42
-0.52056705
 10
892366.0935584988
 20
523865.7520273839
 42
-0.52056705
 10
850669.5025731502
 20
420215.3618333356
 42
-0.52056705
 10
850669.5025731502
 20
420215.3618333356
 42
-0.52056705
 10
807955.9279616233
 20
355179.8226067311
 42
-0.52056705
 10
807955.9279616233
 20
355179.8226067311
 42
-0.52056705
 10
788633.1169534596
 20
331807.6750246405
 42
-0.52056705
 10
788633.1169534596
 20
331807.6750246405
 42
-0.52056705
 10
772361.2794369365
 20
315548.7902179894
 42
-0.52056705
 10
772361.2794369365
 20
315548.7902179894
 42
-0.52056705
 10
755072.4492489928
 20
309451.7088638482
 42
-0.52056705
 10
755072.4492489928
 20
309451.7088638482
 42
-0.52056705
 10
663543.3530426566
 20
291160.4630080129
 42
-0.52056705
 10
663543.3530426566
 20
291160.4630080129
 42
-0.52056705
 10
583201.1490862221
 20
264739.7747488518
 42
-0.52056705
 10
583201.1490862221
 20
264739.7747488518
 42
-0.52056705
 10
535402.6201628325
 20
238319.0864896905
 42
-0.52056705
 10
535402.6201628325
 20
238319.0864896905
 42
-0.52056705
 10
501841.9524583666
 20
207833.6779255725
 42
-0.52056705
 10
501841.9524583666
 20
207833.6779255725
 42
-0.52056705
 10
500824.9597869459
 20
200720.4151501332
 42
-0.52056705
 10
500824.9597869459
 20
200720.4151501332
 42
-0.52056705
 10
498790.9834893467
 20
184461.530343482
 42
-0.52056705
 10
498790.9834893467
 20
184461.530343482
 42
-0.52056705
 10
501841.9524583666
 20
160073.2031335053
 42
-0.52056705
 10
501841.9524583666
 20
160073.2031335053
 42
-0.52056705
 10
519130.7826463106
 20
136701.0573448269
 42
-0.52056705
 10
519130.7826463106
 20
136701.0573448269
 42
-0.52056705
 10
541504.5581008737
 20
118409.8114889911
 42
-0.52056705
 10
541504.5581008737
 20
118409.8114889911
 42
-0.52056705
 10
588286.0988754631
 20
108248.0080364812
 42
-0.52056705
 10
588286.0988754631
 20
108248.0080364812
 42
-0.52056705
 10
609642.886181226
 20
108248.0080364812
 42
-0.52056705
 10
609642.886181226
 20
108248.0080364812
 42
-0.52056705
 10
625914.723697749
 20
111296.5487135518
 42
-0.52056705
 10
625914.723697749
 20
111296.5487135518
 42
-0.52056705
 10
627948.70451797
 20
112312.7301348501
 42
-0.52056705
 10
627948.70451797
 20
112312.7301348501
 42
-0.52056705
 10
627948.70451797
 20
115361.2708119207
 42
-0.52056705
 10
627948.70451797
 20
115361.2708119207
 42
-0.52056705
 10
589303.0870242622
 20
128571.6149415013
 42
-0.52056705
 10
589303.0870242622
 20
128571.6149415013
 42
-0.52056705
 10
542521.5507722946
 20
134668.6962956423
 42
-0.52056705
 10
542521.5507722946
 20
134668.6962956423
 42
-0.52056705
 10
480485.1606299822
 20
136701.0573448269
 42
-0.52056705
 10
480485.1606299822
 20
136701.0573448269
 42
-0.52056705
 10
427601.6864399733
 20
136701.0573448269
 42
-0.52056705
 10
427601.6864399733
 20
136701.0573448269
 42
-0.52056705
 10
372684.2269071229
 20
127555.433520203
 42
-0.52056705
 10
372684.2269071229
 20
127555.433520203
 42
-0.52056705
 10
358446.3702108209
 20
123490.7132152463
 42
-0.52056705
 10
358446.3702108209
 20
123490.7132152463
 42
-0.52056705
 10
355395.4012418
 20
121458.3521660618
 42
-0.52056705
 10
355395.4012418
 20
121458.3521660618
 42
-0.52056705
 10
352344.4277501591
 20
120442.1725381757
 42
-0.52056705
 10
352344.4277501591
 20
120442.1725381757
 42
-0.52056705
 10
349293.458781139
 20
117393.6300676928
 42
-0.52056705
 10
349293.458781139
 20
117393.6300676928
 42
-0.52056705
 10
347259.4779609181
 20
106215.6469872969
 42
-0.52056705
 10
347259.4779609181
 20
106215.6469872969
 42
-0.52056705
 10
347259.4779609181
 20
94021.48427901463
 42
-0.52056705
 10
347259.4779609181
 20
94021.48427901463
 42
-0.52056705
 10
359463.35835962
 20
86908.2215035751
 42
-0.52056705
 10
359463.35835962
 20
86908.2215035751
 42
-0.52056705
 10
383871.1191570257
 20
84875.86045439076
 42
-0.52056705
 10
383871.1191570258
 20
84875.86045439076
 42
-0.52056705
 10
438788.5741672553
 20
82843.50119861844
 42
-0.52056705
 10
438788.5741672553
 20
82843.50119861844
 42
-0.52056705
 10
466247.3039336801
 20
77762.59947236348
 42
-0.52056705
 10
466247.3039336801
 20
77762.59947236348
 42
-0.52056705
 10
475400.2108407411
 20
67600.79601985332
 42
-0.52056705
 10
475400.2108407411
 20
67600.79601985332
 42
-0.52056705
 10
475400.2108407411
 20
62519.89429359835
 42
-0.52056705
 10
475400.2108407411
 20
62519.89429359835
 42
-0.52056705
 10
470315.2610515002
 20
54390.45189027279
 42
-0.52056705
 10
470315.2610515002
 20
54390.45189027279
 42
-0.52056705
 10
462179.3422932392
 20
49309.55016401783
 42
-0.52056705
 10
462179.3422932392
 20
49309.55016401783
 42
-0.52056705
 10
434720.6170494342
 20
39147.74671150767
 42
-0.52056705
 10
434720.6170494342
 20
39147.74671150767
 42
-0.52056705
 10
384888.1073058248
 20
33050.66535736667
 42
-0.52056705
 10
384888.1073058248
 20
33050.66535736667
 42
-0.52056705
 10
246577.4748475198
 20
33050.66535736667
 42
-0.52056705
 10
246577.4748475198
 20
33050.66535736667
 42
-0.52056705
 10
151997.4096721625
 20
50325.72979190387
 42
-0.52056705
 10
151997.4096721625
 20
50325.72979190387
 42
-0.52056705
 10
125555.6725771576
 20
64552.2553427827
 42
-0.52056705
 10
125555.6725771576
 20
64552.2553427827
 42
-0.52056705
 10
117419.7492962759
 20
73697.87737399456
 42
-0.52056705
 10
117419.7492962759
 20
73697.87737399456
 42
-0.52056705
 10
118436.7419676967
 20
78778.77910024952
 42
-0.52056705
 10
118436.7419676967
 20
78778.77910024952
 42
-0.52056705
 10
125555.6725771576
 20
85892.04187568906
 42
-0.52056705
 10
125555.6725771576
 20
85892.04187568906
 42
-0.52056705
 10
130640.6223663986
 20
88940.58255275945
 42
-0.52056705
 10
130640.6223663986
 20
88940.58255275945
 42
-0.52056705
 10
129623.6296949778
 20
80811.14014943386
 42
-0.52056705
 10
129623.6296949778
 20
80811.14014943386
 42
-0.52056705
 10
189626.0390170692
 20
-10645.08733633184
 42
-0.52056705
 10
189626.0390170692
 20
-10645.08733633184
 42
-0.52056705
 10
437771.5860184552
 20
-90923.33174170134
 42
-0.52056705
 10
437771.5860184552
 20
-90923.33174170134
 42
-0.52056705
 10
524215.7324355506
 20
-84826.25038756035
 42
-0.52056705
 10
524215.7324355506
 20
-84826.25038756035
 42
-0.52056705
 10
567946.2997184992
 20
-58405.56212839902
 42
-0.52056705
 10
567946.2997184992
 20
-58405.56212839902
 42
-0.52056705
 10
608625.8980324268
 20
-7596.546659261221
 42
-0.52056705
 10
608625.8980324268
 20
-7596.546659261221
 42
-0.52056705
 10
625914.723697749
 20
43212.46880987658
 42
-0.52056705
 10
625914.723697749
 20
43212.46880987658
 42
-0.52056705
 10
635067.6351274309
 20
60487.53324441402
 42
-0.52056705
 10
635067.6351274309
 20
60487.53324441402
 42
-0.52056705
 10
638118.6040964518
 20
62519.89429359835
 42
-0.52056705
 10
638118.6040964518
 20
62519.89429359835
 42
-0.52056705
 10
639135.5967678716
 20
63536.07392148441
 42
-0.52056705
 10
639135.5967678716
 20
63536.07392148441
 42
-0.52056705
 10
643203.5538856928
 20
63536.07392148441
 42
-0.52056705
 10
643203.5538856928
 20
63536.07392148441
 42
-0.52056705
 10
664560.3411914557
 20
51341.91121320217
 42
-0.52056705
 10
664560.3411914557
 20
51341.91121320217
 42
-0.52056705
 10
681849.1713793995
 20
35083.02640655101
 42
-0.52056705
 10
681849.1713793995
 20
35083.02640655101
 42
-0.52056705
 10
703205.9632077842
 20
8662.338147389936
 42
-0.52056705
 10
703205.9632077842
 20
8662.338147389936
 42
-0.52056705
 10
715409.8390838655
 20
-5564.185610076878
 42
-0.52056705
 10
715409.8390838655
 20
-5564.185610076878
 42
-0.52056705
 10
733715.6619432299
 20
-15725.9890625868
 42
-0.52056705
 10
733715.6619432299
 20
-15725.9890625868
 42
-0.52056705
 10
756089.4373977929
 20
-24871.61109379842
 42
-0.52056705
 10
756089.4373977929
 20
-24871.61109379842
 42
-0.52056705
 10
768293.3177964958
 20
-26903.97214298299
 42
-0.52056705
 10
768293.3177964958
 20
-26903.97214298299
 42
-0.52056705
 10
790667.0977736796
 20
-28936.33319216734
 42
-0.52056705
 10
790667.0977736796
 20
-28936.33319216734
 42
-0.52056705
 10
813040.8777508645
 20
-28936.33319216734
 42
-0.52056705
 10
813040.8777508646
 20
-28936.33319216734
 42
-0.52056705
 10
851686.4952445713
 20
-25887.79251509672
 42
-0.52056705
 10
851686.4952445713
 20
-25887.79251509672
 42
-0.52056705
 10
914739.869013062
 20
-16742.16869047284
 42
-0.52056705
 10
914739.869013062
 20
-16742.16869047284
 42
-0.52056705
 10
1033727.694985824
 20
11710.87882446055
 42
-0.52056705
 10
1033727.694985824
 20
11710.87882446055
 42
-0.52056705
 10
1093730.099785295
 20
15775.60092282947
 42
-0.52056705
 10
1093730.099785295
 20
15775.60092282947
 42
-0.52056705
 10
1126273.779340961
 20
15775.60092282947
 42
-0.52056705
 10
1126273.779340961
 20
15775.60092282947
 42
-0.52056705
 10
1135426.690770643
 20
7646.158519503892
 42
-0.52056705
 10
1135426.690770643
 20
7646.158519503892
 42
-0.52056705
 10
1149664.547466945
 20
-13693.62801340245
 42
-0.52056705
 10
1149664.547466945
 20
-13693.62801340245
 42
-0.52056705
 10
1184242.207842831
 20
-58405.56212839902
 42
-0.52056705
 10
1184242.207842831
 20
-58405.56212839902
 42
-0.52056705
 10
1204582.006999795
 20
-77712.9876121208
 42
-0.52056705
 10
1204582.006999795
 20
-77712.9876121208
 42
-0.52056705
 10
1238142.674704262
 20
-86858.60964333242
 42
-0.52056705
 10
1238142.674704262
 20
-86858.60964333242
 42
-0.52056705
 10
1255431.504892205
 20
-86858.60964333242
 42
-0.52056705
 10
1255431.504892205
 20
-86858.60964333242
 42
-0.52056705
 10
1274754.311377748
 20
-75680.62656293646
 42
-0.52056705
 10
1274754.311377748
 20
-75680.62656293646
 42
-0.52056705
 10
1313399.928871455
 20
-54340.84003003034
 42
-0.52056705
 10
1313399.928871455
 20
-54340.84003003034
 42
-0.52056705
 10
1374419.326342346
 20
-37065.77559549292
 42
-0.52056705
 10
1374419.326342346
 20
-37065.77559549292
 42
-0.52056705
 10
1414081.936507473
 20
-30968.69424135192
 42
-0.52056705
 10
1414081.936507473
 20
-30968.69424135192
 42
-0.52056705
 10
1441540.661751278
 20
-28936.33319216734
 42
-0.52056705
 10
1441540.661751278
 20
-28936.33319216734
 42
-0.52056705
 10
1447642.60421194
 20
-28936.33319216734
 42
-0.52056705
 10
1447642.60421194
 20
-28936.33319216734
 42
-0.52056705
 10
1451710.56132976
 20
-28936.33319216734
 42
-0.52056705
 10
1451710.56132976
 20
-28936.33319216734
 42
-0.52056705
 10
1473067.353158145
 20
-45195.21799881848
 42
-0.52056705
 10
1473067.353158145
 20
-45195.21799881847
 42
-0.52056705
 10
1494424.140463908
 20
-54340.84003003034
 42
-0.52056705
 10
1494424.140463908
 20
-54340.84003003034
 42
-0.52056705
 10
1516797.920441093
 20
-58405.56212839902
 42
-0.52056705
 10
1516797.920441093
 20
-58405.56212839902
 42
-0.52056705
 10
1536120.726926636
 20
-60437.9231775836
 42
-0.52056705
 10
1536120.726926636
 20
-60437.9231775836
 42
-0.52056705
 10
1550358.588145558
 20
-51292.29935295973
 42
-0.52056705
 10
1550358.588145558
 20
-51292.29935295973
 42
-0.52056705
 10
1576800.325240563
 20
-35033.41454630858
 42
-0.52056705
 10
1576800.325240563
 20
-35033.41454630858
 42
-0.52056705
 10
1615445.947256891
 20
-7596.546659261221
 42
-0.52056705
 10
1615445.947256891
 20
-7596.546659261221
 42
-0.52056705
 10
1642904.672500696
 20
8662.338147389936
 42
-0.52056705
 10
1642904.672500696
 20
8662.338147389936
 42
-0.52056705
 10
1667312.4332981
 20
24921.22295404109
 42
-0.52056705
 10
1667312.4332981
 20
24921.22295404109
 42
-0.52056705
 10
1682567.282665823
 20
37115.38745573559
 42
-0.52056705
 10
1682567.282665823
 20
37115.38745573559
 42
-0.52056705
 10
1690703.201424084
 20
47277.18911483325
 42
-0.52056705
 10
1690703.201424084
 20
47277.18911483325
 42
-0.52056705
 10
1698839.120182346
 20
67600.79601985332
 42
-0.52056705
 10
1698839.120182346
 20
67600.79601985332
 42
-0.52056705
 10
1703924.069971586
 20
86908.2215035751
 42
-0.52056705
 10
1703924.069971586
 20
86908.2215035751
 42
-0.52056705
 10
1712059.988729848
 20
120442.1725381757
 42
-0.52056705
 10
1712059.988729848
 20
120442.1725381757
 42
-0.52056705
 10
1719178.919339309
 20
142798.1386989679
 42
-0.52056705
 10
1719178.919339309
 20
142798.1386989679
 42
-0.52056705
 10
1727314.838097571
 20
169218.8269581292
 42
-0.52056705
 10
1727314.838097571
 20
169218.8269581292
 42
-0.52056705
 10
1734433.768707032
 20
227141.1034092943
 42
-0.52056705
 10
1734433.768707032
 20
227141.1034092943
 42
-0.52056705
 10
1734433.768707032
 20
303354.6257162949
 42
-0.52056705
 10
1734433.768707032
 20
303354.6257162949
 42
-0.52056705
 10
1721212.90015953
 20
350098.9208804763
 42
-0.52056705
 10
1721212.90015953
 20
350098.9208804763
 42
-0.52056705
 10
1707992.031612028
 20
392778.4939462886
 42
-0.52056705
 10
1707992.031612028
 20
392778.4939462886
 42
-0.52056705
 10
1699856.112853766
 20
423263.9025104062
 42
-0.52056705
 10
1699856.112853766
 20
423263.9025104062
 42
-0.52056705
 10
1699856.112853766
 20
435458.0652186887
 42
-0.52056705
 10
1699856.112853766
 20
435458.0652186887
 42
-0.52056705
 10
1699856.112853766
 20
445619.8686711986
 42
-0.52056705
 10
1699856.112853766
 20
445619.8686711986
 42
-0.52056705
 10
1699856.112853766
 20
449684.5907695673
 42
-0.52056705
 10
1699856.112853766
 20
449684.5907695673
 42
-0.52056705
 10
1699856.112853766
 20
455781.6721237085
 42
-0.52056705
 10
1699856.112853766
 20
455781.6721237085
 42
-0.52056705
 10
1699856.112853766
 20
457814.033172893
 42
-0.52056705
 10
1699856.112853766
 20
457814.033172893
 42
-0.52056705
 10
1699856.112853766
 20
463911.1145270343
 42
-0.52056705
 10
1699856.112853766
 20
463911.1145270343
 42
-0.52056705
 10
1699856.112853766
 20
470008.1958811757
 42
-0.52056705
 10
1699856.112853766
 20
470008.1958811757
 42
-0.52056705
 10
1698839.120182346
 20
488299.441737011
 42
-0.52056705
 10
1698839.120182346
 20
488299.441737011
 42
-0.52056705
 10
1693754.170393104
 20
512687.7689469878
 42
-0.52056705
 10
1693754.170393104
 20
512687.7689469878
 42
-0.52056705
 10
1682567.282665823
 20
559432.0641111687
 42
-0.52056705
 10
1682567.282665823
 20
559432.0641111687
 42
-0.52056705
 10
1665278.45247788
 20
606176.3574819376
 42
-0.52056705
 10
1665278.45247788
 20
606176.3574819376
 42
-0.52056705
 10
1658159.521868419
 20
630564.6846919146
 42
-0.52056705
 10
1658159.521868419
 20
630564.6846919146
 42
-0.52056705
 10
1622564.873343732
 20
629548.5050640285
 42
-0.52056705
 10
1622564.873343732
 20
629548.5050640285
 42
-0.52056705
 10
1204582.006999795
 20
631580.8643198008
 42
-0.52056705
 10
1204582.006999795
 20
631580.8643198008
 42
-0.52056705
 10
1166953.377654889
 20
616338.160934448
 42
-0.52056705
 10
1166953.377654889
 20
616338.160934448
 42
-0.52056705
 10
1138477.659739664
 20
603127.8168048675
 42
-0.52056705
 10
1138477.659739664
 20
603127.8168048675
 42
-0.52056705
 10
1121188.82955172
 20
592966.0133523571
 42
-0.52056705
 10
1121188.82955172
 20
592966.0133523571
 42
-0.52056705
 10
1111018.929973238
 20
586868.9319982163
 42
-0.52056705
 10
1111018.929973238
 20
586868.9319982163
 42
-0.52056705
 10
1105933.980183997
 20
582804.2098998472
 42
-0.52056705
 10
1105933.980183997
 20
582804.2098998472
 42
-0.52056705
 10
1094747.092456715
 20
577723.3081735926
 42
-0.52056705
 10
1094747.092456715
 20
577723.3081735926
 42
-0.52056705
 10
1088645.149996054
 20
571626.2268194512
 42
-0.52056705
 10
1088645.149996054
 20
571626.2268194512
 42
-0.52056705
 10
1080509.231237792
 20
561464.4233669412
 42
-0.52056705
 10
1080509.231237792
 20
561464.4233669412
 42
-0.52056705
 10
1065254.381870069
 20
534027.5554798937
 42
-0.52056705
 10
1065254.381870069
 20
534027.5554798937
 42
-0.52056705
 10
1045931.575384526
 20
503542.1469157761
 42
-0.52056705
 10
1045931.575384526
 20
503542.1469157761
 42
-0.52056705
 10
1015421.876649081
 20
442571.3279941279
 42
-0.52056705
 10
1015421.876649081
 20
442571.3279941279
 42
-0.52056705
 10
998133.046461138
 20
398875.5753004298
 42
-0.52056705
 10
998133.046461138
 20
398875.5753004298
 42
-0.52056705
 10
987963.1468826559
 20
354163.6411854329
 42
-0.52056705
 10
987963.1468826559
 20
354163.6411854329
 42
-0.52056705
 10
986946.1587338561
 20
333840.0360738251
 42
-0.52056705
 10
986946.1587338561
 20
333840.0360738251
 42
-0.52056705
 10
984912.1779136353
 20
323678.2326213152
 42
-0.52056705
 10
984912.1779136353
 20
323678.2326213152
 42
-0.52056705
 10
983895.1852422145
 20
321645.8715721306
 42
-0.52056705
 10
983895.1852422145
 20
321645.8715721306
 42
-0.52056705
 10
981861.2089446149
 20
318597.33089506
 42
-0.52056705
 10
981861.2089446149
 20
318597.33089506
 42
-0.52056705
 10
968640.3358744923
 20
316564.9698458754
 42
-0.52056705
 10
968640.3358744923
 20
316564.9698458754
 42
-0.52056705
 10
952368.4983579693
 20
316564.9698458754
 42
-0.52056705
 10
952368.4983579693
 20
316564.9698458754
 42
-0.52056705
 10
923892.7804427436
 20
316564.9698458754
 42
-0.52056705
 10
923892.7804427436
 20
316564.9698458754
 42
-0.52056705
 10
809989.9042592225
 20
323678.2326213152
 42
-0.52056705
 10
809989.9042592225
 20
323678.2326213152
 42
-0.52056705
 10
730664.6884515882
 20
323678.2326213152
 42
-0.52056705
 10
730664.6884515882
 20
323678.2326213152
 42
-0.52056705
 10
650322.4844951536
 20
307419.347814664
 42
-0.52056705
 10
650322.4844951536
 20
307419.347814664
 42
-0.52056705
 10
610659.8743300261
 20
295225.1833129695
 42
-0.52056705
 10
610659.8743300261
 20
295225.1833129695
 42
-0.52056705
 10
590320.0751730623
 20
289128.1019588283
 42
-0.52056705
 10
590320.0751730623
 20
289128.1019588283
 42
-0.52056705
 10
573031.2495077402
 20
288111.9223309422
 42
-0.52056705
 10
573031.2495077402
 20
288111.9223309422
 42
-0.52056705
 10
562861.3499292582
 20
288111.9223309422
 42
-0.52056705
 10
562861.3499292582
 20
288111.9223309422
 42
-0.52056705
 10
548623.4887103353
 20
288111.9223309422
 42
-0.52056705
 10
548623.4887103353
 20
288111.9223309422
 42
-0.52056705
 10
519130.7826463106
 20
300306.0850392243
 42
-0.52056705
 10
519130.7826463106
 20
300306.0850392243
 42
-0.52056705
 10
498790.9834893467
 20
317581.151267174
 42
-0.52056705
 10
498790.9834893467
 20
317581.151267174
 42
-0.52056705
 10
470315.2610515002
 20
361276.9039608723
 42
-0.52056705
 10
470315.2610515002
 20
361276.9039608723
 42
-0.52056705
 10
440822.5549874752
 20
417166.8211562653
 42
-0.52056705
 10
440822.5549874752
 20
417166.8211562653
 42
-0.52056705
 10
417431.7868614914
 20
474072.9179795443
 42
-0.52056705
 10
417431.7868614914
 20
474072.9179795443
 42
-0.52056705
 10
405227.9064627885
 20
493380.3434632661
 42
-0.52056705
 10
405227.9064627885
 20
493380.3434632661
 42
-0.52056705
 10
399125.9685247486
 20
511671.5893191019
 42
-0.52056705
 10
399125.9685247486
 20
511671.5893191019
 42
-0.52056705
 10
393024.0260640867
 20
522849.5723994978
 42
-0.52056705
 10
393024.0260640867
 20
522849.5723994978
 42
-0.52056705
 10
389973.0570950657
 20
530979.0148028231
 42
-0.52056705
 10
389973.0570950657
 20
530979.0148028231
 42
-0.52056705
 10
384888.1073058248
 20
541140.8182553334
 42
-0.52056705
 10
384888.1073058248
 20
541140.8182553334
 42
-0.52056705
 10
382854.1264856048
 20
543173.1775111057
 42
-0.52056705
 10
382854.1264856048
 20
543173.1775111057
 42
-0.52056705
 10
382854.1264856048
 20
545205.5385602903
 42
-0.52056705
 10
382854.1264856048
 20
545205.5385602903
 42
-0.52056705
 10
387939.0762748459
 20
553334.9809636155
 42
-0.52056705
 10
387939.0762748459
 20
553334.9809636155
 42
-0.52056705
 10
402176.9374937686
 20
567561.5065144945
 42
-0.52056705
 10
402176.9374937686
 20
567561.5065144945
 42
-0.52056705
 10
413363.8252210505
 20
578739.4895948906
 42
-0.52056705
 10
413363.8252210505
 20
578739.4895948906
 42
-0.52056705
 10
428618.6745887735
 20
592966.0133523571
 42
-0.52056705
 10
428618.6745887735
 20
592966.0133523571
 42
-0.52056705
 10
441839.5431362752
 20
601095.4557556829
 42
-0.52056705
 10
441839.5431362752
 20
601095.4557556829
 42
-0.52056705
 10
472349.2418717211
 20
612273.4388360789
 42
-0.52056705
 10
472349.2418717211
 20
612273.4388360789
 42
-0.52056705
 10
480485.1606299822
 20
613289.6202573775
 42
-0.52056705
 10
480485.1606299822
 20
613289.6202573775
 42
-0.52056705
 10
484553.122270423
 20
613289.6202573775
 42
-0.52056705
 10
484553.122270423
 20
613289.6202573775
 42
-0.52056705
 10
488621.0839108648
 20
613289.6202573775
 42
-0.52056705
 10
488621.0839108648
 20
613289.6202573775
 42
-0.52056705
 10
495740.009997705
 20
598046.9150786123
 42
-0.52056705
 10
495740.009997705
 20
598046.9150786123
 42
-0.52056705
 10
517096.8018260897
 20
554351.162384914
 42
-0.52056705
 10
517096.8018260897
 20
554351.162384914
 42
-0.52056705
 10
534385.6320140325
 20
524881.9334486825
 42
-0.52056705
 10
534385.6320140325
 20
524881.9334486825
 42
-0.52056705
 10
546589.5078901145
 20
502525.9654944775
 42
-0.52056705
 10
546589.5078901145
 20
502525.9654944775
 42
-0.52056705
 10
551674.4576793557
 20
495412.7045124506
 42
-0.52056705
 10
551674.4576793557
 20
495412.7045124506
 42
-0.52056705
 10
556759.4074685965
 20
488299.441737011
 42
-0.52056705
 10
556759.4074685965
 20
488299.441737011
 42
-0.52056705
 10
558793.3882888174
 20
481186.1789615715
 42
-0.52056705
 10
558793.3882888174
 20
481186.1789615715
 42
-0.52056705
 10
561844.3572578375
 20
471024.3773024735
 42
-0.52056705
 10
561844.3572578375
 20
471024.3773024735
 42
-0.52056705
 10
565912.3188982783
 20
452733.1314466379
 42
-0.52056705
 10
565912.3188982783
 20
452733.1314466379
 42
-0.52056705
 10
567946.2997184992
 20
449684.5907695673
 42
-0.52056705
 10
567946.2997184992
 20
449684.5907695673
 42
-0.52056705
 10
569980.2760160984
 20
446636.050092497
 42
-0.52056705
 10
569980.2760160984
 20
446636.050092497
 42
-0.52056705
 10
569980.2760160984
 20
443587.5094154265
 42
-0.52056705
 10
569980.2760160984
 20
443587.5094154265
 42
-0.52056705
 10
560827.3691090372
 20
435458.0652186887
 42
-0.52056705
 10
560827.3691090372
 20
435458.0652186887
 42
-0.52056705
 10
540487.5699520736
 20
426312.4431874768
 42
-0.52056705
 10
540487.5699520736
 20
426312.4431874768
 42
-0.52056705
 10
510994.8593654279
 20
417166.8211562653
 42
-0.52056705
 10
510994.8593654279
 20
417166.8211562653
 42
-0.52056705
 10
475400.2108407411
 20
416150.6397349668
 42
-0.52056705
 10
475400.2108407411
 20
416150.6397349667
 42
-0.52056705
 10
444890.516627916
 20
416150.6397349668
 42
-0.52056705
 10
444890.516627916
 20
416150.6397349667
 42
-0.52056705
 10
392007.0379152866
 20
420215.3618333356
 42
-0.52056705
 10
392007.0379152866
 20
420215.3618333356
 42
-0.52056705
 10
362514.327328641
 20
424280.0821382923
 42
-0.52056705
 10
362514.327328641
 20
424280.0821382923
 42
-0.52056705
 10
334038.609413416
 20
424280.0821382923
 42
-0.52056705
 10
334038.609413416
 20
424280.0821382923
 42
-0.52056705
 10
319800.7527171132
 20
424280.0821382923
 42
-0.52056705
 10
319800.7527171132
 20
424280.0821382923
 42
-0.52056705
 10
309630.8531386312
 20
424280.0821382923
 42
-0.52056705
 10
309630.8531386312
 20
424280.0821382923
 42
-0.52056705
 10
292342.0229506884
 20
424280.0821382923
 42
-0.52056705
 10
292342.0229506884
 20
424280.0821382923
 42
-0.52056705
 10
269968.2429735037
 20
424280.0821382923
 42
-0.52056705
 10
269968.2429735037
 20
424280.0821382923
 42
-0.52056705
 10
244543.4940272989
 20
424280.0821382923
 42
-0.52056705
 10
244543.4940272989
 20
424280.0821382923
 42
-0.52056705
 10
222169.7140501151
 20
423263.9025104062
 42
-0.52056705
 10
222169.7140501151
 20
423263.9025104062
 42
-0.52056705
 10
176405.1659469465
 20
423263.9025104062
 42
-0.52056705
 10
176405.1659469465
 20
423263.9025104062
 42
-0.52056705
 10
140810.5219448805
 20
423263.9025104062
 42
-0.52056705
 10
140810.5219448805
 20
423263.9025104062
 42
-0.52056705
 10
58434.33264560531
 20
434441.8855908028
 42
-0.52056705
 10
58434.33264560531
 20
434441.8855908028
 42
-0.52056705
 10
29958.61473037955
 20
440538.9669449434
 42
-0.52056705
 10
29958.61473037955
 20
440538.9669449434
 42
-0.52056705
 10
25890.65761255939
 20
440538.9669449434
 42
-0.52056705
 10
25890.65761255939
 20
440538.9669449434
 42
-0.52056705
 10
24873.66494113859
 20
441555.148366242
 42
-0.52056705
 10
24873.66494113859
 20
441555.148366242
 42
-0.52056705
 10
24873.66494113859
 20
439522.7873170575
 42
-0.52056705
 10
24873.66494113859
 20
439522.7873170575
 42
-0.52056705
 10
24873.66494113859
 20
426312.4431874768
 42
-0.52056705
 10
24873.66494113859
 20
426312.4431874768
 42
-0.52056705
 10
26907.64576135948
 20
405988.838075869
 42
-0.52056705
 10
26907.64576135948
 20
405988.838075869
 42
-0.52056705
 10
28941.62658158038
 20
395827.0346233592
 42
-0.52056705
 10
28941.62658158038
 20
395827.0346233592
 42
-0.52056705
 10
28941.62658158038
 20
381600.5090724802
 42
-0.52056705
 10
28941.62658158038
 20
381600.5090724803
 42
-0.52056705
 10
24873.66494113859
 20
357212.1818625035
 42
-0.52056705
 10
24873.66494113859
 20
357212.1818625035
 42
-0.52056705
 10
18771.72700309846
 20
344001.8395263351
 42
-0.52056705
 10
18771.72700309846
 20
344001.8395263351
 42
-0.52056705
 10
16737.74618287757
 20
341969.4784771504
 42
-0.52056705
 10
16737.74618287757
 20
341969.4784771504
 42
-0.52056705
 10
15720.75803407747
 20
341969.4784771504
 42
-0.52056705
 10
15720.75803407747
 20
341969.4784771504
 42
-0.52056705
 10
9618.815573415721
 20
356196.0022346176
 42
-0.52056705
 10
9618.815573415721
 20
356196.0022346176
 42
-0.52056705
 10
1482.896815154701
 20
399891.7549283158
 42
-0.52056705
 10
1482.896815154701
 20
399891.7549283158
 42
-0.52056705
 10
-3602.052974086255
 20
433425.7059629162
 42
-0.52056705
 10
-3602.052974086255
 20
433425.7059629162
 42
-0.52056705
 10
-3602.052974086255
 20
492364.1638353799
 42
-0.52056705
 10
-3602.052974086255
 20
492364.1638353799
 42
-0.52056705
 10
-3602.052974086255
 20
529962.8351749372
 42
-0.52056705
 10
-3602.052974086255
 20
529962.8351749372
 42
-0.52056705
 10
-3602.052974086255
 20
568577.6861423806
 42
-0.52056705
 10
-3602.052974086255
 20
568577.6861423806
 42
-0.52056705
 10
-3602.052974086255
 20
583820.3913211457
 42
-0.52056705
 10
-3602.052974086255
 20
583820.3913211457
 42
-0.52056705
 10
-4619.041122886352
 20
589917.4726752869
 42
-0.52056705
 10
-4619.041122886352
 20
589917.4726752869
 42
-0.52056705
 10
-5636.033794306218
 20
589917.4726752869
 42
-0.52056705
 10
-5636.033794306218
 20
589917.4726752869
 42
-0.52056705
 10
-6653.021943106316
 20
590933.652303173
 42
-0.52056705
 10
-6653.021943106316
 20
590933.652303173
 42
-0.52056705
 10
-6653.021943106316
 20
565529.14546531
 42
-0.52056705
 10
-6653.021943106316
 20
565529.14546531
 42
-0.52056705
 10
1482.896815154701
 20
518784.8503011286
 42
-0.52056705
 10
1482.896815154701
 20
518784.8503011286
 42
-0.52056705
 10
9618.815573415721
 20
477121.4586566149
 42
-0.52056705
 10
9618.815573415721
 20
477121.4586566149
 42
-0.52056705
 10
16737.74618287757
 20
454765.4924958225
 42
-0.52056705
 10
16737.74618287757
 20
454765.4924958225
 42
-0.52056705
 10
20805.70782331843
 20
430377.165285846
 42
-0.52056705
 10
20805.70782331843
 20
430377.165285846
 42
-0.52056705
 10
27924.63391015958
 20
395827.0346233592
 42
-0.52056705
 10
27924.63391015958
 20
395827.0346233592
 42
-0.52056705
 10
28941.62658158038
 20
373471.0666691547
 42
-0.52056705
 10
28941.62658158038
 20
373471.0666691547
 42
-0.52056705
 10
28941.62658158038
 20
360260.7243329862
 42
-0.52056705
 10
28941.62658158038
 20
360260.7243329862
 42
-0.52056705
 10
28941.62658158038
 20
359244.5429116882
 42
-0.52056705
 10
28941.62658158038
 20
359244.5429116882
 42
-0.52056705
 10
28941.62658158038
 20
357212.1818625035
 42
-0.52056705
 10
28941.62658158038
 20
357212.1818625035
 42
-0.52056705
 10
28941.62658158038
 20
344001.8395263351
 42
-0.52056705
 10
28941.62658158038
 20
344001.8395263351
 42
-0.52056705
 10
28941.62658158038
 20
316564.9698458754
 42
-0.52056705
 10
28941.62658158038
 20
316564.9698458754
 42
-0.52056705
 10
33009.58369940054
 20
284047.2002325731
 42
-0.52056705
 10
33009.58369940054
 20
284047.2002325731
 42
-0.52056705
 10
47247.4449183233
 20
247464.7103143144
 42
-0.52056705
 10
47247.4449183233
 20
247464.7103143144
 42
-0.52056705
 10
53349.38285636436
 20
235270.5458126199
 42
-0.52056705
 10
53349.38285636436
 20
235270.5458126199
 42
-0.52056705
 10
54366.37552778517
 20
225108.74236011
 42
-0.52056705
 10
54366.37552778517
 20
225108.74236011
 42
-0.52056705
 10
54366.37552778517
 20
222060.2016830393
 42
-0.52056705
 10
54366.37552778517
 20
222060.2016830393
 42
-0.52056705
 10
54366.37552778517
 20
217995.4813780828
 42
-0.52056705
 10
54366.37552778517
 20
217995.4813780828
 42
-0.52056705
 10
52332.39470756426
 20
215963.1203288981
 42
-0.52056705
 10
52332.39470756426
 20
215963.1203288981
 42
-0.52056705
 10
40128.51430886144
 20
214946.9407010121
 42
-0.52056705
 10
40128.51430886144
 20
214946.9407010121
 42
-0.52056705
 10
27924.63391015958
 20
214946.9407010121
 42
-0.52056705
 10
27924.63391015958
 20
214946.9407010121
 42
-0.52056705
 10
14703.76536265667
 20
212914.5796518275
 42
-0.52056705
 10
14703.76536265667
 20
212914.5796518275
 42
-0.52056705
 10
-551.0840050652623
 20
199704.2355222469
 42
-0.52056705
 10
-551.0840050652623
 20
199704.2355222469
 42
-0.52056705
 10
-2585.064825286158
 20
186493.8913926664
 42
-0.52056705
 10
-2585.064825286158
 20
186493.8913926664
 42
-0.52056705
 10
-2585.064825286158
 20
174299.7286843841
 42
-0.52056705
 10
-2585.064825286158
 20
174299.7286843841
 42
-0.52056705
 10
465.908666354604
 20
154992.3014072503
 42
-0.52056705
 10
465.908666354604
 20
154992.3014072503
 42
-0.52056705
 10
11652.79639363661
 20
136701.0573448269
 42
-0.52056705
 10
11652.79639363661
 20
136701.0573448269
 42
-0.52056705
 10
41145.50698028225
 20
109264.1876643672
 42
-0.52056705
 10
41145.50698028225
 20
109264.1876643672
 42
-0.52056705
 10
81825.10077158921
 20
84875.86045439076
 42
-0.52056705
 10
81825.10077158921
 20
84875.86045439076
 42
-0.52056705
 10
110300.8232094347
 20
73697.87737399456
 42
-0.52056705
 10
110300.8232094347
 20
73697.87737399456
 42
-0.52056705
 10
147929.4480317216
 20
64552.2553427827
 42
-0.52056705
 10
147929.4480317216
 20
64552.2553427827
 42
-0.52056705
 10
166235.2708910853
 20
61503.71466571233
 42
-0.52056705
 10
166235.2708910853
 20
61503.71466571233
 42
-0.52056705
 10
184541.0892278282
 20
61503.71466571233
 42
-0.52056705
 10
184541.0892278282
 20
61503.71466571233
 42
-0.52056705
 10
203863.8957133722
 20
61503.71466571233
 42
-0.52056705
 10
203863.8957133722
 20
61503.71466571233
 42
-0.52056705
 10
219118.745081095
 20
61503.71466571233
 42
-0.52056705
 10
219118.745081095
 20
61503.71466571233
 42
-0.52056705
 10
233356.6063000178
 20
58455.17398864171
 42
-0.52056705
 10
233356.6063000178
 20
58455.17398864171
 42
-0.52056705
 10
245560.4866987197
 20
54390.45189027279
 42
-0.52056705
 10
245560.4866987197
 20
54390.45189027279
 42
-0.52056705
 10
255730.3862772017
 20
49309.55016401783
 42
-0.52056705
 10
255730.3862772017
 20
49309.55016401783
 42
-0.52056705
 10
284206.1041924274
 20
49309.55016401783
 42
-0.52056705
 10
284206.1041924274
 20
49309.55016401783
 42
-0.52056705
 10
323868.7098349342
 20
60487.53324441402
 42
-0.52056705
 10
323868.7098349342
 20
60487.53324441402
 42
-0.52056705
 10
367599.2771178819
 20
83859.68082650446
 42
-0.52056705
 10
367599.2771178819
 20
83859.68082650446
 42
-0.52056705
 10
420482.7558305114
 20
114345.0893906224
 42
-0.52056705
 10
420482.7558305114
 20
114345.0893906224
 42
-0.52056705
 10
448958.4737457373
 20
124506.8928431324
 42
-0.52056705
 10
448958.4737457373
 20
124506.8928431324
 42
-0.52056705
 10
474383.2226919411
 20
128571.6149415013
 42
-0.52056705
 10
474383.2226919411
 20
128571.6149415013
 42
-0.52056705
 10
490655.060208464
 20
129587.7945693873
 42
-0.52056705
 10
490655.060208464
 20
129587.7945693873
 42
-0.52056705
 10
493706.0337001057
 20
129587.7945693873
 42
-0.52056705
 10
493706.0337001057
 20
129587.7945693873
 42
-0.52056705
 10
496757.0026691259
 20
122474.531793948
 42
-0.52056705
 10
496757.0026691259
 20
122474.531793948
 42
-0.52056705
 10
515062.8210058687
 20
74714.05879529286
 42
-0.52056705
 10
515062.8210058687
 20
74714.05879529286
 42
-0.52056705
 10
536419.6083116326
 20
35083.02640655101
 42
-0.52056705
 10
536419.6083116326
 20
35083.02640655101
 42
-0.52056705
 10
580150.1755945803
 20
-9628.907708445565
 42
-0.52056705
 10
580150.1755945803
 20
-9628.907708445565
 42
-0.52056705
 10
613710.8478216678
 20
-22839.25183802633
 42
-0.52056705
 10
613710.8478216678
 20
-22839.25183802633
 42
-0.52056705
 10
712358.8701148451
 20
-33001.053497124
 42
-0.52056705
 10
712358.8701148451
 20
-33001.053497124
 42
-0.52056705
 10
805921.9471414024
 20
-35033.41454630858
 42
-0.52056705
 10
805921.9471414024
 20
-35033.41454630858
 42
-0.52056705
 10
887281.1437692577
 20
-39098.13664467749
 42
-0.52056705
 10
887281.1437692577
 20
-39098.13664467749
 42
-0.52056705
 10
924909.7685915435
 20
-39098.13664467749
 42
-0.52056705
 10
924909.7685915435
 20
-39098.13664467749
 42
-0.52056705
 10
939147.6298104665
 20
-38081.95522337919
 42
-0.52056705
 10
939147.6298104665
 20
-38081.95522337919
 42
-0.52056705
 10
956436.4599984102
 20
-38081.95522337919
 42
-0.52056705
 10
956436.4599984102
 20
-38081.95522337919
 42
-0.52056705
 10
975759.2664839531
 20
-38081.95522337919
 42
-0.52056705
 10
975759.2664839531
 20
-38081.95522337919
 42
-0.52056705
 10
982878.1970934151
 20
-38081.95522337919
 42
-0.52056705
 10
982878.1970934151
 20
-38081.95522337919
 42
-0.52056705
 10
984912.1779136353
 20
-38081.95522337919
 42
-0.52056705
 10
984912.1779136353
 20
-38081.95522337919
 42
-0.52056705
 10
985929.1660624352
 20
-38081.95522337919
 42
-0.52056705
 10
985929.1660624352
 20
-38081.95522337919
 42
-0.52056705
 10
989997.1277028761
 20
-42146.67732174786
 42
-0.52056705
 10
989997.1277028761
 20
-42146.67732174786
 42
-0.52056705
 10
996099.0656409173
 20
-46211.39762670477
 42
-0.52056705
 10
996099.0656409173
 20
-46211.39762670477
 42
-0.52056705
 10
1002201.008101579
 20
-49259.93830377515
 42
-0.52056705
 10
1002201.008101579
 20
-49259.93830377515
 42
-0.52056705
 10
1012370.90768006
 20
-51292.29935295973
 42
-0.52056705
 10
1012370.90768006
 20
-51292.29935295973
 42
-0.52056705
 10
1037795.656626265
 20
-56373.20107921468
 42
-0.52056705
 10
1037795.656626265
 20
-56373.20107921468
 42
-0.52056705
 10
1052033.513322567
 20
-61454.10280546965
 42
-0.52056705
 10
1052033.513322567
 20
-61454.10280546965
 42
-0.52056705
 10
1060169.432080828
 20
-62470.28243335568
 42
-0.52056705
 10
1060169.432080828
 20
-62470.28243335567
 42
-0.52056705
 10
1062203.412901049
 20
-62470.28243335568
 42
-0.52056705
 10
1062203.412901049
 20
-62470.28243335567
 42
-0.52056705
 10
1063220.401049849
 20
-62470.28243335568
 42
-0.52056705
 10
1063220.401049849
 20
-62470.28243335567
 42
-0.52056705
 10
1064237.393721269
 20
-62470.28243335568
 42
-0.52056705
 10
1064237.393721269
 20
-62470.28243335567
 42
-0.52056705
 10
1068305.35083909
 20
-59421.7417562853
 42
-0.52056705
 10
1068305.35083909
 20
-59421.7417562853
 42
-0.52056705
 10
1071356.324330731
 20
-56373.20107921468
 42
-0.52056705
 10
1071356.324330731
 20
-56373.20107921468
 42
-0.52056705
 10
1072373.312479531
 20
-55357.02145132865
 42
-0.52056705
 10
1072373.312479531
 20
-55357.02145132865
 42
-0.52056705
 10
1072373.312479531
 20
-55357.02145132865
  0
LWPOLYLINE
  5
14D5
330
1F
100
AcDbEntity
  8
0
100
AcDbPolyline
 90
      241
 70
     0
 43
0.0
 10
3288394.170127781
 20
1013806.57536288
 42
-0.52056705
 10
3293639.044307572
 20
1016426.926325866
 42
-0.52056705
 10
3293639.044307572
 20
1016426.926325866
 42
-0.52056705
 10
2813732.952836462
 20
620754.0923220872
 42
-0.52056705
 10
2813732.952836462
 20
620754.0923220872
 42
-0.52056705
 10
2721947.636599645
 20
563106.3944507551
 42
-0.52056705
 10
2721947.636599645
 20
563106.3944507551
 42
-0.52056705
 10
2648519.379992095
 20
489736.596181744
 42
-0.52056705
 10
2648519.379992095
 20
489736.596181744
 42
-0.52056705
 10
2569846.249204754
 20
411126.0995735853
 42
-0.52056705
 10
2569846.249204754
 20
411126.0995735853
 42
-0.52056705
 10
2501662.871299615
 20
342997.0032305464
 42
-0.52056705
 10
2501662.871299615
 20
342997.0032305464
 42
-0.52056705
 10
2396765.365090701
 20
251284.7571876948
 42
-0.52056705
 10
2396765.365090701
 20
251284.7571876948
 42
-0.52056705
 10
2255153.730578012
 20
146470.7599167379
 42
-0.52056705
 10
2255153.730578012
 20
146470.7599167379
 42
-0.52056705
 10
2139766.471486896
 20
44277.11540217907
 42
-0.52056705
 10
2139766.471486896
 20
44277.11540217907
 42
-0.52056705
 10
2066338.219401967
 20
-23851.98273427226
 42
-0.52056705
 10
2066338.219401967
 20
-23851.98273427226
 42
-0.52056705
 10
1908991.957827286
 20
-133906.6783443766
 42
-0.52056705
 10
1908991.957827286
 20
-133906.6783443766
 42
-0.52056705
 10
1607411.629172641
 20
-346155.0202624522
 42
-0.52056705
 10
1607411.629172641
 20
-346155.0202624522
 42
-0.52056705
 10
1510381.434233412
 20
-450969.0157399967
 42
-0.52056705
 10
1510381.434233412
 20
-450969.0157399967
 42
-0.52056705
 10
1447442.930508064
 20
-558403.3621805275
 42
-0.52056705
 10
1447442.930508064
 20
-558403.3621805275
 42
-0.52056705
 10
1447442.930508064
 20
-558403.3621805275
 42
-0.52056705
 10
1452687.804687855
 20
-558403.3621805275
 42
-0.52056705
 10
1452687.804687855
 20
-558403.3621805275
 42
-0.52056705
 10
1880145.145315817
 20
-322571.8705626397
 42
-0.52056705
 10
1880145.145315817
 20
-322571.8705626397
 42
-0.52056705
 10
2108297.221885532
 20
-160110.1772137629
 42
-0.52056705
 10
2108297.221885532
 20
-160110.1772137629
 42
-0.52056705
 10
2236796.666426125
 20
28555.01500450005
 42
-0.52056705
 10
2236796.666426125
 20
28555.01500450005
 42
-0.52056705
 10
2249908.856398221
 20
130748.6613124709
 42
-0.52056705
 10
2249908.856398221
 20
130748.6613124709
 42
-0.52056705
 10
2239419.10351602
 20
209359.1579206295
 42
-0.52056705
 10
2239419.10351602
 20
209359.1579206295
 42
-0.52056705
 10
2207949.853914656
 20
272247.5559245211
 42
-0.52056705
 10
2207949.853914656
 20
272247.5559245211
 42
-0.52056705
 10
2089940.157733646
 20
442570.2985755314
 42
-0.52056705
 10
2089940.157733646
 20
442570.2985755314
 42
-0.52056705
 10
2050603.592339975
 20
523801.1461466758
 42
-0.52056705
 10
2050603.592339975
 20
523801.1461466758
 42
-0.52056705
 10
2042736.281070289
 20
576208.1438854482
 42
-0.52056705
 10
2042736.281070289
 20
576208.1438854482
 42
-0.52056705
 10
2042736.281070289
 20
639096.5418893399
 42
-0.52056705
 10
2042736.281070289
 20
639096.5418893399
 42
-0.52056705
 10
2037491.402367878
 20
722947.738630058
 42
-0.52056705
 10
2037491.402367878
 20
722947.738630058
 42
-0.52056705
 10
2021756.779828506
 20
793697.1841426712
 42
-0.52056705
 10
2021756.779828506
 20
793697.1841426712
 42
-0.52056705
 10
1995532.399884312
 20
877548.3808833895
 42
-0.52056705
 10
1995532.399884312
 20
877548.3808833895
 42
-0.52056705
 10
1937838.774861375
 20
953538.5283219744
 42
-0.52056705
 10
1937838.774861375
 20
953538.5283219744
 42
-0.52056705
 10
1898502.209467704
 20
1000704.825928186
 42
-0.52056705
 10
1898502.209467704
 20
1000704.825928186
 42
-0.52056705
 10
1890634.893675398
 20
1008565.877023732
 42
-0.52056705
 10
1890634.893675398
 20
1008565.877023732
 42
-0.52056705
 10
1888012.456585503
 20
1011186.226193306
 42
-0.52056705
 10
1888012.456585503
 20
1011186.226193306
 42
-0.52056705
 10
1888012.456585503
 20
1016426.926325866
 42
-0.52056705
 10
1888012.456585503
 20
1016426.926325866
 42
-0.52056705
 10
1882767.582405712
 20
1037389.725062692
 42
-0.52056705
 10
1882767.582405712
 20
1037389.725062692
 42
-0.52056705
 10
1880145.145315817
 20
1042630.425195252
 42
-0.52056705
 10
1880145.145315817
 20
1042630.425195252
 42
-0.52056705
 10
1874900.266613406
 20
1053111.825460371
 42
-0.52056705
 10
1874900.266613406
 20
1053111.825460371
 42
-0.52056705
 10
1867032.955343719
 20
1071454.273234212
 42
-0.52056705
 10
1867032.955343719
 20
1071454.273234212
 42
-0.52056705
 10
1840808.579922146
 20
1142203.720540237
 42
-0.52056705
 10
1840808.579922146
 20
1142203.720540237
 42
-0.52056705
 10
1832941.26412984
 20
1157925.820937916
 42
-0.52056705
 10
1832941.26412984
 20
1157925.820937916
 42
-0.52056705
 10
1985042.651524731
 20
911612.9308483214
 42
-0.52056705
 10
1985042.651524731
 20
911612.9308483214
 42
-0.52056705
 10
2239419.10351602
 20
515940.0968445424
 42
-0.52056705
 10
2239419.10351602
 20
515940.0968445424
 42
-0.52056705
 10
2548866.747962971
 20
130748.6613124709
 42
-0.52056705
 10
2548866.747962971
 20
130748.6613124709
 42
-0.52056705
 10
2816355.389926357
 20
-181072.9759505894
 42
-0.52056705
 10
2816355.389926357
 20
-181072.9759505894
 42
-0.52056705
 10
3193986.412278448
 20
-448348.6665704229
 42
-0.52056705
 10
3193986.412278448
 20
-448348.6665704229
 42
-0.52056705
 10
3548015.500821481
 20
-634393.5078257
 42
-0.52056705
 10
3548015.500821481
 20
-634393.5078257
 42
-0.52056705
 10
3899422.147751998
 20
-681559.8072253249
 42
-0.52056705
 10
3899422.147751998
 20
-681559.8072253249
 42
-0.52056705
 10
3763055.387419099
 20
-296368.3716932536
 42
-0.52056705
 10
3763055.387419099
 20
-296368.3716932536
 42
-0.52056705
 10
3540148.185029174
 20
177914.9589186837
 42
-0.52056705
 10
3540148.185029174
 20
177914.9589186837
 42
-0.52056705
 10
3220210.792222642
 20
615513.3921895277
 42
-0.52056705
 10
3220210.792222642
 20
615513.3921895277
 42
-0.52056705
 10
2999926.026922612
 20
1045250.774364825
 42
-0.52056705
 10
2999926.026922612
 20
1045250.774364825
 42
-0.52056705
 10
2866181.708202229
 20
1160546.170107489
 42
-0.52056705
 10
2866181.708202229
 20
1160546.170107489
 42
-0.52056705
 10
2866181.708202229
 20
696744.2379672601
 42
-0.52056705
 10
2866181.708202229
 20
696744.2379672601
 42
-0.52056705
 10
2897650.957803593
 20
513319.7458815563
 42
-0.52056705
 10
2897650.957803593
 20
513319.7458815563
 42
-0.52056705
 10
2921252.896135272
 20
439949.9494059577
 42
-0.52056705
 10
2921252.896135272
 20
439949.9494059577
 42
-0.52056705
 10
2936987.523197263
 20
390163.3008367589
 42
-0.52056705
 10
2936987.523197263
 20
390163.3008367589
 42
-0.52056705
 10
2936987.523197263
 20
379681.9005716399
 42
-0.52056705
 10
2936987.523197263
 20
379681.9005716399
 42
-0.52056705
 10
2936987.523197263
 20
377061.5514020662
 42
-0.52056705
 10
2936987.523197263
 20
377061.5514020662
 42
-0.52056705
 10
2944854.834466949
 20
356098.7526652397
 42
-0.52056705
 10
2944854.834466949
 20
356098.7526652397
 42
-0.52056705
 10
2944854.834466949
 20
327274.9028328674
 42
-0.52056705
 10
2944854.834466949
 20
327274.9028328674
 42
-0.52056705
 10
2944854.834466949
 20
301071.4039634813
 42
-0.52056705
 10
2944854.834466949
 20
301071.4039634813
 42
-0.52056705
 10
2947477.276079466
 20
295830.7056243338
 42
-0.52056705
 10
2947477.276079466
 20
295830.7056243338
 42
-0.52056705
 10
2947477.276079466
 20
293210.3546613477
 42
-0.52056705
 10
2947477.276079466
 20
293210.3546613477
 42
-0.52056705
 10
2957967.024439046
 20
253905.1063572685
 42
-0.52056705
 10
2957967.024439046
 20
253905.1063572685
 42
-0.52056705
 10
3089088.906069534
 20
-31713.03203640575
 42
-0.52056705
 10
3089088.906069534
 20
-31713.03203640575
 42
-0.52056705
 10
3270037.105975894
 20
-257063.1233891742
 42
-0.52056705
 10
3270037.105975894
 20
-257063.1233891742
 42
-0.52056705
 10
3385424.365067009
 20
-322571.8705626397
 42
-0.52056705
 10
3385424.365067009
 20
-322571.8705626397
 42
-0.52056705
 10
3424760.93046068
 20
-325192.2197322134
 42
-0.52056705
 10
3424760.93046068
 20
-325192.2197322134
 42
-0.52056705
 10
3427383.367550576
 20
-322571.8705626397
 42
-0.52056705
 10
3427383.367550576
 20
-322571.8705626397
 42
-0.52056705
 10
3427383.367550576
 20
-317331.1704300801
 42
-0.52056705
 10
3427383.367550576
 20
-317331.1704300801
 42
-0.52056705
 10
3427383.367550576
 20
-312090.4702975204
 42
-0.52056705
 10
3427383.367550576
 20
-312090.4702975205
 42
-0.52056705
 10
3432628.241730365
 20
-293748.0225236799
 42
-0.52056705
 10
3432628.241730365
 20
-293748.0225236799
 42
-0.52056705
 10
3445740.431702462
 20
-243961.3739544812
 42
-0.52056705
 10
3445740.431702462
 20
-243961.3739544812
 42
-0.52056705
 10
3445740.431702462
 20
-154869.4770812031
 42
-0.52056705
 10
3445740.431702462
 20
-154869.4770812031
 42
-0.52056705
 10
3440495.553000051
 20
-8129.882336593231
 42
-0.52056705
 10
3440495.553000051
 20
-8129.882336593231
 42
-0.52056705
 10
3411648.740488582
 20
91443.41300839162
 42
-0.52056705
 10
3411648.740488582
 20
91443.41300839162
 42
-0.52056705
 10
3385424.365067009
 20
156952.1601818571
 42
-0.52056705
 10
3385424.365067009
 20
156952.1601818571
 42
-0.52056705
 10
3367067.300915121
 20
191016.7083533767
 42
-0.52056705
 10
3367067.300915121
 20
191016.7083533767
 42
-0.52056705
 10
3348710.236763234
 20
209359.1579206295
 42
-0.52056705
 10
3348710.236763234
 20
209359.1579206295
 42
-0.52056705
 10
3314618.545549354
 20
227701.6074878822
 42
-0.52056705
 10
3314618.545549354
 20
227701.6074878822
 42
-0.52056705
 10
3262169.794706207
 20
238183.0077530018
 42
-0.52056705
 10
3262169.794706207
 20
238183.0077530018
 42
-0.52056705
 10
3214965.91804285
 20
253905.1063572685
 42
-0.52056705
 10
3214965.91804285
 20
253905.1063572685
 42
-0.52056705
 10
3183496.663918867
 20
264386.5066223878
 42
-0.52056705
 10
3183496.663918867
 20
264386.5066223878
 42
-0.52056705
 10
3167762.036856874
 20
267006.8557919615
 42
-0.52056705
 10
3167762.036856874
 20
267006.8557919615
 42
-0.52056705
 10
3165139.599766979
 20
267006.8557919615
 42
-0.52056705
 10
3165139.599766979
 20
267006.8557919615
 42
-0.52056705
 10
3159894.725587188
 20
267006.8557919615
 42
-0.52056705
 10
3159894.725587188
 20
267006.8557919615
 42
-0.52056705
 10
3152027.409794882
 20
272247.5559245211
 42
-0.52056705
 10
3152027.409794882
 20
272247.5559245211
 42
-0.52056705
 10
3094333.784771945
 20
301071.4039634813
 42
-0.52056705
 10
3094333.784771945
 20
301071.4039634813
 42
-0.52056705
 10
2955344.587349151
 20
356098.7526652397
 42
-0.52056705
 10
2955344.587349151
 20
356098.7526652397
 42
-0.52056705
 10
2766529.076173105
 20
434709.2492733982
 42
-0.52056705
 10
2766529.076173105
 20
434709.2492733982
 42
-0.52056705
 10
2391520.490910911
 20
518560.4460141163
 42
-0.52056705
 10
2391520.490910911
 20
518560.4460141163
 42
-0.52056705
 10
1898502.209467704
 20
589309.8933201411
 42
-0.52056705
 10
1898502.209467704
 20
589309.8933201411
 42
-0.52056705
 10
1557585.310896768
 20
618133.7413591013
 42
-0.52056705
 10
1557585.310896768
 20
618133.7413591013
 42
-0.52056705
 10
1526116.061295405
 20
618133.7413591013
 42
-0.52056705
 10
1526116.061295405
 20
618133.7413591013
 42
-0.52056705
 10
1526116.061295405
 20
620754.0923220872
 42
-0.52056705
 10
1526116.061295405
 20
620754.0923220872
 42
-0.52056705
 10
1492024.370081525
 20
678401.7901934191
 42
-0.52056705
 10
1492024.370081525
 20
678401.7901934191
 42
-0.52056705
 10
1371392.236810619
 20
833002.4342401626
 42
-0.52056705
 10
1371392.236810619
 20
833002.4342401626
 42
-0.52056705
 10
1130127.970268806
 20
1089796.722801465
 42
-0.52056705
 10
1130127.970268806
 20
1089796.722801465
 42
-0.52056705
 10
1392371.738052402
 20
882789.0810159489
 42
-0.52056705
 10
1392371.738052402
 20
882789.0810159489
 42
-0.52056705
 10
1324188.360147262
 20
885409.4319789345
 42
-0.52056705
 10
1324188.360147262
 20
885409.4319789345
 42
-0.52056705
 10
1179954.288544678
 20
882789.0810159489
 42
-0.52056705
 10
1179954.288544678
 20
882789.0810159489
 42
-0.52056705
 10
962291.9603345444
 20
882789.0810159489
 42
-0.52056705
 10
962291.9603345444
 20
882789.0810159489
 42
-0.52056705
 10
951802.2119749629
 20
882789.0810159489
 42
-0.52056705
 10
951802.2119749629
 20
882789.0810159489
 42
-0.52056705
 10
933445.1478230748
 20
882789.0810159489
 42
-0.52056705
 10
933445.1478230748
 20
882789.0810159489
 42
-0.52056705
 10
925577.8320307683
 20
882789.0810159489
 42
-0.52056705
 10
925577.8320307683
 20
882789.0810159489
 42
-0.52056705
 10
917710.5207610827
 20
882789.0810159489
 42
-0.52056705
 10
917710.5207610827
 20
882789.0810159489
 42
-0.52056705
 10
899353.456609195
 20
882789.0810159489
 42
-0.52056705
 10
899353.456609195
 20
882789.0810159489
 42
-0.52056705
 10
870506.6440977267
 20
880168.7318463752
 42
-0.52056705
 10
870506.6440977267
 20
880168.7318463752
 42
-0.52056705
 10
841659.8270636377
 20
874928.0317138156
 42
-0.52056705
 10
841659.8270636377
 20
874928.0317138156
 42
-0.52056705
 10
776098.8862483941
 20
867066.9824116819
 42
-0.52056705
 10
776098.8862483941
 20
867066.9824116819
 42
-0.52056705
 10
566303.8738305662
 20
830382.0832771764
 42
-0.52056705
 10
566303.8738305662
 20
830382.0832771764
 42
-0.52056705
 10
419447.3651380865
 20
827761.7341076027
 42
-0.52056705
 10
419447.3651380865
 20
827761.7341076027
 42
-0.52056705
 10
406335.1751659894
 20
827761.7341076027
 42
-0.52056705
 10
406335.1751659894
 20
827761.7341076027
 42
-0.52056705
 10
411580.0538683999
 20
827761.7341076027
 42
-0.52056705
 10
411580.0538683999
 20
827761.7341076027
 42
-0.52056705
 10
432559.5551101836
 20
833002.4342401626
 42
-0.52056705
 10
432559.5551101836
 20
833002.4342401626
 42
-0.52056705
 10
450916.6147394497
 20
840863.4835422958
 42
-0.52056705
 10
450916.6147394497
 20
840863.4835422958
 42
-0.52056705
 10
466651.2418014426
 20
848724.5328444291
 42
-0.52056705
 10
466651.2418014426
 20
848724.5328444291
 42
-0.52056705
 10
487630.7430432254
 20
856585.582146563
 42
-0.52056705
 10
487630.7430432254
 20
856585.582146563
 42
-0.52056705
 10
519099.997167209
 20
874928.0317138156
 42
-0.52056705
 10
519099.997167209
 20
874928.0317138156
 42
-0.52056705
 10
521722.434257105
 20
877548.3808833895
 42
-0.52056705
 10
521722.434257105
 20
877548.3808833895
 42
-0.52056705
 10
521722.434257105
 20
877548.3808833895
  0
ENDSEC
  0
SECTION
  2
OBJECTS
  0
DICTIONARY
  5
C
330
0
100
AcDbDictionary
281
     1
  3
ACAD_CIP_PREVIOUS_PRODUCT_INFO
350
216
  3
ACAD_COLOR
350
6B
  3
ACAD_DETAILVIEWSTYLE
350
21B
  3
ACAD_GROUP
350
D
  3
ACAD_LAYOUT
350
1A
  3
ACAD_MATERIAL
350
6A
  3
ACAD_MLEADERSTYLE
350
12D
  3
ACAD_MLINESTYLE
350
17
  3
ACAD_PLOTSETTINGS
350
19
  3
ACAD_PLOTSTYLENAME
350
E
  3
ACAD_SCALELIST
350
10C
  3
ACAD_SECTIONVIEWSTYLE
350
219
  3
ACAD_TABLESTYLE
350
7E
  3
ACAD_VISUALSTYLE
350
EF
  3
ACDB_RECOMPOSE_DATA
350
15F0
  3
AcDbVariableDictionary
350
5E
  0
DICTIONARY
  5
1FF
330
2
100
AcDbDictionary
280
     1
281
     1
  3
ACAD_LAYERSTATES
360
200
  0
DICTIONARY
  5
13C
330
10
100
AcDbDictionary
280
     1
281
     1
  0
DICTIONARY
  5
1CE
330
1F
100
AcDbDictionary
280
     1
281
     1
  0
XRECORD
  5
216
102
{ACAD_REACTORS
330
C
102
}
330
C
100
AcDbXrecord
280
     1
300
ACD
300
2016
300
ACD_F_S
  0
DICTIONARY
  5
6B
102
{ACAD_REACTORS
330
C
102
}
330
C
100
AcDbDictionary
281
     1
  0
DICTIONARY
  5
21B
102
{ACAD_REACTORS
330
C
102
}
330
C
100
AcDbDictionary
281
     1
  3
Metric50
350
21C
  0
DICTIONARY
  5
D
102
{ACAD_REACTORS
330
C
102
}
330
C
100
AcDbDictionary
281
     1
  0
DICTIONARY
  5
1A
102
{ACAD_REACTORS
330
C
102
}
330
C
100
AcDbDictionary
281
     1
  3
Model
350
22
  3
配置1
350
D3
  3
配置2
350
D7
  0
DICTIONARY
  5
6A
102
{ACAD_REACTORS
330
C
102
}
330
C
100
AcDbDictionary
281
     1
  3
ByBlock
350
ED
  3
ByLayer
350
EC
  3
Global
350
EE
  0
DICTIONARY
  5
12D
102
{ACAD_REACTORS
330
C
102
}
330
C
100
AcDbDictionary
281
     1
  3
Standard
350
12E
  3
可註解
350
13B
  0
DICTIONARY
  5
17
102
{ACAD_REACTORS
330
C
102
}
330
C
100
AcDbDictionary
281
     1
  3
Standard
350
18
  0
DICTIONARY
  5
19
102
{ACAD_REACTORS
330
C
102
}
330
C
100
AcDbDictionary
281
     1
  0
ACDBDICTIONARYWDFLT
  5
E
102
{ACAD_REACTORS
330
C
102
}
330
C
100
AcDbDictionary
281
     1
  3
Normal
350
F
100
AcDbDictionaryWithDefault
340
F
  0
DICTIONARY
  5
10C
102
{ACAD_REACTORS
330
C
102
}
330
C
100
AcDbDictionary
281
     1
  3
A0
350
10D
  3
A1
350
1BE
  3
A2
350
1BF
  3
A3
350
1C0
  3
A4
350
1C1
  3
A5
350
1C2
  3
A6
350
1C3
  3
A7
350
1C4
  3
A8
350
1C5
  3
A9
350
1C6
  3
B0
350
1C7
  3
B1
350
1C8
  3
B2
350
1C9
  3
B3
350
1CA
  3
B4
350
1CB
  3
B5
350
1CC
  3
B6
350
1CD
  0
DICTIONARY
  5
219
102
{ACAD_REACTORS
330
C
102
}
330
C
100
AcDbDictionary
281
     1
  3
Metric50
350
21A
  0
DICTIONARY
  5
7E
102
{ACAD_REACTORS
330
C
102
}
330
C
100
AcDbDictionary
281
     1
  3
Standard
350
7F
  0
DICTIONARY
  5
EF
102
{ACAD_REACTORS
330
C
102
}
330
C
100
AcDbDictionary
281
     1
  3
2dWireframe
350
F5
  3
Basic
350
F4
  3
Brighten
350
FB
  3
ColorChange
350
FF
  3
Conceptual
350
F8
  3
Dim
350
FA
  3
EdgeColorOff
350
1E6
  3
Facepattern
350
FE
  3
Flat
350
F0
  3
FlatWithEdges
350
F1
  3
Gouraud
350
F2
  3
GouraudWithEdges
350
F3
  3
Hidden
350
F7
  3
JitterOff
350
1E4
  3
Linepattern
350
FD
  3
OverhangOff
350
1E5
  3
Realistic
350
F9
  3
Shaded
350
1F3
  3
Shaded with edges
350
1F2
  3
Shades of Gray
350
1EF
  3
Sketchy
350
1F0
  3
Thicken
350
FC
  3
Wireframe
350
F6
  3
X-Ray
350
1F1
  0
XRECORD
  5
15F0
102
{ACAD_REACTORS
330
C
102
}
330
C
100
AcDbXrecord
280
     1
 90
        1
330
7F
330
21A
330
21C
  0
DICTIONARY
  5
5E
102
{ACAD_REACTORS
330
C
102
}
330
C
100
AcDbDictionary
281
     1
  3
CANNOSCALE
350
146
  3
CMLEADERSTYLE
350
145
  3
CTABLESTYLE
350
84
  3
CVIEWDETAILSTYLE
350
227
  3
CVIEWSECTIONSTYLE
350
228
  3
DIMASSOC
350
5F
  3
HIDETEXT
350
63
  3
LAYEREVAL
350
1AE
  3
LAYERNOTIFY
350
1AF
  0
DICTIONARY
  5
200
102
{ACAD_REACTORS
330
1FF
102
}
330
1FF
100
AcDbDictionary
281
     1
  0
ACDBDETAILVIEWSTYLE
  5
21C
102
{ACAD_XDICTIONARY
360
236
102
}
102
{ACAD_REACTORS
330
21B
102
}
330
21B
100
AcDbModelDocViewStyle
 70
     0
  3
Metric50
290
     0
100
AcDbDetailViewStyle
 70
     0
 71
     0
 90
        3
 71
     1
340
11
 62
   256
 40
5.0
340
0
 62
   256
 40
5.0
300

 40
0.0
280
     1
 71
     2
340
16
 90
       25
 62
   256
 71
     3
340
11
 62
   256
 40
5.0
 90
        0
 40
15.0
 90
        1
300
%<\AcVar ViewDetailId>% (%<\AcVar ViewScale \f "%sn">%)
 71
     4
340
16
 90
       25
 62
   256
340
16
 90
       25
 62
   256
280
     0
  0
LAYOUT
  5
22
102
{ACAD_XDICTIONARY
360
205
102
}
102
{ACAD_REACTORS
330
1A
102
}
330
1A
100
AcDbPlotSettings
  1

  2
none_device
  4
ISO_A4_(210.00_x_297.00_MM)
  6

 40
7.5
 41
20.0
 42
7.5
 43
20.0
 44
210.0
 45
297.0
 46
11.54999923706054
 47
-13.65000009536743
 48
0.0
 49
0.0
140
0.0
141
0.0
142
1.0
143
8.704084754739808
 70
 11952
 72
     1
 73
     0
 74
     0
  7

 75
     0
147
0.1148885871608098
 76
     0
 77
     2
 78
   300
148
0.0
149
0.0
100
AcDbLayout
  1
Model
 70
     1
 71
     0
 10
0.0
 20
0.0
 11
12.0
 21
9.0
 12
0.0
 22
0.0
 32
0.0
 14
0.0
 24
0.0
 34
0.0
 15
0.0
 25
0.0
 35
0.0
146
0.0
 13
0.0
 23
0.0
 33
0.0
 16
1.0
 26
0.0
 36
0.0
 17
0.0
 27
1.0
 37
0.0
 76
     0
330
1F
331
EA
1001
ACAD_PSEXT
1000
None
1000
None
1000
Not applicable
1000
The layout will not be plotted unless a new plotter configuration name is selected.
1070
     0
  0
LAYOUT
  5
D3
102
{ACAD_REACTORS
330
1A
102
}
330
1A
100
AcDbPlotSettings
  1

  2
C:\Documents and Settings\basas\Application Data\Autodesk\AutoCAD 2005\R16.1\enu\plotters\Default Windows System Printer.pc3
  4

  6

 40
0.0
 41
0.0
 42
0.0
 43
0.0
 44
0.0
 45
0.0
 46
0.0
 47
0.0
 48
0.0
 49
0.0
140
0.0
141
0.0
142
1.0
143
1.0
 70
   688
 72
     0
 73
     0
 74
     5
  7

 75
    16
147
1.0
 76
     0
 77
     2
 78
   300
148
0.0
149
0.0
100
AcDbLayout
  1
配置1
 70
     1
 71
     1
 10
0.0
 20
0.0
 11
12.0
 21
9.0
 12
0.0
 22
0.0
 32
0.0
 14
0.0
 24
0.0
 34
0.0
 15
0.0
 25
0.0
 35
0.0
146
0.0
 13
0.0
 23
0.0
 33
0.0
 16
1.0
 26
0.0
 36
0.0
 17
0.0
 27
1.0
 37
0.0
 76
     0
330
D2
  0
LAYOUT
  5
D7
102
{ACAD_REACTORS
330
1A
102
}
330
1A
100
AcDbPlotSettings
  1

  2
C:\Documents and Settings\basas\Application Data\Autodesk\AutoCAD 2005\R16.1\enu\plotters\Default Windows System Printer.pc3
  4

  6

 40
0.0
 41
0.0
 42
0.0
 43
0.0
 44
0.0
 45
0.0
 46
0.0
 47
0.0
 48
0.0
 49
0.0
140
0.0
141
0.0
142
1.0
143
1.0
 70
   688
 72
     0
 73
     0
 74
     5
  7

 75
    16
147
1.0
 76
     0
 77
     2
 78
   300
148
0.0
149
0.0
100
AcDbLayout
  1
配置2
 70
     1
 71
     2
 10
0.0
 20
0.0
 11
12.0
 21
9.0
 12
0.0
 22
0.0
 32
0.0
 14
0.0
 24
0.0
 34
0.0
 15
0.0
 25
0.0
 35
0.0
146
0.0
 13
0.0
 23
0.0
 33
0.0
 16
1.0
 26
0.0
 36
0.0
 17
0.0
 27
1.0
 37
0.0
 76
     0
330
D6
  0
MATERIAL
  5
ED
102
{ACAD_XDICTIONARY
360
1F9
102
}
102
{ACAD_REACTORS
330
6A
102
}
330
6A
100
AcDbMaterial
  1
ByBlock
 94
       63
  0
MATERIAL
  5
EC
102
{ACAD_XDICTIONARY
360
1F7
102
}
102
{ACAD_REACTORS
330
6A
102
}
330
6A
100
AcDbMaterial
  1
ByLayer
 94
       63
  0
MATERIAL
  5
EE
102
{ACAD_XDICTIONARY
360
173
102
}
102
{ACAD_REACTORS
330
6A
102
}
330
6A
100
AcDbMaterial
  1
Global
 43
0.0007999999797903
 43
0.0
 43
0.0
 43
0.0
 43
0.0
 43
0.0007999999797903
 43
0.0
 43
0.0
 43
0.0
 43
0.0
 43
1.0
 43
0.0
 43
0.0
 43
0.0
 43
0.0
 43
1.0
 49
0.0007999999797903
 49
0.0
 49
0.0
 49
0.0
 49
0.0
 49
0.0007999999797903
 49
0.0
 49
0.0
 49
0.0
 49
0.0
 49
1.0
 49
0.0
 49
0.0
 49
0.0
 49
0.0
 49
1.0
142
0.0007999999797903
142
0.0
142
0.0
142
0.0
142
0.0
142
0.0007999999797903
142
0.0
142
0.0
142
0.0
142
0.0
142
1.0
142
0.0
142
0.0
142
0.0
142
0.0
142
1.0
144
0.0007999999797903
144
0.0
144
0.0
144
0.0
144
0.0
144
0.0007999999797903
144
0.0
144
0.0
144
0.0
144
0.0
144
1.0
144
0.0
144
0.0
144
0.0
144
0.0
144
1.0
 94
       63
1001
ACAD
1070
    -1
1070
     3
1070
     0
1000

1071
        0
1070
     0
  0
MLEADERSTYLE
  5
12E
102
{ACAD_REACTORS
330
12D
102
}
330
12D
100
AcDbMLeaderStyle
179
     2
170
     2
171
     1
172
     0
 90
        2
 40
0.0
 41
0.0
173
     1
 91
-1056964608
340
14
 92
       -2
290
     1
 42
2.0
291
     1
 43
8.0
  3
Standard
 44
4.0
300

342
11
174
     1
178
     1
175
     1
176
     0
 93
-1056964608
 45
4.0
292
     0
297
     0
 46
4.0
 94
-1056964608
 47
1.0
 49
1.0
140
1.0
293
     1
141
0.0
294
     1
177
     0
142
1.0
295
     0
296
     0
143
3.75
271
     0
272
     9
273
     9
298
     0
  0
MLEADERSTYLE
  5
13B
102
{ACAD_REACTORS
330
12D
102
}
330
12D
100
AcDbMLeaderStyle
179
     2
170
     2
171
     1
172
     0
 90
        2
 40
0.0
 41
0.0
173
     1
 91
-1056964608
340
14
 92
       -2
290
     1
 42
2.0
291
     1
 43
8.0
  3
Standard
 44
4.0
300

342
11
174
     1
178
     1
175
     1
176
     0
 93
-1056964608
 45
4.0
292
     0
297
     0
 46
4.0
 94
-1056964608
 47
1.0
 49
1.0
140
1.0
293
     1
141
0.0
294
     1
177
     0
142
1.0
295
     0
296
     1
143
3.75
271
     0
272
     9
273
     9
298
     0
  0
MLINESTYLE
  5
18
102
{ACAD_REACTORS
330
17
102
}
330
17
100
AcDbMlineStyle
  2
STANDARD
 70
     0
  3

 62
   256
 51
90.0
 52
90.0
 71
     2
 49
0.5
 62
   256
  6
BYLAYER
 49
-0.5
 62
   256
  6
BYLAYER
  0
ACDBPLACEHOLDER
  5
F
102
{ACAD_REACTORS
330
E
102
}
330
E
  0
SCALE
  5
10D
102
{ACAD_REACTORS
330
10C
102
}
330
10C
100
AcDbScale
 70
     0
300
1:1
140
1.0
141
1.0
290
     1
  0
SCALE
  5
1BE
102
{ACAD_REACTORS
330
10C
102
}
330
10C
100
AcDbScale
 70
     0
300
1:2
140
1.0
141
2.0
290
     0
  0
SCALE
  5
1BF
102
{ACAD_REACTORS
330
10C
102
}
330
10C
100
AcDbScale
 70
     0
300
1:4
140
1.0
141
4.0
290
     0
  0
SCALE
  5
1C0
102
{ACAD_REACTORS
330
10C
102
}
330
10C
100
AcDbScale
 70
     0
300
1:5
140
1.0
141
5.0
290
     0
  0
SCALE
  5
1C1
102
{ACAD_REACTORS
330
10C
102
}
330
10C
100
AcDbScale
 70
     0
300
1:8
140
1.0
141
8.0
290
     0
  0
SCALE
  5
1C2
102
{ACAD_REACTORS
330
10C
102
}
330
10C
100
AcDbScale
 70
     0
300
1:10
140
1.0
141
10.0
290
     0
  0
SCALE
  5
1C3
102
{ACAD_REACTORS
330
10C
102
}
330
10C
100
AcDbScale
 70
     0
300
1:16
140
1.0
141
16.0
290
     0
  0
SCALE
  5
1C4
102
{ACAD_REACTORS
330
10C
102
}
330
10C
100
AcDbScale
 70
     0
300
1:20
140
1.0
141
20.0
290
     0
  0
SCALE
  5
1C5
102
{ACAD_REACTORS
330
10C
102
}
330
10C
100
AcDbScale
 70
     0
300
1:30
140
1.0
141
30.0
290
     0
  0
SCALE
  5
1C6
102
{ACAD_REACTORS
330
10C
102
}
330
10C
100
AcDbScale
 70
     0
300
1:40
140
1.0
141
40.0
290
     0
  0
SCALE
  5
1C7
102
{ACAD_REACTORS
330
10C
102
}
330
10C
100
AcDbScale
 70
     0
300
1:50
140
1.0
141
50.0
290
     0
  0
SCALE
  5
1C8
102
{ACAD_REACTORS
330
10C
102
}
330
10C
100
AcDbScale
 70
     0
300
1:100
140
1.0
141
100.0
290
     0
  0
SCALE
  5
1C9
102
{ACAD_REACTORS
330
10C
102
}
330
10C
100
AcDbScale
 70
     0
300
2:1
140
2.0
141
1.0
290
     0
  0
SCALE
  5
1CA
102
{ACAD_REACTORS
330
10C
102
}
330
10C
100
AcDbScale
 70
     0
300
4:1
140
4.0
141
1.0
290
     0
  0
SCALE
  5
1CB
102
{ACAD_REACTORS
330
10C
102
}
330
10C
100
AcDbScale
 70
     0
300
8:1
140
8.0
141
1.0
290
     0
  0
SCALE
  5
1CC
102
{ACAD_REACTORS
330
10C
102
}
330
10C
100
AcDbScale
 70
     0
300
10:1
140
10.0
141
1.0
290
     0
  0
SCALE
  5
1CD
102
{ACAD_REACTORS
330
10C
102
}
330
10C
100
AcDbScale
 70
     0
300
100:1
140
100.0
141
1.0
290
     0
  0
ACDBSECTIONVIEWSTYLE
  5
21A
102
{ACAD_XDICTIONARY
360
234
102
}
102
{ACAD_REACTORS
330
219
102
}
330
219
100
AcDbModelDocViewStyle
 70
     0
  3
Metric50
290
     0
100
AcDbSectionViewStyle
 70
     0
 71
     0
 90
      102
 71
     1
340
11
 62
   256
 40
5.0
340
0
340
0
 62
   256
 40
5.0
300
I, O, Q, S, X, Z
 40
10.0
 90
        0
 40
2.5
 90
        0
 71
     2
340
16
 90
       25
 62
   256
340
16
 90
       50
 62
   256
 40
5.0
 40
2.5
 40
5.0
 71
     3
340
11
 62
   256
 40
5.0
 90
        0
 40
15.0
 90
        1
300
%<\AcVar ViewSectionStartId>%-%<\AcVar ViewSectionEndId>% (%<\AcVar ViewScale \f "%sn">%)
 71
     4
 62
   256
 62
   257
300
ANSI31
 40
1.0
 90
        0
290
     0
290
     0
 90
        6
 40
0.0
 40
1.570796326794896
 40
0.2617993877991494
 40
1.308996938995747
 40
-0.2617993877991494
 40
1.832595714594045
  0
TABLESTYLE
  5
7F
102
{ACAD_XDICTIONARY
360
162
102
}
102
{ACAD_REACTORS
330
7E
102
}
330
7E
100
AcDbTableStyle
280
     0
  3
Standard
 70
     0
 71
     0
 40
1.5
 41
1.5
280
     0
281
     0
  7
Standard
140
4.5
170
     2
 62
     0
 63
     7
283
     0
 90
      512
 91
        0
  1

274
    -2
284
     1
 64
     0
275
    -2
285
     1
 65
     0
276
    -2
286
     1
 66
     0
277
    -2
287
     1
 67
     0
278
    -2
288
     1
 68
     0
279
    -2
289
     1
 69
     0
  7
Standard
140
6.0
170
     5
 62
     0
 63
     7
283
     0
 90
      512
 91
        0
  1

274
    -2
284
     1
 64
     0
275
    -2
285
     1
 65
     0
276
    -2
286
     1
 66
     0
277
    -2
287
     1
 67
     0
278
    -2
288
     1
 68
     0
279
    -2
289
     1
 69
     0
  7
Standard
140
4.5
170
     5
 62
     0
 63
     7
283
     0
 90
      512
 91
        0
  1

274
    -2
284
     1
 64
     0
275
    -2
285
     1
 65
     0
276
    -2
286
     1
 66
     0
277
    -2
287
     1
 67
     0
278
    -2
288
     1
 68
     0
279
    -2
289
     1
 69
     0
  0
VISUALSTYLE
  5
F5
102
{ACAD_REACTORS
330
EF
102
}
330
EF
100
AcDbVisualStyle
  2
2dWireframe
 70
     4
177
     3
291
     0
 70
    58
 90
        0
176
     1
 90
        2
176
     1
 90
        1
176
     1
 90
        0
176
     1
 40
0.6
176
     1
 40
30.0
176
     1
 62
     7
420
 16777215
176
     1
 90
        1
176
     1
 90
        4
176
     1
 62
     7
176
     1
 62
   257
176
     1
 90
        1
176
     1
 90
        1
176
     1
 40
1.0
176
     1
 90
        0
176
     1
 62
   257
176
     1
 40
1.0
176
     1
 90
        1
176
     1
 90
        6
176
     1
 90
        2
176
     1
 62
     7
176
     1
 90
        5
176
     1
 90
        0
176
     1
 90
        0
176
     1
290
     0
176
     1
 90
        1
176
     1
 40
0.0
176
     1
 90
        0
176
     1
290
     1
176
     1
290
     1
176
     1
290
     0
176
     1
290
     0
176
     1
290
     0
176
     1
290
     0
176
     1
290
     0
176
     1
290
     0
176
     1
290
     0
176
     1
 90
       50
176
     1
 40
0.0
176
     1
 40
1.0
176
     1
 90
        0
176
     1
 62
    18
176
     1
 90
       50
176
     1
 90
        3
176
     1
 62
     5
420
      255
176
     1
290
     0
176
     1
 90
       50
176
     1
 90
       50
176
     1
 90
       50
176
     1
290
     0
176
     1
 90
       50
176
     1
 62
   256
176
     0
 40
1.0
176
     0
 90
        2
176
     1
  1
strokes_ogs.tif
176
     1
290
     0
176
     1
 40
1.0
176
     1
 40
1.0
176
     1
  0
VISUALSTYLE
  5
F4
102
{ACAD_REACTORS
330
EF
102
}
330
EF
100
AcDbVisualStyle
  2
Basic
 70
     7
177
     3
291
     1
 70
    58
 90
        1
176
     1
 90
        0
176
     1
 90
        1
176
     1
 90
        0
176
     1
 40
0.6
176
     1
 40
30.0
176
     1
 62
     7
420
 16777215
176
     1
 90
        0
176
     1
 90
        4
176
     1
 62
     7
176
     1
 62
   257
176
     1
 90
        1
176
     1
 90
        1
176
     1
 40
1.0
176
     1
 90
        8
176
     1
 62
     7
176
     1
 40
1.0
176
     1
 90
        1
176
     1
 90
        6
176
     1
 90
        2
176
     1
 62
     7
176
     1
 90
        5
176
     1
 90
        0
176
     1
 90
        0
176
     1
290
     0
176
     1
 90
        1
176
     1
 40
0.0
176
     1
 90
        0
176
     1
290
     0
176
     1
290
     1
176
     1
290
     1
176
     1
290
     0
176
     1
290
     0
176
     1
290
     0
176
     1
290
     0
176
     1
290
     0
176
     1
290
     0
176
     1
 90
       50
176
     1
 40
0.0
176
     1
 40
1.0
176
     1
 90
        0
176
     1
 62
    18
176
     1
 90
       50
176
     1
 90
        3
176
     1
 62
     5
420
      255
176
     1
290
     0
176
     1
 90
       50
176
     1
 90
       50
176
     1
 90
       50
176
     1
290
     0
176
     1
 90
       50
176
     1
 62
   256
176
     0
 40
1.0
176
     0
 90
        2
176
     1
  1
strokes_ogs.tif
176
     1
290
     0
176
     1
 40
1.0
176
     1
 40
1.0
176
     1
  0
VISUALSTYLE
  5
FB
102
{ACAD_REACTORS
330
EF
102
}
330
EF
100
AcDbVisualStyle
  2
Brighten
 70
    12
177
     3
291
     1
 70
    58
 90
        2
176
     1
 90
        2
176
     1
 90
        1
176
     1
 90
        0
176
     1
 40
0.6
176
     1
 40
30.0
176
     1
 62
     7
420
 16777215
176
     1
 90
        1
176
     1
 90
        4
176
     1
 62
     7
176
     1
 62
   257
176
     1
 90
        1
176
     1
 90
        1
176
     1
 40
1.0
176
     1
 90
        8
176
     1
 62
     7
176
     1
 40
1.0
176
     1
 90
        1
176
     1
 90
        6
176
     1
 90
        2
176
     1
 62
     7
176
     1
 90
        5
176
     1
 90
        0
176
     1
 90
        0
176
     1
290
     0
176
     1
 90
        1
176
     1
 40
50.0
176
     1
 90
        0
176
     1
290
     0
176
     1
290
     1
176
     1
290
     1
176
     1
290
     0
176
     1
290
     0
176
     1
290
     0
176
     1
290
     0
176
     1
290
     0
176
     1
290
     0
176
     1
 90
       50
176
     1
 40
0.0
176
     1
 40
1.0
176
     1
 90
        0
176
     1
 62
    18
176
     1
 90
       50
176
     1
 90
        3
176
     1
 62
     5
420
      255
176
     1
290
     0
176
     1
 90
       50
176
     1
 90
       50
176
     1
 90
       50
176
     1
290
     0
176
     1
 90
       50
176
     1
 62
   256
176
     0
 40
1.0
176
     0
 90
        2
176
     1
  1
strokes_ogs.tif
176
     1
290
     0
176
     1
 40
1.0
176
     1
 40
1.0
176
     1
  0
VISUALSTYLE
  5
FF
102
{ACAD_REACTORS
330
EF
102
}
330
EF
100
AcDbVisualStyle
  2
ColorChange
 70
    16
177
     3
291
     1
 70
    58
 90
        2
176
     1
 90
        2
176
     1
 90
        3
176
     1
 90
        0
176
     1
 40
0.6
176
     1
 40
30.0
176
     1
 62
     8
420
  8421504
176
     1
 90
        1
176
     1
 90
        4
176
     1
 62
     7
176
     1
 62
   257
176
     1
 90
        1
176
     1
 90
        1
176
     1
 40
1.0
176
     1
 90
        8
176
     1
 62
     8
420
  8421504
176
     1
 40
1.0
176
     1
 90
        1
176
     1
 90
        6
176
     1
 90
        2
176
     1
 62
     7
176
     1
 90
        5
176
     1
 90
        0
176
     1
 90
        0
176
     1
290
     0
176
     1
 90
        1
176
     1
 40
0.0
176
     1
 90
        0
176
     1
290
     0
176
     1
290
     1
176
     1
290
     1
176
     1
290
     0
176
     1
290
     0
176
     1
290
     0
176
     1
290
     0
176
     1
290
     0
176
     1
290
     0
176
     1
 90
       50
176
     1
 40
0.0
176
     1
 40
1.0
176
     1
 90
        0
176
     1
 62
    18
176
     1
 90
       50
176
     1
 90
        3
176
     1
 62
     5
420
      255
176
     1
290
     0
176
     1
 90
       50
176
     1
 90
       50
176
     1
 90
       50
176
     1
290
     0
176
     1
 90
       50
176
     1
 62
   256
176
     0
 40
1.0
176
     0
 90
        2
176
     1
  1
strokes_ogs.tif
176
     1
290
     0
176
     1
 40
1.0
176
     1
 40
1.0
176
     1
  0
VISUALSTYLE
  5
F8
102
{ACAD_REACTORS
330
EF
102
}
330
EF
100
AcDbVisualStyle
  2
Conceptual
 70
     9
177
     3
291
     0
 70
    58
 90
        3
176
     1
 90
        2
176
     1
 90
        1
176
     1
 90
        0
176
     1
 40
0.6
176
     1
 40
30.0
176
     1
 62
     7
420
 16777215
176
     1
 90
        2
176
     1
 90
        2
176
     1
 62
     7
176
     1
 62
   257
176
     1
 90
        1
176
     1
 90
        1
176
     1
 40
40.0
176
     1
 90
        8
176
     1
 62
     7
176
     1
 40
1.0
176
     1
 90
        1
176
     1
 90
        6
176
     1
 90
        2
176
     1
 62
     7
176
     1
 90
        3
176
     1
 90
        0
176
     1
 90
        0
176
     1
290
     0
176
     1
 90
        1
176
     1
 40
0.0
176
     1
 90
        0
176
     1
290
     0
176
     1
290
     1
176
     1
290
     1
176
     1
290
     0
176
     1
290
     0
176
     1
290
     0
176
     1
290
     0
176
     1
290
     0
176
     1
290
     0
176
     1
 90
       50
176
     1
 40
0.0
176
     1
 40
1.0
176
     1
 90
        0
176
     1
 62
    18
176
     1
 90
       50
176
     1
 90
        3
176
     1
 62
     5
420
      255
176
     1
290
     0
176
     1
 90
       50
176
     1
 90
       50
176
     1
 90
       50
176
     1
290
     0
176
     1
 90
       50
176
     1
 62
   256
176
     0
 40
1.0
176
     0
 90
        2
176
     1
  1
strokes_ogs.tif
176
     1
290
     0
176
     1
 40
1.0
176
     1
 40
1.0
176
     1
  0
VISUALSTYLE
  5
FA
102
{ACAD_REACTORS
330
EF
102
}
330
EF
100
AcDbVisualStyle
  2
Dim
 70
    11
177
     3
291
     1
 70
    58
 90
        2
176
     1
 90
        2
176
     1
 90
        1
176
     1
 90
        0
176
     1
 40
0.6
176
     1
 40
30.0
176
     1
 62
     7
420
 16777215
176
     1
 90
        1
176
     1
 90
        4
176
     1
 62
     7
176
     1
 62
   257
176
     1
 90
        1
176
     1
 90
        1
176
     1
 40
1.0
176
     1
 90
        8
176
     1
 62
     7
176
     1
 40
1.0
176
     1
 90
        1
176
     1
 90
        6
176
     1
 90
        2
176
     1
 62
     7
176
     1
 90
        5
176
     1
 90
        0
176
     1
 90
        0
176
     1
290
     0
176
     1
 90
        1
176
     1
 40
-50.0
176
     1
 90
        0
176
     1
290
     0
176
     1
290
     1
176
     1
290
     1
176
     1
290
     0
176
     1
290
     0
176
     1
290
     0
176
     1
290
     0
176
     1
290
     0
176
     1
290
     0
176
     1
 90
       50
176
     1
 40
0.0
176
     1
 40
1.0
176
     1
 90
        0
176
     1
 62
    18
176
     1
 90
       50
176
     1
 90
        3
176
     1
 62
     5
420
      255
176
     1
290
     0
176
     1
 90
       50
176
     1
 90
       50
176
     1
 90
       50
176
     1
290
     0
176
     1
 90
       50
176
     1
 62
   256
176
     0
 40
1.0
176
     0
 90
        2
176
     1
  1
strokes_ogs.tif
176
     1
290
     0
176
     1
 40
1.0
176
     1
 40
1.0
176
     1
  0
VISUALSTYLE
  5
1E6
102
{ACAD_REACTORS
330
EF
102
}
330
EF
100
AcDbVisualStyle
  2
EdgeColorOff
 70
    22
177
     3
291
     1
 70
    58
 90
        2
176
     0
 90
        2
176
     0
 90
        0
176
     0
 90
        0
176
     0
 40
0.6
176
     0
 40
30.0
176
     0
 62
     7
420
 16777215
176
     0
 90
        1
176
     0
 90
        4
176
     0
 62
     7
176
     0
 62
   257
176
     0
 90
        1
176
     0
 90
        1
176
     0
 40
1.0
176
     0
 90
        8
176
     2
 62
     7
176
     0
 40
1.0
176
     0
 90
        1
176
     0
 90
        6
176
     0
 90
        2
176
     0
 62
     7
176
     0
 90
        5
176
     0
 90
        0
176
     0
 90
        0
176
     0
290
     0
176
     0
 90
        1
176
     0
 40
0.0
176
     0
 90
        0
176
     0
290
     0
176
     1
290
     1
176
     1
290
     1
176
     1
290
     0
176
     1
290
     0
176
     1
290
     0
176
     1
290
     0
176
     1
290
     0
176
     1
290
     0
176
     1
 90
       50
176
     1
 40
0.0
176
     1
 40
1.0
176
     1
 90
        0
176
     1
 62
    18
176
     1
 90
       50
176
     1
 90
        3
176
     1
 62
     5
420
      255
176
     1
290
     0
176
     1
 90
       50
176
     1
 90
       50
176
     1
 90
       50
176
     1
290
     0
176
     1
 90
       50
176
     1
 62
   256
176
     0
 40
1.0
176
     0
 90
        2
176
     1
  1
strokes_ogs.tif
176
     1
290
     0
176
     1
 40
1.0
176
     1
 40
1.0
176
     1
  0
VISUALSTYLE
  5
FE
102
{ACAD_REACTORS
330
EF
102
}
330
EF
100
AcDbVisualStyle
  2
Facepattern
 70
    15
177
     3
291
     1
 70
    58
 90
        2
176
     1
 90
        2
176
     1
 90
        1
176
     1
 90
        0
176
     1
 40
0.6
176
     1
 40
30.0
176
     1
 62
     7
420
 16777215
176
     1
 90
        1
176
     1
 90
        4
176
     1
 62
     7
176
     1
 62
   257
176
     1
 90
        1
176
     1
 90
        1
176
     1
 40
1.0
176
     1
 90
        8
176
     1
 62
     7
176
     1
 40
1.0
176
     1
 90
        1
176
     1
 90
        6
176
     1
 90
        2
176
     1
 62
     7
176
     1
 90
        5
176
     1
 90
        0
176
     1
 90
        0
176
     1
290
     0
176
     1
 90
        1
176
     1
 40
0.0
176
     1
 90
        0
176
     1
290
     0
176
     1
290
     1
176
     1
290
     1
176
     1
290
     0
176
     1
290
     0
176
     1
290
     0
176
     1
290
     0
176
     1
290
     0
176
     1
290
     0
176
     1
 90
       50
176
     1
 40
0.0
176
     1
 40
1.0
176
     1
 90
        0
176
     1
 62
    18
176
     1
 90
       50
176
     1
 90
        3
176
     1
 62
     5
420
      255
176
     1
290
     0
176
     1
 90
       50
176
     1
 90
       50
176
     1
 90
       50
176
     1
290
     0
176
     1
 90
       50
176
     1
 62
   256
176
     0
 40
1.0
176
     0
 90
        2
176
     1
  1
strokes_ogs.tif
176
     1
290
     0
176
     1
 40
1.0
176
     1
 40
1.0
176
     1
  0
VISUALSTYLE
  5
F0
102
{ACAD_REACTORS
330
EF
102
}
330
EF
100
AcDbVisualStyle
  2
Flat
 70
     0
177
     3
291
     1
 70
    58
 90
        2
176
     1
 90
        1
176
     1
 90
        1
176
     1
 90
        2
176
     1
 40
0.6
176
     1
 40
30.0
176
     1
 62
     7
420
 16777215
176
     1
 90
        0
176
     1
 90
        0
176
     1
 62
     7
176
     1
 62
   257
176
     1
 90
        1
176
     1
 90
        1
176
     1
 40
1.0
176
     1
 90
        8
176
     1
 62
     7
176
     1
 40
1.0
176
     1
 90
        1
176
     1
 90
        6
176
     1
 90
        2
176
     1
 62
     7
176
     1
 90
        5
176
     1
 90
        0
176
     1
 90
        0
176
     1
290
     0
176
     1
 90
       13
176
     1
 40
0.0
176
     1
 90
        0
176
     1
290
     0
176
     1
290
     1
176
     1
290
     1
176
     1
290
     0
176
     1
290
     0
176
     1
290
     0
176
     1
290
     0
176
     1
290
     0
176
     1
290
     0
176
     1
 90
       50
176
     1
 40
0.0
176
     1
 40
1.0
176
     1
 90
        0
176
     1
 62
    18
176
     1
 90
       50
176
     1
 90
        3
176
     1
 62
     5
420
      255
176
     1
290
     0
176
     1
 90
       50
176
     1
 90
       50
176
     1
 90
       50
176
     1
290
     0
176
     1
 90
       50
176
     1
 62
   256
176
     0
 40
1.0
176
     0
 90
        2
176
     1
  1
strokes_ogs.tif
176
     1
290
     0
176
     1
 40
1.0
176
     1
 40
1.0
176
     1
  0
VISUALSTYLE
  5
F1
102
{ACAD_REACTORS
330
EF
102
}
330
EF
100
AcDbVisualStyle
  2
FlatWithEdges
 70
     1
177
     3
291
     1
 70
    58
 90
        2
176
     1
 90
        1
176
     1
 90
        1
176
     1
 90
        2
176
     1
 40
0.6
176
     1
 40
30.0
176
     1
 62
     7
420
 16777215
176
     1
 90
        1
176
     1
 90
        0
176
     1
 62
     7
176
     1
 62
   257
176
     1
 90
        1
176
     1
 90
        1
176
     1
 40
1.0
176
     1
 90
        0
176
     1
 62
   257
176
     1
 40
1.0
176
     1
 90
        1
176
     1
 90
        6
176
     1
 90
        2
176
     1
 62
     7
176
     1
 90
        5
176
     1
 90
        0
176
     1
 90
        0
176
     1
290
     0
176
     1
 90
       13
176
     1
 40
0.0
176
     1
 90
        0
176
     1
290
     0
176
     1
290
     1
176
     1
290
     1
176
     1
290
     0
176
     1
290
     0
176
     1
290
     0
176
     1
290
     0
176
     1
290
     0
176
     1
290
     0
176
     1
 90
       50
176
     1
 40
0.0
176
     1
 40
1.0
176
     1
 90
        0
176
     1
 62
    18
176
     1
 90
       50
176
     1
 90
        3
176
     1
 62
     5
420
      255
176
     1
290
     0
176
     1
 90
       50
176
     1
 90
       50
176
     1
 90
       50
176
     1
290
     0
176
     1
 90
       50
176
     1
 62
   256
176
     0
 40
1.0
176
     0
 90
        2
176
     1
  1
strokes_ogs.tif
176
     1
290
     0
176
     1
 40
1.0
176
     1
 40
1.0
176
     1
  0
VISUALSTYLE
  5
F2
102
{ACAD_REACTORS
330
EF
102
}
330
EF
100
AcDbVisualStyle
  2
Gouraud
 70
     2
177
     3
291
     1
 70
    58
 90
        2
176
     1
 90
        2
176
     1
 90
        1
176
     1
 90
        2
176
     1
 40
0.6
176
     1
 40
30.0
176
     1
 62
     7
420
 16777215
176
     1
 90
        0
176
     1
 90
        0
176
     1
 62
     7
176
     1
 62
   257
176
     1
 90
        1
176
     1
 90
        1
176
     1
 40
1.0
176
     1
 90
        0
176
     1
 62
     7
176
     1
 40
1.0
176
     1
 90
        1
176
     1
 90
        6
176
     1
 90
        2
176
     1
 62
     7
176
     1
 90
        5
176
     1
 90
        0
176
     1
 90
        0
176
     1
290
     0
176
     1
 90
       13
176
     1
 40
0.0
176
     1
 90
        0
176
     1
290
     0
176
     1
290
     1
176
     1
290
     1
176
     1
290
     0
176
     1
290
     0
176
     1
290
     0
176
     1
290
     0
176
     1
290
     0
176
     1
290
     0
176
     1
 90
       50
176
     1
 40
0.0
176
     1
 40
1.0
176
     1
 90
        0
176
     1
 62
    18
176
     1
 90
       50
176
     1
 90
        3
176
     1
 62
     5
420
      255
176
     1
290
     0
176
     1
 90
       50
176
     1
 90
       50
176
     1
 90
       50
176
     1
290
     0
176
     1
 90
       50
176
     1
 62
   256
176
     0
 40
1.0
176
     0
 90
        2
176
     1
  1
strokes_ogs.tif
176
     1
290
     0
176
     1
 40
1.0
176
     1
 40
1.0
176
     1
  0
VISUALSTYLE
  5
F3
102
{ACAD_REACTORS
330
EF
102
}
330
EF
100
AcDbVisualStyle
  2
GouraudWithEdges
 70
     3
177
     3
291
     1
 70
    58
 90
        2
176
     1
 90
        2
176
     1
 90
        1
176
     1
 90
        2
176
     1
 40
0.6
176
     1
 40
30.0
176
     1
 62
     7
420
 16777215
176
     1
 90
        1
176
     1
 90
        0
176
     1
 62
     7
176
     1
 62
   257
176
     1
 90
        1
176
     1
 90
        1
176
     1
 40
1.0
176
     1
 90
        0
176
     1
 62
   257
176
     1
 40
1.0
176
     1
 90
        1
176
     1
 90
        6
176
     1
 90
        2
176
     1
 62
     7
176
     1
 90
        5
176
     1
 90
        0
176
     1
 90
        0
176
     1
290
     0
176
     1
 90
       13
176
     1
 40
0.0
176
     1
 90
        0
176
     1
290
     0
176
     1
290
     1
176
     1
290
     1
176
     1
290
     0
176
     1
290
     0
176
     1
290
     0
176
     1
290
     0
176
     1
290
     0
176
     1
290
     0
176
     1
 90
       50
176
     1
 40
0.0
176
     1
 40
1.0
176
     1
 90
        0
176
     1
 62
    18
176
     1
 90
       50
176
     1
 90
        3
176
     1
 62
     5
420
      255
176
     1
290
     0
176
     1
 90
       50
176
     1
 90
       50
176
     1
 90
       50
176
     1
290
     0
176
     1
 90
       50
176
     1
 62
   256
176
     0
 40
1.0
176
     0
 90
        2
176
     1
  1
strokes_ogs.tif
176
     1
290
     0
176
     1
 40
1.0
176
     1
 40
1.0
176
     1
  0
VISUALSTYLE
  5
F7
102
{ACAD_REACTORS
330
EF
102
}
330
EF
100
AcDbVisualStyle
  2
Hidden
 70
     6
177
     3
291
     0
 70
    58
 90
        1
176
     1
 90
        2
176
     1
 90
        2
176
     1
 90
        0
176
     1
 40
0.6
176
     1
 40
30.0
176
     1
 62
     7
420
 16777215
176
     1
 90
        2
176
     1
 90
        2
176
     1
 62
     7
176
     1
 62
   257
176
     1
 90
        2
176
     1
 90
        1
176
     1
 40
40.0
176
     1
 90
        0
176
     1
 62
   257
176
     1
 40
1.0
176
     1
 90
        1
176
     1
 90
        6
176
     1
 90
        2
176
     1
 62
     7
176
     1
 90
        3
176
     1
 90
        0
176
     1
 90
        0
176
     1
290
     0
176
     1
 90
        1
176
     1
 40
0.0
176
     1
 90
        0
176
     1
290
     0
176
     1
290
     1
176
     1
290
     1
176
     1
290
     0
176
     1
290
     0
176
     1
290
     0
176
     1
290
     0
176
     1
290
     0
176
     1
290
     0
176
     1
 90
       50
176
     1
 40
0.0
176
     1
 40
1.0
176
     1
 90
        0
176
     1
 62
    18
176
     1
 90
       50
176
     1
 90
        3
176
     1
 62
     5
420
      255
176
     1
290
     0
176
     1
 90
       50
176
     1
 90
       50
176
     1
 90
       50
176
     1
290
     0
176
     1
 90
       50
176
     1
 62
   256
176
     0
 40
1.0
176
     0
 90
        2
176
     1
  1
strokes_ogs.tif
176
     1
290
     0
176
     1
 40
1.0
176
     1
 40
1.0
176
     1
  0
VISUALSTYLE
  5
1E4
102
{ACAD_REACTORS
330
EF
102
}
330
EF
100
AcDbVisualStyle
  2
JitterOff
 70
    20
177
     3
291
     1
 70
    58
 90
        2
176
     0
 90
        2
176
     0
 90
        0
176
     0
 90
        0
176
     0
 40
0.6
176
     0
 40
30.0
176
     0
 62
     7
420
 16777215
176
     0
 90
        1
176
     0
 90
        4
176
     0
 62
     7
176
     0
 62
   257
176
     0
 90
        1
176
     0
 90
        1
176
     0
 40
1.0
176
     0
 90
       10
176
     2
 62
     7
176
     0
 40
1.0
176
     0
 90
        1
176
     0
 90
        6
176
     0
 90
        2
176
     0
 62
     7
176
     0
 90
        5
176
     0
 90
        0
176
     0
 90
        0
176
     0
290
     0
176
     0
 90
        1
176
     0
 40
0.0
176
     0
 90
        0
176
     0
290
     0
176
     1
290
     1
176
     1
290
     1
176
     1
290
     0
176
     1
290
     0
176
     1
290
     0
176
     1
290
     0
176
     1
290
     0
176
     1
290
     0
176
     1
 90
       50
176
     1
 40
0.0
176
     1
 40
1.0
176
     1
 90
        0
176
     1
 62
    18
176
     1
 90
       50
176
     1
 90
        3
176
     1
 62
     5
420
      255
176
     1
290
     0
176
     1
 90
       50
176
     1
 90
       50
176
     1
 90
       50
176
     1
290
     0
176
     1
 90
       50
176
     1
 62
   256
176
     0
 40
1.0
176
     0
 90
        2
176
     1
  1
strokes_ogs.tif
176
     1
290
     0
176
     1
 40
1.0
176
     1
 40
1.0
176
     1
  0
VISUALSTYLE
  5
FD
102
{ACAD_REACTORS
330
EF
102
}
330
EF
100
AcDbVisualStyle
  2
Linepattern
 70
    14
177
     3
291
     1
 70
    58
 90
        2
176
     1
 90
        2
176
     1
 90
        1
176
     1
 90
        0
176
     1
 40
0.6
176
     1
 40
30.0
176
     1
 62
     7
420
 16777215
176
     1
 90
        1
176
     1
 90
        4
176
     1
 62
     7
176
     1
 62
   257
176
     1
 90
        7
176
     1
 90
        7
176
     1
 40
1.0
176
     1
 90
        8
176
     1
 62
     7
176
     1
 40
1.0
176
     1
 90
        1
176
     1
 90
        6
176
     1
 90
        2
176
     1
 62
     7
176
     1
 90
        5
176
     1
 90
        0
176
     1
 90
        0
176
     1
290
     0
176
     1
 90
        1
176
     1
 40
0.0
176
     1
 90
        0
176
     1
290
     0
176
     1
290
     1
176
     1
290
     1
176
     1
290
     0
176
     1
290
     0
176
     1
290
     0
176
     1
290
     0
176
     1
290
     0
176
     1
290
     0
176
     1
 90
       50
176
     1
 40
0.0
176
     1
 40
1.0
176
     1
 90
        0
176
     1
 62
    18
176
     1
 90
       50
176
     1
 90
        3
176
     1
 62
     5
420
      255
176
     1
290
     0
176
     1
 90
       50
176
     1
 90
       50
176
     1
 90
       50
176
     1
290
     0
176
     1
 90
       50
176
     1
 62
   256
176
     0
 40
1.0
176
     0
 90
        2
176
     1
  1
strokes_ogs.tif
176
     1
290
     0
176
     1
 40
1.0
176
     1
 40
1.0
176
     1
  0
VISUALSTYLE
  5
1E5
102
{ACAD_REACTORS
330
EF
102
}
330
EF
100
AcDbVisualStyle
  2
OverhangOff
 70
    21
177
     3
291
     1
 70
    58
 90
        2
176
     0
 90
        2
176
     0
 90
        0
176
     0
 90
        0
176
     0
 40
0.6
176
     0
 40
30.0
176
     0
 62
     7
420
 16777215
176
     0
 90
        1
176
     0
 90
        4
176
     0
 62
     7
176
     0
 62
   257
176
     0
 90
        1
176
     0
 90
        1
176
     0
 40
1.0
176
     0
 90
        9
176
     2
 62
     7
176
     0
 40
1.0
176
     0
 90
        1
176
     0
 90
        6
176
     0
 90
        2
176
     0
 62
     7
176
     0
 90
        5
176
     0
 90
        0
176
     0
 90
        0
176
     0
290
     0
176
     0
 90
        1
176
     0
 40
0.0
176
     0
 90
        0
176
     0
290
     0
176
     1
290
     1
176
     1
290
     1
176
     1
290
     0
176
     1
290
     0
176
     1
290
     0
176
     1
290
     0
176
     1
290
     0
176
     1
290
     0
176
     1
 90
       50
176
     1
 40
0.0
176
     1
 40
1.0
176
     1
 90
        0
176
     1
 62
    18
176
     1
 90
       50
176
     1
 90
        3
176
     1
 62
     5
420
      255
176
     1
290
     0
176
     1
 90
       50
176
     1
 90
       50
176
     1
 90
       50
176
     1
290
     0
176
     1
 90
       50
176
     1
 62
   256
176
     0
 40
1.0
176
     0
 90
        2
176
     1
  1
strokes_ogs.tif
176
     1
290
     0
176
     1
 40
1.0
176
     1
 40
1.0
176
     1
  0
VISUALSTYLE
  5
F9
102
{ACAD_REACTORS
330
EF
102
}
330
EF
100
AcDbVisualStyle
  2
Realistic
 70
     8
177
     3
291
     0
 70
    58
 90
        2
176
     1
 90
        3
176
     1
 90
        0
176
     1
 90
        2
176
     1
 40
0.6
176
     1
 40
30.0
176
     1
 62
     7
420
 16777215
176
     1
 90
        0
176
     1
 90
        0
176
     1
 62
     7
176
     1
 62
   257
176
     1
 90
        1
176
     1
 90
        1
176
     1
 40
1.0
176
     1
 90
        8
176
     1
 62
   257
176
     1
 40
1.0
176
     1
 90
        1
176
     1
 90
        6
176
     1
 90
        2
176
     1
 62
     7
176
     1
 90
        3
176
     1
 90
        0
176
     1
 90
        0
176
     1
290
     0
176
     1
 90
       13
176
     1
 40
0.0
176
     1
 90
        0
176
     1
290
     0
176
     1
290
     1
176
     1
290
     1
176
     1
290
     0
176
     1
290
     0
176
     1
290
     0
176
     1
290
     0
176
     1
290
     0
176
     1
290
     0
176
     1
 90
       50
176
     1
 40
0.0
176
     1
 40
1.0
176
     1
 90
        0
176
     1
 62
    18
176
     1
 90
       50
176
     1
 90
        3
176
     1
 62
     5
420
      255
176
     1
290
     0
176
     1
 90
       50
176
     1
 90
       50
176
     1
 90
       50
176
     1
290
     0
176
     1
 90
       50
176
     1
 62
   256
176
     0
 40
1.0
176
     0
 90
        2
176
     1
  1
strokes_ogs.tif
176
     1
290
     0
176
     1
 40
1.0
176
     1
 40
1.0
176
     1
  0
VISUALSTYLE
  5
1F3
102
{ACAD_REACTORS
330
EF
102
}
330
EF
100
AcDbVisualStyle
  2
Shaded
 70
    27
177
     3
291
     0
 70
    58
 90
        2
176
     1
 90
        2
176
     1
 90
        1
176
     1
 90
        2
176
     1
 40
0.6
176
     1
 40
30.0
176
     1
 62
     7
420
 16777215
176
     1
 90
        0
176
     1
 90
        4
176
     1
 62
     7
176
     1
 62
   257
176
     1
 90
        1
176
     1
 90
        1
176
     1
 40
1.0
176
     1
 90
        8
176
     1
 62
   257
176
     1
 40
1.0
176
     1
 90
        1
176
     1
 90
        6
176
     1
 90
        2
176
     1
 62
     8
420
  7895160
176
     1
 90
        3
176
     1
 90
        0
176
     1
 90
        0
176
     1
290
     0
176
     1
 90
        5
176
     1
 40
0.0
176
     1
 90
        0
176
     1
290
     0
176
     1
290
     1
176
     1
290
     1
176
     1
290
     0
176
     1
290
     0
176
     1
290
     0
176
     1
290
     0
176
     1
290
     0
176
     1
290
     0
176
     1
 90
       50
176
     1
 40
0.0
176
     1
 40
1.0
176
     1
 90
        0
176
     1
 62
    18
176
     1
 90
       50
176
     1
 90
        3
176
     1
 62
     5
420
      255
176
     1
290
     0
176
     1
 90
       50
176
     1
 90
       50
176
     1
 90
       50
176
     1
290
     0
176
     1
 90
       50
176
     1
 62
   256
176
     0
 40
1.0
176
     0
 90
        2
176
     1
  1
strokes_ogs.tif
176
     1
290
     0
176
     1
 40
1.0
176
     1
 40
1.0
176
     1
  0
VISUALSTYLE
  5
1F2
102
{ACAD_REACTORS
330
EF
102
}
330
EF
100
AcDbVisualStyle
  2
Shaded with edges
 70
    26
177
     3
291
     0
 70
    58
 90
        2
176
     1
 90
        2
176
     1
 90
        1
176
     1
 90
        2
176
     1
 40
0.6
176
     1
 40
30.0
176
     1
 62
     7
420
 16777215
176
     1
 90
        1
176
     1
 90
       10
176
     1
 62
     7
176
     1
 62
   257
176
     1
 90
        2
176
     1
 90
        1
176
     1
 40
1.0
176
     1
 90
        8
176
     1
 62
   257
176
     1
 40
1.0
176
     1
 90
        1
176
     1
 90
        6
176
     1
 90
        2
176
     1
 62
     7
176
     1
 90
        3
176
     1
 90
        0
176
     1
 90
        0
176
     1
290
     0
176
     1
 90
        5
176
     1
 40
0.0
176
     1
 90
        0
176
     1
290
     0
176
     1
290
     1
176
     1
290
     1
176
     1
290
     0
176
     1
290
     0
176
     1
290
     0
176
     1
290
     0
176
     1
290
     0
176
     1
290
     0
176
     1
 90
       50
176
     1
 40
0.0
176
     1
 40
1.0
176
     1
 90
        0
176
     1
 62
    18
176
     1
 90
       50
176
     1
 90
        3
176
     1
 62
     5
420
      255
176
     1
290
     0
176
     1
 90
       50
176
     1
 90
       50
176
     1
 90
       50
176
     1
290
     0
176
     1
 90
       50
176
     1
 62
   256
176
     0
 40
1.0
176
     0
 90
        2
176
     1
  1
strokes_ogs.tif
176
     1
290
     0
176
     1
 40
1.0
176
     1
 40
1.0
176
     1
  0
VISUALSTYLE
  5
1EF
102
{ACAD_REACTORS
330
EF
102
}
330
EF
100
AcDbVisualStyle
  2
Shades of Gray
 70
    23
177
     3
291
     0
 70
    58
 90
        2
176
     1
 90
        2
176
     1
 90
        3
176
     1
 90
        0
176
     1
 40
0.6
176
     1
 40
30.0
176
     1
 62
     7
420
 16777215
176
     1
 90
        2
176
     1
 90
        2
176
     1
 62
     7
176
     1
 62
     7
176
     1
 90
        1
176
     1
 90
        1
176
     1
 40
40.0
176
     1
 90
        8
176
     1
 62
     7
176
     1
 40
1.0
176
     1
 90
        1
176
     1
 90
        6
176
     1
 90
        2
176
     1
 62
     7
176
     1
 90
        3
176
     1
 90
        0
176
     1
 90
        0
176
     1
290
     0
176
     1
 90
        1
176
     1
 40
0.0
176
     1
 90
        0
176
     1
290
     0
176
     1
290
     1
176
     1
290
     1
176
     1
290
     0
176
     1
290
     0
176
     1
290
     0
176
     1
290
     0
176
     1
290
     0
176
     1
290
     0
176
     1
 90
       50
176
     1
 40
0.0
176
     1
 40
1.0
176
     1
 90
        0
176
     1
 62
    18
176
     1
 90
       50
176
     1
 90
        3
176
     1
 62
     5
420
      255
176
     1
290
     0
176
     1
 90
       50
176
     1
 90
       50
176
     1
 90
       50
176
     1
290
     0
176
     1
 90
       50
176
     1
 62
   256
176
     0
 40
1.0
176
     0
 90
        2
176
     1
  1
strokes_ogs.tif
176
     1
290
     0
176
     1
 40
1.0
176
     1
 40
1.0
176
     1
  0
VISUALSTYLE
  5
1F0
102
{ACAD_REACTORS
330
EF
102
}
330
EF
100
AcDbVisualStyle
  2
Sketchy
 70
    24
177
     3
291
     0
 70
    58
 90
        1
176
     1
 90
        2
176
     1
 90
        2
176
     1
 90
        0
176
     1
 40
0.6
176
     1
 40
30.0
176
     1
 62
     7
420
 16777215
176
     1
 90
        2
176
     1
 90
        2
176
     1
 62
     7
176
     1
 62
     7
176
     1
 90
        1
176
     1
 90
        1
176
     1
 40
40.0
176
     1
 90
       11
176
     1
 62
     7
176
     1
 40
1.0
176
     1
 90
        1
176
     1
 90
        6
176
     1
 90
        2
176
     1
 62
     7
176
     1
 90
        6
176
     1
 90
        0
176
     1
 90
        0
176
     1
290
     0
176
     1
 90
        1
176
     1
 40
0.0
176
     1
 90
        0
176
     1
290
     0
176
     1
290
     1
176
     1
290
     1
176
     1
290
     0
176
     1
290
     0
176
     1
290
     0
176
     1
290
     0
176
     1
290
     0
176
     1
290
     0
176
     1
 90
       50
176
     1
 40
0.0
176
     1
 40
1.0
176
     1
 90
        0
176
     1
 62
    18
176
     1
 90
       50
176
     1
 90
        3
176
     1
 62
     5
420
      255
176
     1
290
     0
176
     1
 90
       50
176
     1
 90
       50
176
     1
 90
       50
176
     1
290
     0
176
     1
 90
       50
176
     1
 62
   256
176
     0
 40
1.0
176
     0
 90
        2
176
     1
  1
strokes_ogs.tif
176
     1
290
     0
176
     1
 40
1.0
176
     1
 40
1.0
176
     1
  0
VISUALSTYLE
  5
FC
102
{ACAD_REACTORS
330
EF
102
}
330
EF
100
AcDbVisualStyle
  2
Thicken
 70
    13
177
     3
291
     1
 70
    58
 90
        2
176
     1
 90
        2
176
     1
 90
        1
176
     1
 90
        0
176
     1
 40
0.6
176
     1
 40
30.0
176
     1
 62
     7
420
 16777215
176
     1
 90
        1
176
     1
 90
        4
176
     1
 62
     7
176
     1
 62
   257
176
     1
 90
        1
176
     1
 90
        1
176
     1
 40
1.0
176
     1
 90
       12
176
     1
 62
     7
176
     1
 40
1.0
176
     1
 90
        1
176
     1
 90
        6
176
     1
 90
        2
176
     1
 62
     7
176
     1
 90
        5
176
     1
 90
        0
176
     1
 90
        0
176
     1
290
     0
176
     1
 90
        1
176
     1
 40
0.0
176
     1
 90
        0
176
     1
290
     0
176
     1
290
     1
176
     1
290
     1
176
     1
290
     0
176
     1
290
     0
176
     1
290
     0
176
     1
290
     0
176
     1
290
     0
176
     1
290
     0
176
     1
 90
       50
176
     1
 40
0.0
176
     1
 40
1.0
176
     1
 90
        0
176
     1
 62
    18
176
     1
 90
       50
176
     1
 90
        3
176
     1
 62
     5
420
      255
176
     1
290
     0
176
     1
 90
       50
176
     1
 90
       50
176
     1
 90
       50
176
     1
290
     0
176
     1
 90
       50
176
     1
 62
   256
176
     0
 40
1.0
176
     0
 90
        2
176
     1
  1
strokes_ogs.tif
176
     1
290
     0
176
     1
 40
1.0
176
     1
 40
1.0
176
     1
  0
VISUALSTYLE
  5
F6
102
{ACAD_REACTORS
330
EF
102
}
330
EF
100
AcDbVisualStyle
  2
Wireframe
 70
     5
177
     3
291
     0
 70
    58
 90
        0
176
     1
 90
        2
176
     1
 90
        0
176
     1
 90
        0
176
     1
 40
0.6
176
     1
 40
30.0
176
     1
 62
     7
420
 16777215
176
     1
 90
        1
176
     1
 90
        4
176
     1
 62
     7
176
     1
 62
   257
176
     1
 90
        1
176
     1
 90
        1
176
     1
 40
1.0
176
     1
 90
        0
176
     1
 62
   257
176
     1
 40
1.0
176
     1
 90
        1
176
     1
 90
        6
176
     1
 90
        2
176
     1
 62
     7
176
     1
 90
        3
176
     1
 90
        0
176
     1
 90
        0
176
     1
290
     0
176
     1
 90
        1
176
     1
 40
0.0
176
     1
 90
        0
176
     1
290
     0
176
     1
290
     1
176
     1
290
     1
176
     1
290
     0
176
     1
290
     0
176
     1
290
     0
176
     1
290
     0
176
     1
290
     0
176
     1
290
     0
176
     1
 90
       50
176
     1
 40
0.0
176
     1
 40
1.0
176
     1
 90
        0
176
     1
 62
    18
176
     1
 90
       50
176
     1
 90
        3
176
     1
 62
     5
420
      255
176
     1
290
     0
176
     1
 90
       50
176
     1
 90
       50
176
     1
 90
       50
176
     1
290
     0
176
     1
 90
       50
176
     1
 62
   256
176
     0
 40
1.0
176
     0
 90
        2
176
     1
  1
strokes_ogs.tif
176
     1
290
     0
176
     1
 40
1.0
176
     1
 40
1.0
176
     1
  0
VISUALSTYLE
  5
1F1
102
{ACAD_REACTORS
330
EF
102
}
330
EF
100
AcDbVisualStyle
  2
X-Ray
 70
    25
177
     3
291
     0
 70
    58
 90
        2
176
     1
 90
        2
176
     1
 90
        1
176
     1
 90
        1
176
     1
 40
0.5
176
     1
 40
30.0
176
     1
 62
     7
420
 16777215
176
     1
 90
        1
176
     1
 90
        0
176
     1
 62
     7
176
     1
 62
   257
176
     1
 90
        1
176
     1
 90
        1
176
     1
 40
1.0
176
     1
 90
        8
176
     1
 62
     7
176
     1
 40
1.0
176
     1
 90
        1
176
     1
 90
        6
176
     1
 90
        2
176
     1
 62
     7
176
     1
 90
        3
176
     1
 90
        0
176
     1
 90
        0
176
     1
290
     0
176
     1
 90
       13
176
     1
 40
0.0
176
     1
 90
        0
176
     1
290
     0
176
     1
290
     1
176
     1
290
     1
176
     1
290
     0
176
     1
290
     0
176
     1
290
     0
176
     1
290
     0
176
     1
290
     0
176
     1
290
     0
176
     1
 90
       50
176
     1
 40
0.0
176
     1
 40
1.0
176
     1
 90
        0
176
     1
 62
    18
176
     1
 90
       50
176
     1
 90
        3
176
     1
 62
     5
420
      255
176
     1
290
     0
176
     1
 90
       50
176
     1
 90
       50
176
     1
 90
       50
176
     1
290
     0
176
     1
 90
       50
176
     1
 62
   256
176
     0
 40
1.0
176
     0
 90
        2
176
     1
  1
strokes_ogs.tif
176
     1
290
     0
176
     1
 40
1.0
176
     1
 40
1.0
176
     1
  0
DICTIONARYVAR
  5
146
102
{ACAD_REACTORS
330
5E
102
}
330
5E
100
DictionaryVariables
280
     0
  1
1:1
  0
DICTIONARYVAR
  5
145
102
{ACAD_REACTORS
330
5E
102
}
330
5E
100
DictionaryVariables
280
     0
  1
STANDARD
  0
DICTIONARYVAR
  5
84
102
{ACAD_REACTORS
330
5E
102
}
330
5E
100
DictionaryVariables
280
     0
  1
STANDARD
  0
DICTIONARYVAR
  5
227
102
{ACAD_REACTORS
330
5E
102
}
330
5E
100
DictionaryVariables
280
     0
  1
Metric50
  0
DICTIONARYVAR
  5
228
102
{ACAD_REACTORS
330
5E
102
}
330
5E
100
DictionaryVariables
280
     0
  1
Metric50
  0
DICTIONARYVAR
  5
5F
102
{ACAD_REACTORS
330
5E
102
}
330
5E
100
DictionaryVariables
280
     0
  1
2
  0
DICTIONARYVAR
  5
63
102
{ACAD_REACTORS
330
5E
102
}
330
5E
100
DictionaryVariables
280
     0
  1
1
  0
DICTIONARYVAR
  5
1AE
102
{ACAD_REACTORS
330
5E
102
}
330
5E
100
DictionaryVariables
280
     0
  1
0
  0
DICTIONARYVAR
  5
1AF
102
{ACAD_REACTORS
330
5E
102
}
330
5E
100
DictionaryVariables
280
     0
  1
0
  0
DICTIONARY
  5
236
330
21C
100
AcDbDictionary
280
     1
281
     1
  3
ACAD_XREC_ROUNDTRIP
360
15EF
  0
DICTIONARY
  5
205
330
22
100
AcDbDictionary
280
     1
281
     1
  0
DICTIONARY
  5
1F9
330
ED
100
AcDbDictionary
280
     1
281
     1
  3
FBXASSET
360
1FA
  0
DICTIONARY
  5
1F7
330
EC
100
AcDbDictionary
280
     1
281
     1
  3
FBXASSET
360
1F8
  0
DICTIONARY
  5
173
330
EE
100
AcDbDictionary
280
     1
281
     1
  3
BUMPTILE
360
175
  3
DIFFUSETILE
360
174
  3
FBXASSET
360
1FB
  3
OPACITYTILE
360
176
  3
REFLECTIONTILE
360
177
  0
DICTIONARY
  5
234
330
21A
100
AcDbDictionary
280
     1
281
     1
  3
ACAD_XREC_ROUNDTRIP
360
15EE
  0
DICTIONARY
  5
162
330
7F
100
AcDbDictionary
280
     1
281
     1
  3
ACAD_ROUNDTRIP_2008_TABLESTYLE_CELLSTYLEMAP
360
15ED
  0
XRECORD
  5
15EF
102
{ACAD_REACTORS
330
236
102
}
330
236
100
AcDbXrecord
280
     1
102
DISPLAYNAME
  1
Metric50
102
FLAGS
 90
        0
  0
XRECORD
  5
1FA
102
{ACAD_REACTORS
330
1F9
102
}
330
1F9
100
AcDbXrecord
280
     1
 70
     1
 90
429727718
  1
D62C5603-E3A1-4AEA-B7FB-FE5D8D0755AF
310
504B03040A0000080000CC70623B3DEE336E79000000790000001B0000006175746F6465736B2D64657369676E2D7061636B6167652E786D6C3C3F786D6C2076657273696F6E3D22312E302220656E636F64696E673D227574662D3822203F3E3C666F726D6174733E3C666F726D61743E687474703A2F2F736368656D612E
310
6175746F6465736B2E636F6D2F64657369676E2D7061636B6167652F323030393C2F666F726D61743E3C2F666F726D6174733E504B0304140006080800CC70623BD486FD9CA0000000F4000000130000005B436F6E74656E745F54797065735D2E786D6C7D8EC10E82300C865F65E91D8A1E8C310C0EEA1BF002731658846E
310
D98AC1B77784ABF1D8FE5FBFBF75BBCE937A534CCEB38643598122B6FEE978D0B0485F9C41B54DDD7D022595594E1A469170414C76A4D9A4D207E29CF43ECE46F218070CC6BECC4078ACAA135ACF422C856C0E68EA1BF5669944DDD7BCDE7B1F8E415D77AECB980613C2E4AC91FC167A2B244592486606FC29C8FD7F045B9A
310
EF7053A7E60B504B0304140006080800CC70623B853B8169EB0000007C01000008000000636F72652E786D6C8D90416EC3201045AF62CDB6C206821CC7C244919D9CA01740401C94182C03558F5F9C3852BBEB6A467FFE9B197D7EFC9E1EC5975982F5AE035262288C535E5B377690E21535501C055FBC8FBF6C503839990E
310
5619041F179FE64D52DE45E362569DD7661365082642A11EB9E920A89B99642953CC8E702F67A9EE7234257977194EC9EAE275C4EABCCF5EAD5940D4AC6F0E35A568B8F43562CD7046CD199FD07E60174276A7BE677B5EADB0E0D14EEFFB6A31321A0D82627C4084204C3F096B71DD52F6819B16635EADF63F509AF53FA164
310
5DDCD1EDDD17164090FCC8732078B56691CB33A85CD7DCC40F504B0304140006080800CC70623B55019EA25F0000007C00000007000000636E782E786D6C4DCB3B0E80201045D1AD90E915ED2CF8AC45050C11660C8261F98AB1B07AC9C97D42D718D865D3E909258CFD00CCE24AC6E326A164D74DC0B4128928FF32603847
310
2BA13128B1252AC747C6BAB984FC68F0B87FE8960A5C09FE86CFB69FBA01504B0304140006080800CC70623BDBABAAF470010000D40300000C0000006662782F636F72652E786D6CC553D16E823014FD95A6AF4B694182CC941A83FA05FB810A9511A125A5257EFE2E82712ECEB8A7F100CD39F7F69E734AF9FADC366850B6
310
AF8DCE7018308C942E4C59EB2AC3DE1D498AD15A706B8CFB56869196ADCAF00863C12B6B7C374385D14E6907A836A59A41D9F7CA615434B0C8705F7CAA5606D23BA8E84F41278B93AC54100640439DE0BDB320004D43C63716C7C399D30917DCFBBA9CD9BA8469F5B156168B24CED3F7248AC8769F27244EB73B92EED8862C
310
B7F13E0C179B3C8F979C8ECD82BBBABDAA2BAC924E9558448CBD9330242CFA08E3154B5651FCC6D215639C8EE5774DBE2B5F6CF2B5768B68963BB5F5588420E442FC700B1139D4CB01F450C1E918227C2E09DF070D8140C84E1E9AAB8F1340832A9CB13130A5F1376A908D57309505ECF2A0DF179C4E9D30F5B239B87E3823
310
7A79C6F31DE1A8A5AEC08474B03C7837EAE4938639B44E5932B833D2C6B6B279CDC613877FA26EE21F4A2A4C63EC7F29A2F301D1F9F7A0E37D145F504B0304140006080800CC70623B9C113CC27E0000009D0000000B0000006662782F636E782E786D6C4DCCDF0A83201C86E15B91DFB94BFB330DD428C8FB886521330DA7
310
6397BF1A1DECE883878F57749FCDA1B7892F1BBC047A23808C7F84D9FA55424E0BE6803A256208E9EF06C84F9B91703228B1C690F78B66B34CD9A5439DF5CF0BFBF65E35BCA1B8D6A5C6F540381E886698B5741C695F9503EBA150A2F8958E3DC3EA0B504B0304140006080800CC70623B7DF2F77C2A010000120200003100
310
00006662782F41393633353835312D344632462D344230382D423046372D3739314545314133324237412F636F72652E786D6C8D51DB8EC22014FC15C2939B0D2DB4B45643319AE817EC0F6041255A68B86CFCFC856D4D76DF7CE190393373060EDB3DC707F856CE6B6B7A480A0C81328395DA5C7B18C3057510EC3873D686
310
3F34088C18550F330C39BB3A1BA7051AAC09CA84841A2BD5020AEF55806078A44B0FFD7053A328440C89E1EFC52486BBB8AA8214A99D789CF9E05200300FC927E4FB4D5B375D43103D5527440FB843077C5AA3F5861C8F645F5787F59E95B390B318B55CE45AA638FAA2957BD7248B390B7A7CC51F9C124149C82B8C378810
310
84AB2F42B7B8DD56F413775B8C5999E9FF4471926F8AA236A1AE96B8B3CC434E5839373893369E1FAF30EA395917409EB7F26AF8801C171837A4A6AC9C89E9F9C9B1A58BA30FD6A5EF5DDDCF894B9AD9B6A59C957943A9FCAE2FD5BC4DFE03504B0304140006080800CC70623BAD7543B64E01000033030000300000006662
310
782F41393633353835312D344632462D344230382D423046372D3739314545314133324237412F636E782E786D6CD593CD6EC32010845F0571AD6CE3D48AD20813A9873E410FBD12D82434182C7EAAE6EDBB2424CD25871E7B41D6EC30B3FA84F9E67BB2E40B4234DE8DB46F1925E094D7C6ED479AD3AE5951B2113C789FEE
310
6C943839C1488B4C05DF079FE72A69D8C96C13AAD6B8631503449F83828872B949AC57D26200B826A308D316B4064D6E46FCDA41C05550DC9E483A00797BFD207EFB092A45DE9514C1BBD22178396BD39D891265658C238DEA00936C654E5E433CB65A26D9F6EDB5EBC14EBF49A45CB856E66048291F6939A9A81BB5C89177
310
38143CA680F4AA299D66A042CEB3354A2684DC9D8D178FE0D9B8B41CAAD720F880EE7EF93C0C18769E099ECC04D5A102C8049A8A05632F4DDF376CF1DE0F6BB65C2F8627B65A33C6BB62177CEBBDAD973006829F89F22E814B54F4BC2BE347F8AA8F681390B50FA73F804400B5F542E796F19FF974E7F78DB802FE05E20750
310
4B0304140006080800CC70623BE75B7789680500003C100000340000006662782F41393633353835312D344632462D344230382D423046372D3739314545314133324237412F6F626A656374732E786D6CAD575B8F9B3818FD2B887D06C22499CB8AA1CA655245D5B455A356FB305264C061D8018C6C3393D95FBFC7600890
310
A4CD5EF210B0B1BFEBF98E3F7B1FF6596ABC522E1296DF9BAE3D320D9A872C4AF2F8DE2CE5CEBA358D0FBEC719939D65A691938CDE9B6ADAF4BD98B3B2D05311DD91329583D9D5FC0F438434A7A611A644887B5384CF34233629258BA878B12322891DEFF6B66BD70BFB62634E8AE781D082709A4B588AF91C528CDA28B73F
310
1C998EEF39EABBEFA97FBD6A7C7E9553F9D3D79FE442923C3C523610337627CB87ABE99D359D4CC6D6E4FACAB5E6ABF9D2726FC6A3C5F56271377BB88362213924694B38DD99FE47C48627A1E7D49F5A8BB5E1A74C0A599ED3B0F21F1E56366B89112D681E218F0915D0D6F17AD41FBA2A369DCF6335D62ABBD39779D5DDD1
310
11D4D8DE3CBB96B2E04FB8202E41051754A1AA8E8F76B4C6DFE810B580B1547F4B84911149794252234D024EF8BBE963A95AE27B3D310A9D5C215C7960FAEE415ED75694C6AFB17BCACA5D99A60A9AA65F217B0BFC53292ACB92BF283FAD0D3621576592CB5BED907C2FA8E9DF794E35E97BEA31BED21FEB401ABB94C44839
310
DCACBF0E1C5DA8DA5B2F4DFFD32AD86F543D9E565E7056502E157C00AD2671CD534549AB752FCA9CDA00677A313F04E51B22FF19E57B300579E3C97EB29F682D92935CEC18CF901B7B54FD8C51F362B56FC72FE0B3C1EAE335EDCCBF5AEC39ADB17DC238973F804BA5E6F6BFE7AF1FB32E523BE9F3BD571418E3631DCA4D48
310
5250CF639223210A9446CA30052EDF057BD35F8329C1ECD84552BF0DC8D18BE7BCE23BFE6BD960AB4A7DE79923A103BEBD80F911CBAA2C60DB19B01CF164A5583B772EE6D3FFA56666CBCDA74DC97724A48F9A58967497E489C4D979006FD7A05E227A1EBDD0F737C623387A9C844D3709995625106D157315F8B8392CD4E0
310
A0B9A720C4BE9829CEF37EA1E13111214D53925356365ADA634861B52519DD27A00AEB808EAF0628E6F435519D446F45CF2C9CF5214F0A15B2F6D06B79DA3EE3CBF7F56780D2F4E7EF73A0F5E5B02A38D07DC852C6B7C1FBB6664213E0C39E3EBA7FF4E1AD23EA2829407C85E586727488B751B2DB9502BC7B228A3FD68B6E
310
A65A22397E690AA8D158D7E404EC8CDA235CC3B7D1898680131CEC2CDF2638C65196279577750F15884AEE19F94199155B92B13297978469D4F8D358DF0AEF7631E28DC8F0D9F437D5D39A83B2231A1D52D543813A824EF8D44BCFF2FA6A31BD1E8DAD87F1CCB526B3879935BF59CDADD5C37479BB1CDD4CA7B3556B516589
310
EF352754B706114D9C885EC9131DE6EFEB43D99AFE2391C2F958179413D7CFEF6B1B6DB1E7600F00DE6E5C67454A339A4BA2E0FBA85ED26F045D454F463DBFCE484C2F90F2E5E3666003662ED8F755951A7D1BECD5B30B550B2785C8E7320B7292A4838DDA71BBC863ED7613CAF659337A3354231D4FF4A182A54904C2898C
310
98B28C4AD0CE056CCF332A80986E571EE9DBC305BB5FEB7E509220A58D25CF042D712A806AC0AD0C657FDEF80D2D9CEAA2EE4D1C76F60BFE74219A06527D6F82DF6412526107381E55E353090704D085B52408A8913C4ED159D79BDA71BB4BC506F4831350EB6F975CD22D69BF7AC49B91A2C0A9DDA3D5CA36AD20FC478E37
310
E61844E2352865EBCB61A275A65283CAAA9DD27703B4102F5AF51EF5F573B75CBB5AD38BC845F7A49F82A0966A49C2E3EA5EA0ECD326CD965F1DB402C6FA8B51A4658C5C5E2EC9E214602E55810345408596591009A82E7E7FFACA19EEA299B14A0081A705CB3296EBC14CDF658DCD336EA6D1136881AAEB87B81AB9EE53D5
310
F5EB8BC8362082DA24122F98680A4E7930C01A0079749CEA14382A0783E5EBA5A10F8C098456A03D6A4AEB6BB881E2513747552A5DB22C7EDAF83BD5528081A365F7FF06504B0304140006080000CC70623B000000000000000000000000350000006662782F41393633353835312D344632462D344230382D423046372D37
310
39314545314133324237412F76657274696365732E62696E504B0304140006080800CC70623BF270F1330600000004000000360000006662782F41393633353835312D344632462D344230382D423046372D3739314545314133324237412F747269616E676C65732E62696E636660600000504B0304140006080000CC7062
310
3B000000000000000000000000370000006662782F41393633353835312D344632462D344230382D423046372D3739314545314133324237412F617474726962757465732E62696E504B0304140006080800CC70623B08DA0BD19000000041010000360000006662782F41393633353835312D344632462D344230382D4230
310
46372D3739314545314133324237412F6469726563746F72792E786D6C858F410AC3201045AF22B36F53E9A60B35CBEEBAE80D244E44489C6234F4F835464A48035D0DF398FF9F8AF63D0E6CC63039F212F8F9020C7D47C6792B21C5FE7403D62A1188E2E60C98D7234A5830286103A55745067B9D86B8A3CF9C7F90C11DE6
310
07FB144396D7B6A82D282E9A152AD114D5EF2CB866EEE831B8EEA07A7BB5A8D7D61A2BAAEB7FD5F70921FF497D00504B0304140006080800CC70623BEDD1DC58FD000000A00100003B0000006662782F41393633353835312D344632462D344230382D423046372D3739314545314133324237412F7265736F75726365732F
310
636F72652E786D6C8D504B6E833010BD0A9A6D65B00922041947112427E8052C33A156828DFCA97AFC9A40A576D7CDCCE87D344F8F9FBFE667F689CE6B6B3A6039850C8DB2A336530731DC4903D95970676DF82583CCC8193B5861107C72362E3BA4AC096842428D1D7107A5F7182053CF7474E0D507CE32973124857FE48B
310
540F3961CEF244279DE03EB81420DB9EAC1384436FA353E879B1B182C7A8C75DA3C7F453DF353A1075D537A7BA6464B8F535A99AE14A9A2BBD90E350DD183B5CFABE3AF262350B1EF4FC9351399401471025A527C218A1E53BAB5A5AB765F5469B96525EACF23FA6B88CFF34456DC2A1DCE36E360F82A5202F42F062ED2BAD
310
579969AFDD8A6F504B010214000A0000080000CC70623B3DEE336E79000000790000001B00000000000000000000000000000000006175746F6465736B2D64657369676E2D7061636B6167652E786D6C504B01021400140006080800CC70623BD486FD9CA0000000F40000001300000000000000000000000000B20000005B
310
436F6E74656E745F54797065735D2E786D6C504B01021400140006080800CC70623B853B8169EB0000007C010000080000000000000000000000000083010000636F72652E786D6C504B01021400140006080800CC70623B55019EA25F0000007C000000070000000000000000000000000094020000636E782E786D6C504B
310
01021400140006080800CC70623BDBABAAF470010000D40300000C00000000000000000000000000180300006662782F636F72652E786D6C504B01021400140006080800CC70623B9C113CC27E0000009D0000000B00000000000000000000000000B20400006662782F636E782E786D6C504B01021400140006080800CC70
310
623B7DF2F77C2A010000120200003100000000000000000000000000590500006662782F41393633353835312D344632462D344230382D423046372D3739314545314133324237412F636F72652E786D6C504B01021400140006080800CC70623BAD7543B64E010000330300003000000000000000000000000000D2060000
310
6662782F41393633353835312D344632462D344230382D423046372D3739314545314133324237412F636E782E786D6C504B01021400140006080800CC70623BE75B7789680500003C10000034000000000000000000000000006E0800006662782F41393633353835312D344632462D344230382D423046372D3739314545
310
314133324237412F6F626A656374732E786D6C504B01021400140006080000CC70623B0000000000000000000000003500000000000000000000000000280E00006662782F41393633353835312D344632462D344230382D423046372D3739314545314133324237412F76657274696365732E62696E504B01021400140006
310
080800CC70623BF270F133060000000400000036000000000000000000000000007B0E00006662782F41393633353835312D344632462D344230382D423046372D3739314545314133324237412F747269616E676C65732E62696E504B01021400140006080000CC70623B0000000000000000000000003700000000000000
310
000000000000D50E00006662782F41393633353835312D344632462D344230382D423046372D3739314545314133324237412F617474726962757465732E62696E504B01021400140006080800CC70623B08DA0BD1900000004101000036000000000000000000000000002A0F00006662782F41393633353835312D344632
310
462D344230382D423046372D3739314545314133324237412F6469726563746F72792E786D6C504B01021400140006080800CC70623BEDD1DC58FD000000A00100003B000000000000000000000000000E1000006662782F41393633353835312D344632462D344230382D423046372D3739314545314133324237412F7265
310
736F75726365732F636F72652E786D6C504B0506000000000E000E0080040000641100000000
  0
XRECORD
  5
1F8
102
{ACAD_REACTORS
330
1F7
102
}
330
1F7
100
AcDbXrecord
280
     1
 70
     1
 90
429727718
  1
30362254-06B7-45E0-A893-8CFA70E3D6BC
310
504B03040A0000080000CC70623B3DEE336E79000000790000001B0000006175746F6465736B2D64657369676E2D7061636B6167652E786D6C3C3F786D6C2076657273696F6E3D22312E302220656E636F64696E673D227574662D3822203F3E3C666F726D6174733E3C666F726D61743E687474703A2F2F736368656D612E
310
6175746F6465736B2E636F6D2F64657369676E2D7061636B6167652F323030393C2F666F726D61743E3C2F666F726D6174733E504B0304140006080800CC70623BD486FD9CA0000000F4000000130000005B436F6E74656E745F54797065735D2E786D6C7D8EC10E82300C865F65E91D8A1E8C310C0EEA1BF002731658846E
310
D98AC1B77784ABF1D8FE5FBFBF75BBCE937A534CCEB38643598122B6FEE978D0B0485F9C41B54DDD7D022595594E1A469170414C76A4D9A4D207E29CF43ECE46F218070CC6BECC4078ACAA135ACF422C856C0E68EA1BF5669944DDD7BCDE7B1F8E415D77AECB980613C2E4AC91FC167A2B244592486606FC29C8FD7F045B9A
310
EF7053A7E60B504B0304140006080800CC70623B1EC5D7A3EB0000007C01000008000000636F72652E786D6C8D90416EC3201045AF82665B6103C6756C6122AB4D4ED00B204C5C94182C03558F5F9C3852BBEB6A467FFE9B197D71FC9E6FE8CBACC17AD7032D0820E3B41FAD9B7A48F1820F808E52ACDEC75F36404ECDA687
310
4D0629A6D5A76597B477D1B89855E747B38B2A041301E95B6E7A08FAD3CCAA50296647B8168BD2573599823EBB0CA76447F43862C7BCCF5EAC59410E4DDD9C7973C2755553CCCFA4C603E3040F1565ED3B1FDE4E432BCA0D9622DAF9795FAF464533826484B498524CD807E51D79ED187F21878E10516EF63F505AC67F42C9
310
BA58B1FDDD071640D2FCC87D2045B96591CB3DA85CB7DCE40F504B0304140006080800CC70623B55019EA25F0000007C00000007000000636E782E786D6C4DCB3B0E80201045D1AD90E915ED2CF8AC45050C11660C8261F98AB1B07AC9C97D42D718D865D3E909258CFD00CCE24AC6E326A164D74DC0B4128928FF32603847
310
2BA13128B1252AC747C6BAB984FC68F0B87FE8960A5C09FE86CFB69FBA01504B0304140006080800CC70623B8C9102E971010000D40300000C0000006662782F636F72652E786D6CC5535B6E833010BC8AE5DF0A6C08340F1947A84D4ED00B38C6A128602363A31CBFCB234A53A551FA553EC09AD9F5CE8C31DB9E9B1AF5CA
310
7695D1198E428A91D2D214952E33ECDD315861B4E5CC1AE3BE9561A445A3323CC098B3D21ADFCE9034DA29ED00D5A6503328BA4E398C640D8B0C77F253352214DE4145770A5B214FA2546114020D759C75CE8200340D19DE981F0F6746269C33EFAB6266AB02A655C74A59CCF365BADC27CB5D902ED22848F6340DF238A141
310
BE88E2F57B92BFEDF23523433367AE6A2EEAA455C2A902F398D2751045018D3FA264435F3771F242571B4A1919CA6F9A7C5B3CD9E42BED16F12C776AEB308F40C848FC700B1139D4891EF410CEC810227CC6846F8386402064270EF5C5C709A05E49676C024C61FC95EA45ED154CA5211D1FF4FB8291A913A68E9B83EBBB33
310
E2A7673CDE118E5AE8124C0807CB8377834E366998436B950D7A7746DAD846D4CFD978E0F04FD455FC5D49D2D4C6FE9722321F10997F0F32DC47FE05504B0304140006080800CC70623BFFEA85907E0000009D0000000B0000006662782F636E782E786D6C4DCCD10A83201886E15B91FFDC95D95A811AB6F23E625948A6C3
310
E9D8E5AF46073BFAE0E1E365ED67B3E8ADC3CB78C7815C7240DA3DFC64DCC221C519D7805AC182F7F1EF06C88D9BE6703008B6049F9E274D7A1E938DBB5AE3D6131B2589BA0D3D965551E0B2EA732C9B9A624AAEB41E3A557677029960D9AFB4EF11165F504B0304140006080800CC70623B4FEEA4082C0100001202000031
310
0000006662782F39464131463745442D413632322D343644302D413938332D3331353338454246344243312F636F72652E786D6C8D515B6EC32010BC0AE2AB55850DD871ED0813254D72825EC00192A2C460F1A872FC42ED48ED5F7E00CDCECCCEB26C731F6FE05B39AFADE921293004CA082BB5B9F43086336A21D870E6AC
310
0D7F68109861543DCC30E4ECE26C9C164858139409093556AA051CBC570102714B8F1E7AF1A5C6A11862480C7F2DA6415C878B2A4891CA89C7990F2E050073937C42DE1DB7E4F87ED8A36D4329AA9B3D46DBAEAD504556557BD81DEBDD0761E52CE42C462D17B996298E3E6BE59E35C962CE821E1FF18553435012728A7187
310
0841987E927A8D9B35ADDF70BBC6989599FE4F1427F9A4286A132ABAC49D651EF234CD5CE04CDA78BA3DC2A8FB645D00B9DF8B57E215725C60BCA2A463E54C4CE327C7A65E1C7DB02E7DEFCBF594B864C5CA6CDBD49C957943E9FA5D5FBAF336F90F504B0304140006080800CC70623BAD7543B64E01000033030000300000
310
006662782F39464131463745442D413632322D343644302D413938332D3331353338454246344243312F636E782E786D6CD593CD6EC32010845F0571AD6CE3D48AD20813A9873E410FBD12D82434182C7EAAE6EDBB2424CD25871E7B41D6EC30B3FA84F9E67BB2E40B4234DE8DB46F1925E094D7C6ED479AD3AE5951B2113C
310
789FEE6C943839C1488B4C05DF079FE72A69D8C96C13AAD6B8631503449F83828872B949AC57D26200B826A308D316B4064D6E46FCDA41C05550DC9E483A00797BFD207EFB092A45DE9514C1BBD22178396BD39D891265658C238DEA00936C654E5E433CB65A26D9F6EDB5EBC14EBF49A45CB856E66048291F6939A9A81BB5
310
C8917738143CA680F4AA299D66A042CEB3354A2684DC9D8D178FE0D9B8B41CAAD720F880EE7EF93C0C18769E099ECC04D5A102C8049A8A05632F4DDF376CF1DE0F6BB65C2F8627B65A33C6BB62177CEBBDAD973006829F89F22E814B54F4BC2BE347F8AA8F681390B50FA73F804400B5F542E796F19FF974E7F78DB802FE05
310
E207504B0304140006080800CC70623B16AB87BA640500003C100000340000006662782F39464131463745442D413632322D343644302D413938332D3331353338454246344243312F6F626A656374732E786D6CAD575B6FA33818FD2B887DE6924B3BED8A326A92B68A663B534DD4D13E548A0C38942D60649B369D5FBFC7
310
600890A493BDE42160637FD7F31D7FF63E6FB3D478A55C242CBF3247B66B1A340F5994E4F19559CA8D75611A9F7D8F33263BCB4C232719BD32D5B4E97B316765A1A722BA21652A07B3B7B33F0D11D29C9A46981221AE4C113ED38CD8A4942CA2E2C58E882476BCD9DA23BB5ED8171B73523C0F841684D35CC252CCE79062D4
310
468DFA43D7747CCF51DF7D4FFDEB5593E3AB9CCA9FBEFE241792E4E19EB28198C968BAB8199F5D5A67D3E9C49A9E8F47D6EC76B6B0469F26EEFC7C3EBFBCBEB98462213924694B38DD98FE1D62C393D073EA4FADC5DAF04326852CCF6958F90F0F2B9BB5C48816348F90C7840A68EB78EDF68723159BCEE7891A6B95DDE9D3
310
BCEAEEE8086A6C6F9E5D4B59F0175C10A7A0820BAA5055C7473B5AE3CFDD452D602CD5DF12616444529E90D448938013FE6EFA58AA96F85E4F8C42275708571E98FE6827AF6B2B4AE3D7D83D64E5A64C53054DD3AF90BD06FEA9149565C94FCA0F6B834DC85599E4F2423B24DF0B6AFA979E534DFA9E7A4CC6FA631D486393
310
921829879BF5D781A373557BCB85E97FB90DB62B558F8795179C15944B051F40AB495CF35451D26A4727654E6D8033BD98EF82F21D91FF8AF2DD9982BCF1643BDD4EB516C9492E368C67C88DED563FC36D5EACF66DFF057C3658BDBFA69DF9578B3DA735B64F18C7F20770A9D45CFCF7FCF563D6456A277DBEF78A02637CA2
310
43B90A490AEAB94F72244481D24819A6C0E59B606BFA4B3025981DBB48EAB701D97BF19C577CC77F2D1B6C55A9EF3C732474C0B727303F625995056C3B02963D9EAC146BE78EC5FCEC7FA999EBC5EACBAAE41B12D27B4D2C0BBA49F244E2ECDC81B76B502F113D8F5EE8FB1BE3111CDD4FC2AA9B844CAB1288B68AB90A7CDC
310
1C166AB0D3DC5310625FCC14E779BFD0709F8890A629C9292B1B2DED31A4B0DA928CEE135085754027E3018A397D4D5427D15BD1330B677DC8934285AC3DF45A9EB68FF8F2B8FC0A509AFEECFD0FF2DE25CC6047F7214B195F07EFEB9A094D800F7BFAE8FED187B78EA8A3A400F115961BCAD1215E47C966530AF0EE8128FE
310
58CEBB996A8964FFA529A046635D9353B0336A8F700DDF46271A024E70B0B37C9DE01847591E54DED53D54202AB947E4076556AC49C6CA5C9E1226B7F1A7B1BE15DEED62C41B91E1B3E9AFAAA735036547343A925075041DF0A9979E893B391F8FCFA6967B3EFB644DCF6E5CEBFAE272625DCC6FAF3FB93793C5F90CE1EF57
310
407342756B10D1C489E8953CD1617E5CEECAD6F4EF8914CE5D5D504E5C3F1F9736DA62CFC11E00BCDDB8CC8A9466349744C1F75EBDA4DF09BA8A9E8C7A7E9991989E20E5DBDD6A6003664ED8F7A04A8DBE0DF6EAD9B9AA858342E47399053949D2C146EDB85DE4B176BB0965FBAC19BD19AA918E27FA50C1D22402E144464C
310
59462568E704B6E71915404CB72B8FF4EDE184DDAF753F284990D2C6926782963815403548A70C657FDEF80D2D9CEAA2AE4C1C76F60BFE74219A06527D6582DF6412526107381E55E353090704D085B52408D0933C4ED159D79BDA71BB4BC506F4831350EB6F979CD22D69BF7AC49B91A2C0A9DDA3D5CA36AD20FC478E37E6
310
1844E2352865EBCB6EA275A652E3836BE04EFB400BF1A2556F515F1FBB35B2AB35BD889C744FFA1004B5544B121E57F70215746DD2F5E2C1412B602CBF19455AC6C8E5E9922C4E01E65215385004546899059180EAFCF7A707CE7017CD8CDB0410789AB32C63B91E5CEBBBACB17AC6CD347A022D5075FD106377347AAABA7E
310
7D11590744509B44E205134DC1290F06580320F78E537D3D73540E06CB970B431F185308AD40BBD794D6D77003C5A36E8EAA54BA64597CD8F83BD552A080A365F7FF06504B0304140006080000CC70623B000000000000000000000000350000006662782F39464131463745442D413632322D343644302D413938332D3331
310
353338454246344243312F76657274696365732E62696E504B0304140006080800CC70623BF270F1330600000004000000360000006662782F39464131463745442D413632322D343644302D413938332D3331353338454246344243312F747269616E676C65732E62696E636660600000504B0304140006080000CC70623B
310
000000000000000000000000370000006662782F39464131463745442D413632322D343644302D413938332D3331353338454246344243312F617474726962757465732E62696E504B0304140006080800CC70623B08DA0BD19000000041010000360000006662782F39464131463745442D413632322D343644302D413938
310
332D3331353338454246344243312F6469726563746F72792E786D6C858F410AC3201045AF22B36F53E9A60B35CBEEBAE80D244E44489C6234F4F835464A48035D0DF398FF9F8AF63D0E6CC63039F212F8F9020C7D47C6792B21C5FE7403D62A1188E2E60C98D7234A5830286103A55745067B9D86B8A3CF9C7F90C11DE607
310
FB144396D7B6A82D282E9A152AD114D5EF2CB866EEE831B8EEA07A7BB5A8D7D61A2BAAEB7FD5F70921FF497D00504B0304140006080800CC70623B0D6EF93BFE000000A00100003B0000006662782F39464131463745442D413632322D343644302D413938332D3331353338454246344243312F7265736F75726365732F63
310
6F72652E786D6C8D50596E833010BD0A9ADFCA60B334011947A8694ED00B586642AC041B79A97AFC9A40A5F6AF3F33A3B7689E1E3F7DCD8FEC139DD7D6F4C0720A191A65476DA61E62B892236427C19DB5E1970C322367EC618541F0C9D9B8EC90B226A009093576C41D94DE63804C3DD2D18357379C652E63480A7FCF17A9
310
EE72C29CE5894E3AC17D702940B63D59270887DE46A7D0F36263058F518FBB468FE9A7BE6A7420864373B8D4873369AA8691FA421B3294352543C5CAF65C0F6FEF43CB8BD52C78D0F34F46E550061C419494B6843142CB0F5677F4B52BEB177AEC28E5C52AFF638ACBF84F53D42654E51E77B379102C05791282176B5F693D
310
CB4C7BED567C03504B010214000A0000080000CC70623B3DEE336E79000000790000001B00000000000000000000000000000000006175746F6465736B2D64657369676E2D7061636B6167652E786D6C504B01021400140006080800CC70623BD486FD9CA0000000F40000001300000000000000000000000000B20000005B
310
436F6E74656E745F54797065735D2E786D6C504B01021400140006080800CC70623B1EC5D7A3EB0000007C010000080000000000000000000000000083010000636F72652E786D6C504B01021400140006080800CC70623B55019EA25F0000007C000000070000000000000000000000000094020000636E782E786D6C504B
310
01021400140006080800CC70623B8C9102E971010000D40300000C00000000000000000000000000180300006662782F636F72652E786D6C504B01021400140006080800CC70623BFFEA85907E0000009D0000000B00000000000000000000000000B30400006662782F636E782E786D6C504B01021400140006080800CC70
310
623B4FEEA4082C0100001202000031000000000000000000000000005A0500006662782F39464131463745442D413632322D343644302D413938332D3331353338454246344243312F636F72652E786D6C504B01021400140006080800CC70623BAD7543B64E010000330300003000000000000000000000000000D5060000
310
6662782F39464131463745442D413632322D343644302D413938332D3331353338454246344243312F636E782E786D6C504B01021400140006080800CC70623B16AB87BA640500003C1000003400000000000000000000000000710800006662782F39464131463745442D413632322D343644302D413938332D3331353338
310
454246344243312F6F626A656374732E786D6C504B01021400140006080000CC70623B0000000000000000000000003500000000000000000000000000270E00006662782F39464131463745442D413632322D343644302D413938332D3331353338454246344243312F76657274696365732E62696E504B01021400140006
310
080800CC70623BF270F133060000000400000036000000000000000000000000007A0E00006662782F39464131463745442D413632322D343644302D413938332D3331353338454246344243312F747269616E676C65732E62696E504B01021400140006080000CC70623B0000000000000000000000003700000000000000
310
000000000000D40E00006662782F39464131463745442D413632322D343644302D413938332D3331353338454246344243312F617474726962757465732E62696E504B01021400140006080800CC70623B08DA0BD190000000410100003600000000000000000000000000290F00006662782F39464131463745442D413632
310
322D343644302D413938332D3331353338454246344243312F6469726563746F72792E786D6C504B01021400140006080800CC70623B0D6EF93BFE000000A00100003B000000000000000000000000000D1000006662782F39464131463745442D413632322D343644302D413938332D3331353338454246344243312F7265
310
736F75726365732F636F72652E786D6C504B0506000000000E000E0080040000641100000000
  0
XRECORD
  5
175
102
{ACAD_REACTORS
330
173
102
}
330
173
100
AcDbXrecord
280
     1
270
     1
271
     1
  0
XRECORD
  5
174
102
{ACAD_REACTORS
330
173
102
}
330
173
100
AcDbXrecord
280
     1
270
     1
271
     1
  0
XRECORD
  5
1FB
102
{ACAD_REACTORS
330
173
102
}
330
173
100
AcDbXrecord
280
     1
 70
     0
 90
1673772943
  1
ECE7A1D2-D628-4531-984C-D00F80459256
310
504B03040A0000080000CC70623B3DEE336E79000000790000001B0000006175746F6465736B2D64657369676E2D7061636B6167652E786D6C3C3F786D6C2076657273696F6E3D22312E302220656E636F64696E673D227574662D3822203F3E3C666F726D6174733E3C666F726D61743E687474703A2F2F736368656D612E
310
6175746F6465736B2E636F6D2F64657369676E2D7061636B6167652F323030393C2F666F726D61743E3C2F666F726D6174733E504B0304140006080800CC70623BD486FD9CA0000000F4000000130000005B436F6E74656E745F54797065735D2E786D6C7D8EC10E82300C865F65E91D8A1E8C310C0EEA1BF002731658846E
310
D98AC1B77784ABF1D8FE5FBFBF75BBCE937A534CCEB38643598122B6FEE978D0B0485F9C41B54DDD7D022595594E1A469170414C76A4D9A4D207E29CF43ECE46F218070CC6BECC4078ACAA135ACF422C856C0E68EA1BF5669944DDD7BCDE7B1F8E415D77AECB980613C2E4AC91FC167A2B244592486606FC29C8FD7F045B9A
310
EF7053A7E60B504B0304140006080800CC70623BD9DDAED0EC0000007C01000008000000636F72652E786D6C8D90416EC3201045AF82665B61836D9CD8C2444DD39CA01740405C94182C03558F5F9C3852BBEB6A467FFE9B197D7EF89E6EE8CB2CC17A37002D0820E394D7D68D03A478C17B4007C117EFE32F1B20272733C0
310
2A83E0E3E2D3BC49CABB685CCCAAF3DA6CA20CC14440EA969B0182FA34932C648AD911AEC52CD5558EA6A0CF2EC329598D1E47ACCEFBECC59A050463A7EA5833865FEBDD0E37353BE3EE8DBDE3F6786A48D375FBF6CC78B9C282473B3DEFABC5C86834888A900E538A49F5419B9EB47DD5BC907D4F082F57FB1F28CDFA9F50
310
B22ED6D5F6EE030B20687EE43E10BC5CB3C8E51E54AE6B6EE207504B0304140006080800CC70623B55019EA25F0000007C00000007000000636E782E786D6C4DCB3B0E80201045D1AD90E915ED2CF8AC45050C11660C8261F98AB1B07AC9C97D42D718D865D3E909258CFD00CCE24AC6E326A164D74DC0B4128928FF326038
310
472BA13128B1252AC747C6BAB984FC68F0B87FE8960A5C09FE86CFB69FBA01504B0304140006080800CC70623BA24EB22D72010000D40300000C0000006662782F636F72652E786D6CC5535B6E833010BC8AE5DF0A6C5E49888CA3A6694ED00B38E05014B091B1518EDFE511A5A9D228FD2A1F60CDEC7A67C6986DCE4D8D7A
310
69BA4AAB0C073EC548AA5C17952A33ECECD15B61B4E1CC686DBF9561A44423333CC098B3D268D7CE50AE9595CA02AA74216750749DB418E5352C32DCE59FB211BE70162ABA93DF8AFC244AE9073ED050C759670D0840D390E18DF9F1706664C23973AE2A66B62A605A75ACA4C13C4976E1364A12EF355A2EBD384AF65EFA96
310
BC7B8BED2EA6719AAE16FB8491A199335B351775B991C2CA02F390D2D40B028F861F41BCA68B7518BFD0D59A524686F29B26D7164F36B94AD9289CE54E6D1DE6010819891F6E21228B3AD1831EC219194284CF98F06DD01008846CC5A1BEF83801D4CBDC6A1303536877A57A513B0953A94FC707FDBE6064EA84A9E3E6E0FA
310
EE8CF0E9198F7784A316AA0413C2C2F2E0ECA0934D1AE6D05A69BCDE9E91D2A611F573361E38FC1375157F5752AE6B6DFE4B11990F88CCBF0719EE23FF02504B0304140006080800CC70623B408A7D3B7C0000009D0000000B0000006662782F636E782E786D6C4DCCD10A83201886E15B91FFDC552A92A0064DBC8F581632
310
D3703A76F9ABD1C18E3E78F878E5F0D9027ABBFCF2292AE86E2D20171F69F6715550CB827B40839639A5F2770314A7CD293819B45C73AAFB45B35BA61ACAA1C1C7E7855C58C15BC331339661262CC762340413D68D77DA5B42298546CBE6573AF60CEB2F504B0304140006080800CC70623B449FB9BD290100001202000031
310
0000006662782F36394639363044362D344446342D343946362D394244322D3234314243333846323333332F636F72652E786D6C8D515B6EC32010BC0AE22B55850D98B871848994463E412FE002495162B07854397EA176A4F62F3F2C9A9D991D587EB84F37F0AD7D30CEF6905418026DA553C65E7A98E219ED203808EE9D
310
8B7F6810D871D23D2C3014FCE25D9A57483A1BB58D19B54EE9151C43D0110279CB971E06F9A5A7B11A53CC8C70ADE6515EC78BAE4895DB992778883E0700CB907242D17643D7E2538BD869608875438BBAE38922CAC8F1BDD90DB4691A5E2F42C153326A951B95E398B3D1FE599322163C9AE9115F7A3D46ADA0A018778810
310
84E907617BDCEE297BC5BB3DC6BC2EF47FA234AB2745C9D8D8D035EE220B50105E2F0DC1954B9FB747187D9F9D8FA0CCDB042D5FA0C015C65B42DF78BD10F3F3B363CB56C7109DCFDFBBB97E662ED92EB62D13BC2E1BCAE5777DB9966D8A1F504B0304140006080800CC70623BAD7543B64E01000033030000300000006662
310
782F36394639363044362D344446342D343946362D394244322D3234314243333846323333332F636E782E786D6CD593CD6EC32010845F0571AD6CE3D48AD20813A9873E410FBD12D82434182C7EAAE6EDBB2424CD25871E7B41D6EC30B3FA84F9E67BB2E40B4234DE8DB46F1925E094D7C6ED479AD3AE5951B2113C789FEE
310
6C943839C1488B4C05DF079FE72A69D8C96C13AAD6B8631503449F83828872B949AC57D26200B826A308D316B4064D6E46FCDA41C05550DC9E483A00797BFD207EFB092A45DE9514C1BBD22178396BD39D891265658C238DEA00936C654E5E433CB65A26D9F6EDB5EBC14EBF49A45CB856E66048291F6939A9A81BB5C89177
310
38143CA680F4AA299D66A042CEB3354A2684DC9D8D178FE0D9B8B41CAAD720F880EE7EF93C0C18769E099ECC04D5A102C8049A8A05632F4DDF376CF1DE0F6BB65C2F8627B65A33C6BB62177CEBBDAD973006829F89F22E814B54F4BC2BE347F8AA8F681390B50FA73F804400B5F542E796F19FF974E7F78DB802FE05E20750
310
4B0304140006080800CC70623B8D05915C650500003B100000340000006662782F36394639363044362D344446342D343946362D394244322D3234314243333846323333332F6F626A656374732E786D6CAD575B6FA33814FE2B887D06429276DA1565D4266D158D3A339A6846FB502932E050B66023DB74D2FDF5FB190C01
310
9276B2973C046C8ECFF53B17071F77456EBD502133CEAE6CDF9DD81665314F32965ED995DA3A17B6F5310C04E7AA47665B8C14F4CAD6DB7618A48257A5D94AE89654B91AEDDEDDFC61C998326A5B714EA4BCB265FC440BE2924AF184CA6737218AB8E976E7FA6E4338649B0A523E8D98964450A6A029F619B8588D52FE7039
310
B1BD30F0F4F730D0FF866AF6369557DB33949F31A9088B0F848DD8CCFCF9F2767A76E99CCDE733677E3EF59D9BBB9BA5E37F984D16E78BC5E5F5ED25044B25C0C96822E8D60EEFE11B91C581D77CEA34368A1F5329E68CD1B8B61F16D63A1B8E092D294B10C78C4A48EB593D192E7DED9BDEE7995E1B91FDEDD3ACEA9FE831
310
6A756F9F7D4D79F4274C90A7A04248AA51D5F8C718DAE06FB2F75AC4796EBE65D22A88A22223B995679120E2D50E41AA49C260C046A35368846B0BECD0DFF3EBEB8AD4F835768F69B9ADF25C43D30E6B646F807FAA64AD59F61715C7A54127C4AACA98BA3006A9D792DAE165E0D59B61A01FB3A9F9D838D2DAE62445C86166
310
F37564E842E7DE6A69879FEEA2DD5AE7E371E1A5E025154AC307D06A03D73EB5978C58FFA4C8E9033066E0F3BD53BEC1F39F91BE7B55103791EDE6BBB991A2046172CB4581D8B893FA674DDA17A77B3B7C413D1B511FD2743BFF8A38F03A658705E3ADF8015C3A3417FF3D7E439FF591DA0B5F18BC20C1B8981957AE6392A3
310
F43C640C01D1A0B4728E2DD4F26DB4B3C3152A252A3B4E913CEC1C72F012782FF88EFF8637AA552DBEF76408E8A8DE9E50F9E1CB3A2DA0DB1B6039A893B56063DC5B3E3FFB5F72E67AB9FEB4AEC496C4F4C1149625DD662C53E89D7BF0F6151A046260D1337DFDC94502430F83B0EE07A130A224BCAD7DAE1D9FB6CD422FF6
310
920702629C4BB9AE79C12F243C6432A6794E18E5552BA56B431AAB5D91317302B2B071E86C3A42B1A02F999E24061403B5D0EB639195DA655DD3EBEAB4FB862DDF579F014AD0E73C22F99E28DA57FB98E75C6CA2D74D53086D600F4786E0FE3144B771A8A7B900F03594DB8A633CBC49B2EDB69228BB479CF863B5E807AAAB
310
23872F6DFEB4129B949CA33823F58830E86D65621E10047D9DB34D862E8EAC3C2ABC2F7B2C40D67CDFE01F5545B92105AF983AC54D93D69E56FB8E797F88913F898A9FEC705D3F9D1B54EC8426FB500D40A03BD0119B06E1B95DDC7EB8F6975367793EBD70E66733DFB9BC982F9CE564727731999F5D4ECFCE3B8D6A4DC2A0
310
6D50FD148437D110834A64C6CDDF57FBACB5C307A2A477DFE4939736CFEF2B175371E0E10CF0DD1D5C15654E0BCA14D1E87DD02FF93782A162C0A3D95F1524A52770F972BF1EE9809D13CE7DD599467F8ECE9ADD85CE85A34CD45355448C64F9E8A031DC2D596ACC6E5DD93D9B82DE2EF5CAF81363A8E47996A0DE24564A79
310
4115AACE09C55E14540231FDA13C319787134EBF34E3A022514E5B4D9E0826E25C02D5805B15ABE1BEF51B26383D445DD9E875EE33FE4C22DA16427D65A3BCA92CA6D28DD01DF5DC53330704308475351050232CCD31583787BA75774AFB06E5070DD0C8EF484E19968C5D83BA5B90B244D31E54D55A372320FE4786B7EA58
310
44E135AA5467CB7EA333A61683CC6A8C3257034C10CF46F40EF9F5BE59BE5BD30C3C72D235E95D10345C1D45445A5F0BB47E46A5EBE5570F9380B5FA629579952296A773720405982B9DE04011506178964401AA8BDF1FBF0A8EAB6861DD6580C0E38217056766716DAEB2D6FA0917D3E4116581EADB879C4E7CFFB11EFACD
310
3D641311495D92C8676CB409A72D18610D803CE8A626049E8EC1887CB5B44CC39883690DDA8399B4B9855B481E7D71D4A9D22F96E5BB73BF5793020C02137BF837504B0304140006080000CC70623B000000000000000000000000350000006662782F36394639363044362D344446342D343946362D394244322D32343142
310
43333846323333332F76657274696365732E62696E504B0304140006080800CC70623BF270F1330600000004000000360000006662782F36394639363044362D344446342D343946362D394244322D3234314243333846323333332F747269616E676C65732E62696E636660600000504B0304140006080000CC70623B0000
310
00000000000000000000370000006662782F36394639363044362D344446342D343946362D394244322D3234314243333846323333332F617474726962757465732E62696E504B0304140006080800CC70623B08DA0BD19000000041010000360000006662782F36394639363044362D344446342D343946362D394244322D
310
3234314243333846323333332F6469726563746F72792E786D6C858F410AC3201045AF22B36F53E9A60B35CBEEBAE80D244E44489C6234F4F835464A48035D0DF398FF9F8AF63D0E6CC63039F212F8F9020C7D47C6792B21C5FE7403D62A1188E2E60C98D7234A5830286103A55745067B9D86B8A3CF9C7F90C11DE607FB14
310
4396D7B6A82D282E9A152AD114D5EF2CB866EEE831B8EEA07A7BB5A8D7D61A2BAAEB7FD5F70921FF497D00504B0304140006080800CC70623BCA768048FE000000A00100003B0000006662782F36394639363044362D344446342D343946362D394244322D3234314243333846323333332F7265736F75726365732F636F72
310
652E786D6C8D50596E833010BD0A9ADFCA60D600328E9AA639412F609909B1126CE4A5EAF16B0295DABFFECC8CDEA2797AECF8353F924FB44E193D409E5248504B332A3D0D10FC95B4901C39B3C6F85F3248B49871801506CE266BC2B243D2688FDA47549B11775038871E12F988C7004EDE7016A9083E2ADC3D5D84BC8B09
310
D33C8D74D471E6BC8D0192EDC93A815B742658898E651BCB59086ADC356A8C3FD555A1055ED7E7E254D615792D0F075295F585746FF53B694EE78A565DD736979A65AB9933AFE69F8CD2A2F038022F28ED489E135A7CE4554F9BBEA85E68DB53CAB255FEC71496F19FA6A0B42F8B3DEE6673C0F318E4497096AD7DC5F52C33
310
EEB55BFE0D504B010214000A0000080000CC70623B3DEE336E79000000790000001B00000000000000000000000000000000006175746F6465736B2D64657369676E2D7061636B6167652E786D6C504B01021400140006080800CC70623BD486FD9CA0000000F40000001300000000000000000000000000B20000005B436F
310
6E74656E745F54797065735D2E786D6C504B01021400140006080800CC70623BD9DDAED0EC0000007C010000080000000000000000000000000083010000636F72652E786D6C504B01021400140006080800CC70623B55019EA25F0000007C000000070000000000000000000000000095020000636E782E786D6C504B0102
310
1400140006080800CC70623BA24EB22D72010000D40300000C00000000000000000000000000190300006662782F636F72652E786D6C504B01021400140006080800CC70623B408A7D3B7C0000009D0000000B00000000000000000000000000B50400006662782F636E782E786D6C504B01021400140006080800CC70623B
310
449FB9BD290100001202000031000000000000000000000000005A0500006662782F36394639363044362D344446342D343946362D394244322D3234314243333846323333332F636F72652E786D6C504B01021400140006080800CC70623BAD7543B64E010000330300003000000000000000000000000000D20600006662
310
782F36394639363044362D344446342D343946362D394244322D3234314243333846323333332F636E782E786D6C504B01021400140006080800CC70623B8D05915C650500003B10000034000000000000000000000000006E0800006662782F36394639363044362D344446342D343946362D394244322D32343142433338
310
46323333332F6F626A656374732E786D6C504B01021400140006080000CC70623B0000000000000000000000003500000000000000000000000000250E00006662782F36394639363044362D344446342D343946362D394244322D3234314243333846323333332F76657274696365732E62696E504B010214001400060808
310
00CC70623BF270F13306000000040000003600000000000000000000000000780E00006662782F36394639363044362D344446342D343946362D394244322D3234314243333846323333332F747269616E676C65732E62696E504B01021400140006080000CC70623B00000000000000000000000037000000000000000000
310
00000000D20E00006662782F36394639363044362D344446342D343946362D394244322D3234314243333846323333332F617474726962757465732E62696E504B01021400140006080800CC70623B08DA0BD190000000410100003600000000000000000000000000270F00006662782F36394639363044362D344446342D
310
343946362D394244322D3234314243333846323333332F6469726563746F72792E786D6C504B01021400140006080800CC70623BCA768048FE000000A00100003B000000000000000000000000000B1000006662782F36394639363044362D344446342D343946362D394244322D3234314243333846323333332F7265736F
310
75726365732F636F72652E786D6C504B0506000000000E000E0080040000621100000000
  0
XRECORD
  5
176
102
{ACAD_REACTORS
330
173
102
}
330
173
100
AcDbXrecord
280
     1
270
     1
271
     1
  0
XRECORD
  5
177
102
{ACAD_REACTORS
330
173
102
}
330
173
100
AcDbXrecord
280
     1
270
     1
271
     1
  0
XRECORD
  5
15EE
102
{ACAD_REACTORS
330
234
102
}
330
234
100
AcDbXrecord
280
     1
102
DISPLAYNAME
  1
Metric50
102
FLAGS
 90
        0
  0
CELLSTYLEMAP
  5
15ED
102
{ACAD_REACTORS
330
162
102
}
330
162
100
AcDbCellStyleMap
 90
        3
300
CELLSTYLE
  1
TABLEFORMAT_BEGIN
 90
        5
170
     1
 91
        0
 92
    32768
 62
   257
 93
        1
300
CONTENTFORMAT
  1
CONTENTFORMAT_BEGIN
 90
        0
 91
        0
 92
      512
 93
        0
300

 40
0.0
140
1.0
 94
        5
 62
     0
340
11
144
6.0
309
CONTENTFORMAT_END
171
     1
301
MARGIN
  1
CELLMARGIN_BEGIN
 40
1.5
 40
1.5
 40
1.5
 40
1.5
 40
0.18
 40
0.18
309
CELLMARGIN_END
 94
        6
 95
        1
302
GRIDFORMAT
  1
GRIDFORMAT_BEGIN
 90
        0
 91
        1
 62
     0
 92
       -2
340
14
 93
        0
 40
1.125
309
GRIDFORMAT_END
 95
        2
302
GRIDFORMAT
  1
GRIDFORMAT_BEGIN
 90
        0
 91
        1
 62
     0
 92
       -2
340
14
 93
        0
 40
1.125
309
GRIDFORMAT_END
 95
        4
302
GRIDFORMAT
  1
GRIDFORMAT_BEGIN
 90
        0
 91
        1
 62
     0
 92
       -2
340
14
 93
        0
 40
1.125
309
GRIDFORMAT_END
 95
        8
302
GRIDFORMAT
  1
GRIDFORMAT_BEGIN
 90
        0
 91
        1
 62
     0
 92
       -2
340
14
 93
        0
 40
1.125
309
GRIDFORMAT_END
 95
       16
302
GRIDFORMAT
  1
GRIDFORMAT_BEGIN
 90
        0
 91
        1
 62
     0
 92
       -2
340
14
 93
        0
 40
1.125
309
GRIDFORMAT_END
 95
       32
302
GRIDFORMAT
  1
GRIDFORMAT_BEGIN
 90
        0
 91
        1
 62
     0
 92
       -2
340
14
 93
        0
 40
1.125
309
GRIDFORMAT_END
309
TABLEFORMAT_END
  1
CELLSTYLE_BEGIN
 90
        1
 91
        1
300
_TITLE
309
CELLSTYLE_END
300
CELLSTYLE
  1
TABLEFORMAT_BEGIN
 90
        5
170
     1
 91
        0
 92
        0
 62
   257
 93
        1
300
CONTENTFORMAT
  1
CONTENTFORMAT_BEGIN
 90
        0
 91
        0
 92
      512
 93
        0
300

 40
0.0
140
1.0
 94
        5
 62
     0
340
11
144
4.5
309
CONTENTFORMAT_END
171
     1
301
MARGIN
  1
CELLMARGIN_BEGIN
 40
1.5
 40
1.5
 40
1.5
 40
1.5
 40
0.18
 40
0.18
309
CELLMARGIN_END
 94
        6
 95
        1
302
GRIDFORMAT
  1
GRIDFORMAT_BEGIN
 90
        0
 91
        1
 62
     0
 92
       -2
340
14
 93
        0
 40
1.125
309
GRIDFORMAT_END
 95
        2
302
GRIDFORMAT
  1
GRIDFORMAT_BEGIN
 90
        0
 91
        1
 62
     0
 92
       -2
340
14
 93
        0
 40
1.125
309
GRIDFORMAT_END
 95
        4
302
GRIDFORMAT
  1
GRIDFORMAT_BEGIN
 90
        0
 91
        1
 62
     0
 92
       -2
340
14
 93
        0
 40
1.125
309
GRIDFORMAT_END
 95
        8
302
GRIDFORMAT
  1
GRIDFORMAT_BEGIN
 90
        0
 91
        1
 62
     0
 92
       -2
340
14
 93
        0
 40
1.125
309
GRIDFORMAT_END
 95
       16
302
GRIDFORMAT
  1
GRIDFORMAT_BEGIN
 90
        0
 91
        1
 62
     0
 92
       -2
340
14
 93
        0
 40
1.125
309
GRIDFORMAT_END
 95
       32
302
GRIDFORMAT
  1
GRIDFORMAT_BEGIN
 90
        0
 91
        1
 62
     0
 92
       -2
340
14
 93
        0
 40
1.125
309
GRIDFORMAT_END
309
TABLEFORMAT_END
  1
CELLSTYLE_BEGIN
 90
        2
 91
        1
300
_HEADER
309
CELLSTYLE_END
300
CELLSTYLE
  1
TABLEFORMAT_BEGIN
 90
        5
170
     1
 91
        0
 92
        0
 62
   257
 93
        1
300
CONTENTFORMAT
  1
CONTENTFORMAT_BEGIN
 90
        0
 91
        0
 92
      512
 93
        0
300

 40
0.0
140
1.0
 94
        2
 62
     0
340
11
144
4.5
309
CONTENTFORMAT_END
171
     1
301
MARGIN
  1
CELLMARGIN_BEGIN
 40
1.5
 40
1.5
 40
1.5
 40
1.5
 40
0.18
 40
0.18
309
CELLMARGIN_END
 94
        6
 95
        1
302
GRIDFORMAT
  1
GRIDFORMAT_BEGIN
 90
        0
 91
        1
 62
     0
 92
       -2
340
14
 93
        0
 40
1.125
309
GRIDFORMAT_END
 95
        2
302
GRIDFORMAT
  1
GRIDFORMAT_BEGIN
 90
        0
 91
        1
 62
     0
 92
       -2
340
14
 93
        0
 40
1.125
309
GRIDFORMAT_END
 95
        4
302
GRIDFORMAT
  1
GRIDFORMAT_BEGIN
 90
        0
 91
        1
 62
     0
 92
       -2
340
14
 93
        0
 40
1.125
309
GRIDFORMAT_END
 95
        8
302
GRIDFORMAT
  1
GRIDFORMAT_BEGIN
 90
        0
 91
        1
 62
     0
 92
       -2
340
14
 93
        0
 40
1.125
309
GRIDFORMAT_END
 95
       16
302
GRIDFORMAT
  1
GRIDFORMAT_BEGIN
 90
        0
 91
        1
 62
     0
 92
       -2
340
14
 93
        0
 40
1.125
309
GRIDFORMAT_END
 95
       32
302
GRIDFORMAT
  1
GRIDFORMAT_BEGIN
 90
        0
 91
        1
 62
     0
 92
       -2
340
14
 93
        0
 40
1.125
309
GRIDFORMAT_END
309
TABLEFORMAT_END
  1
CELLSTYLE_BEGIN
 90
        3
 91
        2
300
_DATA
309
CELLSTYLE_END
  0
ENDSEC
  0
SECTION
  2
ACDSDATA
 70
     2
 71
     8
  0
ACDSSCHEMA
 90
        0
  1
AcDb_Thumbnail_Schema
  2
AcDbDs::ID
280
    10
 91
        8
  2
Thumbnail_Data
280
    15
 91
        0
101
ACDSRECORD
 95
        0
 90
        1
  2
AcDbDs::TreatedAsObjectData
280
     1
291
     1
101
ACDSRECORD
 95
        0
 90
        2
  2
AcDbDs::Legacy
280
     1
291
     1
101
ACDSRECORD
  1
AcDbDs::ID
 90
        3
  2
AcDs:Indexable
280
     1
291
     1
101
ACDSRECORD
  1
AcDbDs::ID
 90
        4
  2
AcDbDs::HandleAttribute
280
     7
282
     1
  0
ACDSSCHEMA
 90
        1
  1
AcDbDs::TreatedAsObjectDataSchema
  2
AcDbDs::TreatedAsObjectData
280
     1
 91
        0
  0
ACDSSCHEMA
 90
        2
  1
AcDbDs::LegacySchema
  2
AcDbDs::Legacy
280
     1
 91
        0
  0
ACDSSCHEMA
 90
        3
  1
AcDbDs::IndexedPropertySchema
  2
AcDs:Indexable
280
     1
 91
        0
  0
ACDSSCHEMA
 90
        4
  1
AcDbDs::HandleAttributeSchema
  2
AcDbDs::HandleAttribute
280
     7
 91
        1
284
     1
  0
ACDSRECORD
 90
        0
  2
AcDbDs::ID
280
    10
320
22
  2
Thumbnail_Data
280
    15
 94
     3025
310
89504E470D0A1A0A0000000D494844520000010000000065080300000095E2CD0900000300504C5445212830000000C8C8C80000000000000000000000000000000000000000000000000000330000660000990000CC0000FF0033000033330033660033990033CC0033FF0066000066330066660066990066CC0066FF0099
310
000099330099660099990099CC0099FF00CC0000CC3300CC6600CC9900CCCC00CCFF00FF0000FF3300FF6600FF9900FFCC00FFFF3300003300333300663300993300CC3300FF3333003333333333663333993333CC3333FF3366003366333366663366993366CC3366FF3399003399333399663399993399CC3399FF33CC00
310
33CC3333CC6633CC9933CCCC33CCFF33FF0033FF3333FF6633FF9933FFCC33FFFF6600006600336600666600996600CC6600FF6633006633336633666633996633CC6633FF6666006666336666666666996666CC6666FF6699006699336699666699996699CC6699FF66CC0066CC3366CC6666CC9966CCCC66CCFF66FF0066
310
FF3366FF6666FF9966FFCC66FFFF9900009900339900669900999900CC9900FF9933009933339933669933999933CC9933FF9966009966339966669966999966CC9966FF9999009999339999669999999999CC9999FF99CC0099CC3399CC6699CC9999CCCC99CCFF99FF0099FF3399FF6699FF9999FFCC99FFFFCC0000CC00
310
33CC0066CC0099CC00CCCC00FFCC3300CC3333CC3366CC3399CC33CCCC33FFCC6600CC6633CC6666CC6699CC66CCCC66FFCC9900CC9933CC9966CC9999CC99CCCC99FFCCCC00CCCC33CCCC66CCCC99CCCCCCCCCCFFCCFF00CCFF33CCFF66CCFF99CCFFCCCCFFFFFF0000FF0033FF0066FF0099FF00CCFF00FFFF3300FF3333
310
FF3366FF3399FF33CCFF33FFFF6600FF6633FF6666FF6699FF66CCFF66FFFF9900FF9933FF9966FF9999FF99CCFF99FFFFCC00FFCC33FFCC66FFCC99FFCCCCFFCCFFFFFF00FFFF33FFFF66FFFF99FFFFCCFFFFFF0000000D0D0D1A1A1A2828283535354343435050505D5D5D6B6B6B787878868686939393A1A1A1AEAEAEBB
310
BBBBC9C9C9D6D6D6E4E4E4F1F1F1FFFFFF000000000000000000000000000000000000000000000000000000000000B21171F6000003054944415478DAED5A4192233108E3FFFFD57D6B27890D18EC4EEFD416764BB94C672A07641002B708411004411004411004F1BBC0D3E3079E4DD0928073184012EB32057050B5071C
310
605D04A7508038A1B14CF24E004E64E0820A9C4DC0372A807DE39E16C1D54EB863FC7F13FC93E4F811BCEF53603F02BAB2A3E1450342D13F8D8016F34F6478C587A9E64D29686CEE960049542101130A5AD5EC230137EC3DF25F21EF1FDB9AE298943C6170DA5484AB16E1F3E5197678620830AB8D2B0343E9136E9AD8A2C0
310
FBB3260058486AC1887DAF873603F6BB2501A6F80B5380DEEAADF15106B0B3F08AC59C6C3627059553B7F3C386DA7A7BB780069D844CE77DFC951B818FCA1CBAB3C4ADB0A12C1E54AAD870774980770668232C82E1E4D580A425C18A830977030274CEDB58FB4C80F731C37D65DDB34AFAF6B8C136005EE6D4B3133F2F0976
310
1A30AA29EF8212EC9A01860915165C830F1AA9A842309552D6057CF44FD311AC02B447809B00110F0B46184BE7808893B840FF549E8B5F0F695B84D86348712734A481918177AB47661825E809A29D52B24FAB4480B422571D4FA780134384C607832018A52DED04BC0D76A1A3F7C54104ADF547B02DEA3A5BB70FD89C6FDA
310
20CDFFF73A01C62550D31141366C994E529000D705BC05B2FF96A408D28D89DA0FD4B4426EFA6DB2F7D90FBBB1208F7F4240CDFDA0D7B9C108A911D8C840B6181DB9312CA1AA08C4A38FE4E420DF8BA63E514A76C3E1D4C3EB218CA9620E16D3BC2F4D808B0132EE07E29DC8ACB2914C0A65FD906E6DB91284E98F50DAE375
310
208ADF114087A45764EE0F599F6A3C1EA0FA2D89BF06475B6DA89D58E4F617CBE66D084807B7D8C662D2D9110F4B07DE9365EFD0050F38EDA610136FEF5A655D2BF86F0970F5353138913D23FE4B4D0D6E617006057D51765953D574BD7D1DE8A1F98BA612DCA9EE1AFEBDB68A4D2E0B2FCADA0D5F013982805FF9C99312A0
310
ED948E48809B0D6C7855060F2A800B7B92E3136021884F02BEF090C73250F382E4BFDBA8E75270DB511204411004411004411004411004411004411004411009FE007F806B09A47F7D4B0000000049454E44AE426082750DE073FA3D3D30E940139FDBAAA92BCB92B140149987AAA8E0F80BCAF817D819AA51211072AA2750
310
4A6C12BA37FA8A14028901DCF60047BEAE2293B828451218A1B024D7884AA8711621A8C46F5BB6F0396F4CA222646BD64A132AAE0985BA0BF87C0E89871260DBC6CB335721B34AAC88EFA159919280CFC4B4F1AF2B182581A954A62D9A82006C1BA0CAEE920122AAC742284EB0CBB4C093054DB75B864679A34AE359562F2A
310
D35E318854D6806D134A69B201EAF2EE94A93C297B37F864F15A0D71E4E44C0A892462F4F1E775204116D455097F8E6D015D97D5CC8A829977AF31EC802A6F39A4D7EF31E2A5CC88DEECFAFDDDECB54B499362432AB945C4A313024A7DCEC64339E01DA4DCF2401C4D5124E40E07EDE63FD035260AC146E8A1F85B58E52A66
310
7375370489917712021D25BC2ABCDA7247957E3482B463FC092BB310223C6A1499E0ED068896650204A35A1466888443514DCEC39718D952341A236C548EB014B57AAF427979ED0958DA7018ABFA682D602A85448A6F7942A2F944E940A0AA9AC988E0DCD2198D210F90E49D7A4AD1FA14131EDF300005391B0C3A84766C2B
310
3DAD46C84A178E4AB917CAAF3000A3B7FDE19AF8AD76344C2EA87A95055CE587A1A9C47E8968211927036B1648D729FC91526BD8A54CDC985015CA7162001F4CE7B59F0037DB5AC4E81BE06C074CD0FC5A4E91A3340B921035EC8F73A2AE05F0B401CA6650A776E55AE5D21E4801127D215C11A9F7AFD07AF2EB3E6B321E58
310
3D8A2174A4AC9246B71C1B547783E01640933D802CC35506485601434CA5AD62793BAB383480B0FACEA81CD70F5F8A641C3964BD61245F126D8E3F596E0E1E47A99C86F0095723B8585EA1BC922E15716680C0039276AD4C190FD52D56A9F786EA73489081EE24564FB5AA75528824163C1CAE45E70A0025BC875D62F1F2A5
310
F786DA4628B7156A5F6A4F63042D3D31EFC2E8646511133BAB88723F544C5ECBED1C14EC854210EE5A40BCB94203DA2E54B6AE0446B607A6108F9B8589457680430B68683E4E07CB168E408CA8FB651B75696A126392FDCC4AB92E3E469293C4C2B1BA7135CBC117B4C63F6FEE66D9EE5CC510826451F232D18DB4740309EC
310
0E50DFDEE7338B5D05C60DFACBDD6DF7B50B682DBEC58710F40C4F21F13933941D23E13A3320B698AA9954378048D411B439FCD9162C202BB7A2EE69158DDC004A6D762220255194AA136963A1A063829A774B3858EE7EBAD593B237EA96FC673C9A098F6EE136768673344D295896BB86FF36C9ED7B49331680B7BA5D20D7
310
B0D1F35A5F69ACFA0828879DF3801A94EE7117F18EC0C8B94920A2DB59378B142A76D73762EE9DF1D68577B2029B78A2B42887AAE1A84DB01862DB51CF930658092493A01DF7AD196321356856CA0964347322E813498CF373CB0073C22239CE81A810D616B046F2088011244CE98BC367FBBEEE69447191F5F84F83EC4348
310
52022AE34C7EC114716296B6057C9E87CBFD08DA680BE38EB985626F1C094E7090D6AB97EC0C9C1C2F870B35CA9335D03E6BA4B639AB2F72A3A2B604DB5AE6F3AAFA27F3E191E012BAAA1B71D94E8F623BBF649BB370069D1DD05BAD1887D776A085E44474F7EE83D732C5DE5F5AB753310E0E51120CD03CD24A59694AB0BD
310
7B5CC9901F08E7192FC0025D01F06E884D3361B2CC62568D6ABA8824329D59A0F5FB35ECDC25C569CF73B54E4CFD38BFA393578DBFA90C4F22B5111C27881642D6B4501435A7DE6CF2210B588F34026AD8569EF318B36F80F5DCBD29F23E317EB94D647252863931B54AF1EE1975767BD1E6121F19FF599F90232CE54E4B2D
310
33BD3EF99F5BE038F8E643B15251B45A73FBDCF07D6F3FC75C8132DD38198E679EFF9405E8EEE5C9497862678EF2D29B0D903724BF048CF05C7CBDD502303EF0761F2AEDC773F3BDBED7F7FA5EDFEB7BFD6FD73F05FF0DC34869A4D80000000049454E44AE426082
  0
ENDSEC
  0
EOF
